<?xml version="1.0" standalone="no"?>
<!DOCTYPE svg PUBLIC "-//W3C//DTD SVG 1.1//EN" "http://www.w3.org/Graphics/SVG/1.1/DTD/svg11.dtd" >
<svg xmlns="http://www.w3.org/2000/svg">
<metadata>
This is a custom SVG webfont generated by Font Squirrel.
Copyright   : Linux Libertine by Philipp H Poll Open Font under Terms of following Free Software LicensesGPL General Public License with fontexception and OFL Open Font LicenseCreated with FontForge httpfontforgesfnet Sept 2003 2004 2005 2006 2007 2008
Designer    : Philipp H Poll
Foundry     : Philipp H Poll
Foundry URL : httplinuxlibertinesfnet
</metadata>
<defs>
<font id="webfontfzdC8Gkp" horiz-adv-x="952" >
<font-face units-per-em="2048" ascent="1638" descent="-410" />
<missing-glyph horiz-adv-x="512" />
<glyph unicode=" "  horiz-adv-x="512" />
<glyph unicode="&#x09;" horiz-adv-x="512" />
<glyph unicode="&#xa0;" horiz-adv-x="512" />
<glyph unicode="!" horiz-adv-x="466" d="M117 90v8q15 41 39.5 67t70.5 44h9q45 -17 70.5 -42.5t39.5 -68.5v-8q-16 -49 -41 -74t-69 -36h-9q-48 11 -72.5 35t-37.5 75zM231 1348q46 0 80.5 -39t34.5 -111q0 -76 -23 -206t-30 -189q-11 -97 -18.5 -183.5t-10.5 -134t-4 -55.5q-4 -41 -29 -41q-15 0 -20.5 7 t-7.5 20q-1 13 -5.5 78.5t-11.5 152t-14 156.5q-7 72 -29 194t-22 201q0 75 34.5 112.5t75.5 37.5z" />
<glyph unicode="&#x22;" horiz-adv-x="688" d="M182 872q-53 327 -53 345q0 36 30.5 69t73.5 33q37 0 54.5 -20t17.5 -48q0 -15 -16.5 -107.5t-33.5 -177.5l-17 -85zM440 874q-53 327 -53 345q0 36 31 69t74 33q37 0 54 -20t17 -48q0 -15 -16.5 -107.5t-33.5 -177.5l-17 -85z" />
<glyph unicode="#" horiz-adv-x="962" d="M694 745l-41 -239h199l-16 -107h-195l-61 -370h-72l57 370h-239l-62 -370h-71l59 370h-197l15 107h198l39 239h-198l18 109h197l59 371h74l-62 -371h244l57 371h72l-59 -371h198l-16 -109h-197zM584 506l37 239h-240l-39 -239h242z" />
<glyph unicode="$" d="M539 567v-493q86 19 141 78t55 153q0 57 -15 101t-44.5 74t-60.5 49t-76 38zM460 792v456q-93 -4 -147.5 -63.5t-54.5 -149.5q0 -153 202 -243zM460 65v534q-59 24 -103.5 46.5t-94 57t-81 72.5t-52 91t-20.5 115q0 96 53 175t132 122t166 51v129h79v-129q59 -3 110 -13 t81.5 -22.5t52.5 -25t31 -20.5l9 -8l5 -8q-31 -97 -40 -192l-21 -3q-78 176 -228 206v-482q60 -22 104 -41.5t97 -53.5t87 -72t57 -94.5t23 -122.5q0 -131 -109 -244t-259 -146v-175h-79v165h-16q-110 0 -201 23.5t-127 46.5l-37 23l-5 7q33 123 42 197l19 3 q44 -95 131 -153t194 -59z" />
<glyph unicode="%" horiz-adv-x="1392" d="M242 870q0 -77 30 -110t68 -33q57 0 104.5 55t71 128t23.5 139q0 73 -30.5 103t-68.5 30q-50 0 -97 -51.5t-74 -124t-27 -136.5zM797 1141q90 0 185.5 27t141.5 89l70 -34l-897 -1250l-74 33l785 1094q-104 -41 -234 -41q-39 0 -91.5 13.5t-82.5 31.5q6 -21 6 -53 q0 -55 -18.5 -119.5t-52 -125.5t-89 -101.5t-120.5 -40.5q-94 0 -145.5 72t-51.5 165q0 130 86 239t201 109q44 0 86.5 -17t60.5 -38q115 -53 234 -53zM831 215q0 82 37.5 161t105.5 131t146 52q36 0 67 -9t60 -30t45.5 -62t16.5 -98t-18.5 -122.5t-52 -125.5t-88.5 -99.5 t-120 -39.5q-94 0 -146.5 73t-52.5 169zM946 182q0 -78 30 -111.5t68 -33.5q57 0 104.5 55.5t71 128t23.5 137.5q0 40 -10.5 69t-27.5 42t-31.5 18t-28.5 5q-50 0 -97.5 -51t-74.5 -123t-27 -136z" />
<glyph unicode="&#x26;" horiz-adv-x="1454" d="M895 393q104 154 152 269.5t61 222.5q20 -6 80 -6q68 0 88 6l-164 -293q-134 -240 -160 -279l70 -94q44 -63 87.5 -96t70.5 -33q52 0 88.5 26t66.5 85l33 -17q-33 -102 -88 -153t-113 -51q-31 0 -51.5 3t-52 15t-64.5 42t-67 77l-60 76q-77 -106 -162 -159.5t-208 -53.5 q-85 0 -157 20t-130.5 61t-91.5 112.5t-33 166.5q0 110 92 212t295 216q-110 171 -110 301q0 46 22 94.5t61 90t102 68t136 26.5q107 0 183.5 -68.5t76.5 -165.5q0 -83 -86 -180.5t-217 -173.5l8 -17q66 -112 242 -350zM600 842q96 63 153.5 139t57.5 133q0 70 -35.5 112 t-97.5 42q-50 0 -103 -52t-53 -143q0 -41 19.5 -103.5t58.5 -127.5zM522 692q-102 -56 -158.5 -117.5t-74 -119t-17.5 -136.5q0 -73 19.5 -125t54.5 -80t77 -40.5t93 -12.5q31 0 57.5 5.5t46.5 11.5t43 23.5t36.5 29t37 40.5t35.5 45l41 56q-82 108 -177 246t-114 174z" />
<glyph unicode="'" horiz-adv-x="389" d="M162 872q-53 327 -53 345q0 36 30.5 69t73.5 33q37 0 54.5 -20t17.5 -48q0 -15 -17 -107l-34 -178l-17 -85z" />
<glyph unicode="(" horiz-adv-x="614" d="M90 516q0 274 120.5 520.5t313.5 411.5l47 -37l-39 -45q-18 -21 -51.5 -70.5t-60 -98.5t-58 -125.5t-52.5 -155.5t-35.5 -184t-14.5 -216q0 -542 311 -899l-47 -35q-87 76 -157.5 164t-115 166t-77 164t-48 149t-24.5 130.5t-10.5 98.5t-1.5 62z" />
<glyph unicode=")" horiz-adv-x="614" d="M524 516q0 -274 -120.5 -520.5t-313.5 -411.5l-47 37l39 45q18 21 51.5 70.5t60 98.5t58 125.5t52.5 155.5t35.5 184t14.5 216q0 542 -311 899l47 35q87 -76 157.5 -164t115 -166t77 -164t48 -149t24.5 -130.5t10.5 -98.5t1.5 -62z" />
<glyph unicode="*" horiz-adv-x="886" d="M406 1161q-36 8 -87 8q-82 0 -123.5 16.5t-41.5 59.5q0 25 16.5 43.5t50.5 18.5q30 0 59 -17.5t65.5 -45t72.5 -42.5q-4 41 -25.5 102t-21.5 87q0 33 17 56t44 23q30 0 49 -18t19 -53q0 -29 -18.5 -99.5t-20.5 -99.5q37 16 73.5 44.5t64 45.5t56.5 17q36 0 53 -20.5 t17 -41.5q0 -76 -141 -76q-64 0 -113 -8q25 -28 72 -58.5t72.5 -57t25.5 -62.5q0 -26 -18 -42.5t-41 -16.5q-36 0 -59.5 33t-46.5 93.5t-40 86.5q-15 -27 -39.5 -90.5t-46.5 -93t-57 -29.5q-26 0 -43 16.5t-17 40.5q0 39 27 65.5t74 56.5t72 58z" />
<glyph unicode="+" horiz-adv-x="1079" d="M592 526h352v-100h-352v-356h-105v356h-352v100h352v357h105v-357z" />
<glyph unicode="," horiz-adv-x="450" d="M98 90v8q14 41 39.5 67t71.5 44h8q62 -23 96.5 -72.5t34.5 -142.5q0 -35 -7 -66t-15 -53t-28 -45.5t-32 -36t-41 -32.5t-42 -28t-48 -28q-26 22 -26 43q81 55 120 100t39 93q0 18 -5 29.5t-15 16t-18.5 6t-20.5 1.5q-52 11 -75 29t-36 67z" />
<glyph unicode="-" horiz-adv-x="681" d="M561 483h-463q-13 0 -21.5 10.5t-8.5 24.5q0 25 16.5 50.5t34.5 25.5h469q28 0 28 -37q0 -19 -18 -46.5t-37 -27.5z" />
<glyph unicode="." horiz-adv-x="450" d="M111 90v8q15 41 39.5 67t70.5 44h8q45 -17 71 -42.5t40 -68.5v-8q-16 -49 -41.5 -74t-69.5 -36h-8q-48 11 -72.5 35t-37.5 75z" />
<glyph unicode="/" horiz-adv-x="661" d="M600 1323l-485 -1444h-84l485 1444h84z" />
<glyph unicode="0" d="M467 -20q-123 0 -212 84.5t-132 221t-43 306.5q0 147 33 272t88.5 208.5t127 130t148.5 46.5q117 0 195 -71q33 -30 62 -71t60 -105.5t49.5 -160t18.5 -208.5q0 -138 -26 -251.5t-67.5 -186t-94.5 -123t-105 -71.5t-102 -21zM477 1167q-221 0 -221 -579q0 -52 3 -101.5 t10 -113.5t22.5 -116t37.5 -98t58 -72t82 -26q14 0 29 3t37.5 15t42.5 31t40 55.5t33 84.5q20 76 27.5 164.5t7.5 234.5q0 194 -34 318.5t-85 167.5q-37 32 -90 32z" />
<glyph unicode="1" d="M668 387q0 -229 18 -387l-4 -6q-57 6 -98 6l-95 -6l-2 6q17 142 17 387v508q0 37 -0.5 57t-4 47t-11.5 39.5t-21 12.5q-101 0 -221 -13l-4 60q111 25 252.5 83.5t175.5 69.5q14 0 14 -10q-16 -116 -16 -334v-520z" />
<glyph unicode="2" d="M463 1169q-69 0 -145.5 -70.5t-131.5 -170.5l-28 2l-54 141l9 6q3 3 9 8l44 37q18 14 56.5 41.5t73 43.5t84.5 29t99 13q184 0 279.5 -77.5t95.5 -227.5q0 -119 -81 -218q-30 -36 -126 -130l-205 -197q-60 -58 -92 -134t-37 -150h193q60 0 101.5 0.5t77 2.5t51.5 3 t56 4.5t60 5.5q-10 -45 -10 -63q0 -33 10 -78q-257 10 -324 10q-69 0 -134 -1.5t-149 -4.5t-141 -4l-4 10q0 103 49 200.5t193 237.5l152 148q53 53 80.5 85t51.5 74.5t33 89t9 111.5q0 59 -21 105t-54 70t-66 36t-64 12z" />
<glyph unicode="3" d="M416 63q26 0 53 5t63.5 24.5t63.5 50t46.5 88.5t19.5 134q0 80 -43 141.5t-102.5 90t-121.5 28.5q-59 0 -82 -4v71q150 9 231 79.5t81 191.5q0 93 -57.5 147.5t-125.5 54.5q-41 0 -74 -9.5t-54.5 -23t-44 -42t-36 -50.5t-37.5 -66q-4 -7 -6 -11l-28 2l-43 163l6 7 q48 42 139.5 78t196.5 36q154 0 247 -72t93 -200q0 -121 -57.5 -195t-151.5 -108v-4q113 -11 186.5 -95.5t73.5 -205.5q0 -78 -25 -143.5t-67.5 -110t-99.5 -76t-119 -45.5t-127 -14q-105 0 -194.5 36t-137.5 78l-6 6l43 164l28 2q25 -46 39.5 -69.5t39.5 -54t49 -44.5 t60 -24.5t81 -10.5z" />
<glyph unicode="4" d="M586 1049l-416 -643h416v643zM586 303h-422q-121 0 -121 41q0 30 27 80q79 136 255.5 405.5t270.5 399.5l8 8q37 -8 70 -8q17 0 45 4t35 4q4 0 4 -8q-13 -122 -13 -303v-520h132q30 0 30 -33q0 -19 -19.5 -44.5t-39.5 -25.5h-103q0 -110 13 -303q0 -6 -4 -6q-7 0 -37.5 3 t-48.5 3l-97 -6l-2 6q17 147 17 303z" />
<glyph unicode="5" d="M414 -20q-181 0 -310 114l-8 6l45 164l29 2l21 -39l20 -37q6 -11 19 -31.5t21 -28.5l22 -24q14 -14 27.5 -20t31.5 -13t39.5 -9.5t46.5 -2.5q105 0 169 83t64 223q0 159 -64 234t-171 75q-153 0 -271 -49l68 614q140 -12 233 -12q169 0 336 20l15 -6l-33 -139 q-101 -12 -215 -12q-109 0 -246 18l-43 -362q84 30 209 30q165 0 262.5 -110t97.5 -267q0 -182 -116.5 -301.5t-298.5 -119.5z" />
<glyph unicode="6" d="M819 1194q-112 -11 -199 -45.5t-161 -106.5q-161 -158 -195 -415q36 45 109.5 75.5t136.5 30.5q91 0 160.5 -29t107 -70.5t61.5 -95t31 -93.5t7 -76q0 -48 -10 -97t-37 -102.5t-67.5 -94t-108.5 -67t-154 -26.5q-53 0 -103.5 12t-106.5 46.5t-97.5 89.5t-69 150 t-27.5 218q0 154 54 293t163 249q103 104 221 153t279 58zM260 567q-2 -20 -2 -75q0 -105 17.5 -184.5t43.5 -124.5t63 -73.5t70 -37.5t70 -9q183 0 183 291q0 35 -4.5 69.5t-20 77.5t-40 74.5t-69.5 53.5t-104 22q-125 0 -207 -84z" />
<glyph unicode="7" d="M713 1087q-239 0 -584 -18q10 77 10 92q0 5 -10 82q103 -14 573 -14q70 0 132 20l34 -20q-277 -677 -469 -1247l-139 -9l-6 13q141 316 459 1101z" />
<glyph unicode="8" d="M467 57q32 0 61.5 5t63.5 20t58 39t40.5 67.5t16.5 100.5q0 152 -181 266l-94 59q-192 -128 -192 -315q0 -65 22 -114.5t57 -76t72.5 -39t75.5 -12.5zM805 993q0 -143 -232 -297l125 -82q84 -55 123 -123.5t39 -158.5q0 -61 -25 -121t-72 -112t-125.5 -84.5t-174.5 -32.5 q-167 0 -267 82t-100 235q0 63 30.5 128t90.5 118q78 69 141 117l-41 22q-170 99 -170 285q0 120 96.5 200t250.5 80q148 0 229.5 -71t81.5 -185zM481 1174q-90 0 -140 -47t-50 -121q0 -60 28 -113.5t115 -110.5l64 -37q61 44 113.5 110.5t52.5 139.5q0 79 -44.5 129 t-138.5 50z" />
<glyph unicode="9" d="M123 35q113 11 199.5 45.5t160.5 105.5q75 74 126.5 181t68.5 235q-36 -45 -109.5 -75.5t-136.5 -30.5q-66 0 -120.5 15t-91.5 39.5t-65.5 58t-45 67t-26.5 70t-13.5 63.5t-3.5 51q0 48 10 97t36.5 102.5t67.5 94t108.5 67t153.5 26.5q53 0 103.5 -12t106.5 -46.5 t97.5 -89.5t69 -150t27.5 -218q0 -154 -54 -293.5t-163 -249.5q-103 -104 -221 -153t-279 -58zM682 662q2 20 2 75q0 105 -17.5 184.5t-43.5 124.5t-63 73t-70 37t-70 9q-182 0 -182 -291q0 -24 2 -48t8.5 -54t17.5 -56.5t29 -52.5t42 -44t59.5 -29.5t78.5 -11.5 q125 0 207 84z" />
<glyph unicode=":" horiz-adv-x="450" d="M125 190v9q14 41 39.5 66t71.5 44h8q45 -17 70.5 -42t39.5 -68v-9q-16 -49 -41 -74t-69 -36h-8q-48 11 -73 35t-38 75zM125 729v8q14 41 39.5 67t71.5 44h8q45 -17 70.5 -42.5t39.5 -68.5v-8q-16 -49 -41 -74.5t-69 -36.5h-8q-48 11 -73 35.5t-38 75.5z" />
<glyph unicode=";" horiz-adv-x="450" d="M98 90v8q14 41 39.5 67t71.5 44h8q62 -23 96.5 -72.5t34.5 -142.5q0 -35 -7 -66t-15 -53t-28 -45.5t-32 -36t-41 -32.5t-42 -28t-48 -28q-26 22 -26 43q81 55 120 100t39 93q0 18 -5 29.5t-15 16t-18.5 6t-20.5 1.5q-52 11 -75 29t-36 67zM104 729v8q14 41 39.5 67 t71.5 44h8q45 -17 71 -42.5t40 -68.5v-8q-16 -49 -41.5 -74.5t-69.5 -36.5h-8q-48 11 -73 35.5t-38 75.5z" />
<glyph unicode="&#x3c;" horiz-adv-x="997" d="M250 489l649 -237v-102l-799 290v99l799 288v-102z" />
<glyph unicode="=" horiz-adv-x="1079" d="M944 395v-100h-809v100h809zM944 651v-100h-809v100h809z" />
<glyph unicode="&#x3e;" horiz-adv-x="997" d="M750 483l-650 238v102l799 -291v-98l-799 -289v103z" />
<glyph unicode="?" horiz-adv-x="829" d="M254 90v8q14 41 39.5 67t71.5 44h8q45 -17 70.5 -42.5t39.5 -68.5v-8q-16 -49 -41 -74t-69 -36h-8q-48 11 -73 35t-38 75zM399 1268q-141 0 -252 -193l-26 2l-33 137l6 9q55 46 141 86.5t183 40.5q156 0 247 -84.5t91 -225.5q0 -47 -14.5 -90t-33 -72.5t-53 -63 t-56 -50.5t-60.5 -45q-88 -65 -107 -103q-37 -70 -37 -149v-90q0 -21 -26 -21q-27 0 -27 21v94q0 43 3.5 73.5t15.5 76.5t41.5 91.5t76.5 88.5q66 61 94.5 111.5t28.5 119.5q0 100 -58 168t-145 68z" />
<glyph unicode="@" horiz-adv-x="1832" d="M1194 152q0 -13 8.5 -19t14.5 -6q82 0 141.5 20.5t105.5 69.5t69 135t23 211q0 122 -39.5 227t-103.5 177t-145.5 123.5t-165 75.5t-162.5 24q-96 0 -188 -25t-177 -80.5t-149 -135.5t-102.5 -197t-38.5 -258q0 -69 10 -138.5t33.5 -144.5t59 -141.5t91 -127t124 -104 t162.5 -69t204 -25.5q241 0 411 135l27 -37q-108 -83 -213 -124.5t-264 -41.5q-180 0 -332.5 61t-256 166t-162 248t-58.5 306q0 162 67 309t179.5 253.5t268 169t325.5 62.5q162 0 303.5 -51.5t240.5 -141t156 -214t57 -266.5q0 -74 -18 -144.5t-62 -140t-109.5 -121.5 t-168.5 -84.5t-232 -32.5q-40 0 -56.5 26t-16.5 58q0 33 30 129l-4 2q-63 -106 -137 -158.5t-135 -52.5q-72 0 -124.5 27.5t-78 70t-36.5 81.5t-11 75q0 106 44 205.5t113 168.5t154 111t166 42q52 0 97.5 -24.5t60.5 -63.5l10 49l109 26l30 -10l-122 -528 q-27 -124 -27 -137zM1165 647q0 57 -38 93t-95 36q-35 0 -89 -20t-95 -62q-139 -139 -139 -362q0 -189 159 -189q54 0 121 77t115 190q61 142 61 237z" />
<glyph unicode="A" horiz-adv-x="1308" d="M842 564q-97 253 -207 505h-4l-216 -504q18 0 99 -2t115 -2q113 0 213 3zM375 468q-124 -305 -170 -474q-25 6 -92 6q-47 0 -72 -6l604 1354h57l198 -483l224 -550q95 -230 140 -321q-35 6 -123 6q-68 0 -103 -6q-45 168 -159 474q-115 3 -240 3q-147 0 -264 -3z" />
<glyph unicode="B" horiz-adv-x="1261" d="M301 1321q55 0 141.5 3t118.5 3q110 0 193 -20.5t131.5 -51.5t78.5 -75t40 -84t10 -86q0 -82 -55 -157.5t-136 -115.5q143 -41 227.5 -130.5t84.5 -229.5q0 -57 -13 -108t-48.5 -102.5t-91 -88.5t-146.5 -60.5t-209 -23.5q-98 0 -183.5 3t-142.5 3q-32 0 -59 -2 q-26 0 -36 -2l-11 -2l-2 6q20 139 20 410v501q0 264 -20 410l4 6q34 -6 104 -6zM389 672v-492q0 -51 46.5 -74.5t152.5 -23.5q86 0 149 13.5t100 35.5t59 56t29 69t7 82q0 146 -90 240t-262 94h-191zM389 1145v-385h160q138 0 212.5 51t74.5 174q0 74 -24 127t-64.5 79 t-82.5 37t-90 11q-82 0 -122.5 -10t-52 -28.5t-11.5 -55.5z" />
<glyph unicode="C" horiz-adv-x="1396" d="M778 1348q70 0 142 -9.5t124 -23t94.5 -27.5t64.5 -24l22 -9l4 -6l-13 -51l-10 -44q-3 -12 -7 -35t-6.5 -44.5t-4.5 -52.5l-21 -2q-115 231 -417 231q-53 0 -109.5 -18.5t-115 -62t-104.5 -106.5t-75 -162t-29 -218q0 -91 18 -177t56.5 -163t93.5 -135t133 -91.5 t170 -33.5q142 0 235 45t202 166l49 -39q-211 -276 -504 -276q-128 0 -237.5 37.5t-187 101.5t-132 149.5t-81 181t-26.5 195.5q0 147 56.5 279t149.5 224t215 146t251 54z" />
<glyph unicode="D" horiz-adv-x="1454" d="M301 1321q65 0 169 3t169 3q145 0 276.5 -55.5t226 -149t150.5 -222.5t56 -269q0 -105 -22.5 -193.5t-60 -153t-91 -115t-112.5 -82.5t-126.5 -53t-131 -29.5t-128.5 -8.5q-114 0 -212.5 2t-162.5 2q-32 0 -59 -2q-26 0 -36 -2l-11 -2l-2 6q20 139 20 410v501 q0 264 -20 410l4 6q34 -6 104 -6zM389 168q0 -36 14 -51.5t60.5 -23t148.5 -7.5q66 0 120.5 5.5t109.5 20.5t98 39t81 62t63 89.5t39 122t14 157.5q0 100 -17 190t-59 176.5t-106 149t-165 101t-229 38.5q-42 0 -70 -3t-53 -11t-37 -25t-12 -43v-987z" />
<glyph unicode="E" horiz-adv-x="1122" d="M389 410q0 -236 17 -295q122 0 266 6t228 12l83 6l4 -8q-4 -32 -4 -68q0 -5 4 -63l-4 -6q-49 6 -123 6h-559q-32 0 -59 -2q-26 0 -36 -2l-11 -2l-2 6q20 139 20 410v501q0 264 -20 410l4 6q34 -6 104 -6h539q74 0 123 6l4 -6q-4 -58 -4 -78q0 -21 4 -53l-4 -8 q-284 24 -557 24q-17 -60 -17 -295v-159q215 0 457 20l6 -6q-6 -27 -6 -66q0 -38 6 -65l-6 -6q-201 20 -457 20v-239z" />
<glyph unicode="F" horiz-adv-x="1032" d="M834 1321q80 0 129 6l4 -6q-4 -58 -4 -70q0 -29 4 -61l-4 -8q-284 24 -557 24q-17 -60 -17 -295v-159q215 0 457 20l6 -6q-6 -27 -6 -66q0 -38 6 -65l-6 -6q-201 20 -457 20v-239q0 -256 21 -410l-4 -6q-35 6 -105 6q-32 0 -59 -2q-26 0 -36 -2l-11 -2l-2 6 q20 139 20 410v501q0 264 -20 410l4 6q34 -6 104 -6h533z" />
<glyph unicode="G" horiz-adv-x="1486" d="M1118 240q-6 283 -20 389l4 6q34 -6 104 -6q32 0 58.5 1.5t37.5 3.5l11 1l2 -6q-21 -143 -21 -348v-13q0 -72 21 -98v-6q-219 -184 -545 -184q-150 0 -276.5 54.5t-210.5 147t-130.5 213.5t-46.5 254q0 131 40.5 245t110 196t161 141t194.5 88t209 29q70 0 144 -9.5 t129.5 -23t100.5 -27.5t69 -24l24 -9l4 -6q-34 -143 -41 -248l-20 -2q-69 118 -185 185t-253 67q-210 0 -343 -158t-133 -423q0 -84 16.5 -165.5t55 -160.5t94.5 -138t142.5 -95.5t191.5 -36.5q218 0 301 78v88z" />
<glyph unicode="H" horiz-adv-x="1486" d="M1098 911q0 256 -21 410l4 6q35 -6 105 -6q32 0 58 1q28 2 38 4l10 1l2 -6q-20 -136 -20 -410v-501q0 -264 20 -410l-4 -6q-34 6 -104 6q-32 0 -59 -2q-27 0 -37 -2l-11 -2l-2 6q21 146 21 410v247h-709v-247q0 -256 21 -410l-4 -6q-35 6 -105 6q-32 0 -59 -2 q-26 0 -36 -2l-11 -2l-2 6q20 139 20 410v501q0 264 -20 410l4 6q34 -6 104 -6q32 0 58.5 1.5t37.5 3.5l11 1l2 -6q-21 -143 -21 -410v-163h709v163z" />
<glyph unicode="I" horiz-adv-x="602" d="M213 911q0 264 -20 410l4 6q34 -6 104 -6q32 0 58.5 1.5t37.5 3.5l11 1l2 -6q-21 -143 -21 -410v-501q0 -256 21 -410l-4 -6q-35 6 -105 6q-32 0 -59 -2q-26 0 -36 -2l-11 -2l-2 6q20 139 20 410v501z" />
<glyph unicode="J" horiz-adv-x="675" d="M287 195v716q0 256 -21 410l4 6q35 -6 105 -6q32 0 58.5 1.5t36.5 3.5l11 1l2 -6q-20 -136 -20 -410v-671q0 -121 -10 -189t-36 -121t-83 -127q-120 -155 -324 -155q-63 0 -92 18l-2 6q25 42 57 168l23 2q40 -71 119 -71q34 0 60.5 14.5t44.5 37.5t31 59t19.5 70 t10.5 80.5t5 81.5t1 81z" />
<glyph unicode="K" horiz-adv-x="1329" d="M213 911q0 264 -20 410l4 6q34 -6 104 -6q32 0 58.5 1.5t37.5 3.5l11 1l2 -6q-21 -143 -21 -410v-206q27 3 45 18q246 216 584 604q27 -6 100 -6q72 0 105 6l-345 -316q-183 -175 -278 -286v-4l643 -727q-39 6 -127 6q-92 0 -127 -6q-445 549 -561 665q-14 12 -39 14 v-263q0 -256 21 -410l-4 -6q-35 6 -105 6q-32 0 -59 -2q-26 0 -36 -2l-11 -2l-2 6q20 139 20 410v501z" />
<glyph unicode="L" horiz-adv-x="1054" d="M391 410q0 -226 17 -285q122 0 266 11.5t228 22.5l83 11l4 -8q-4 -32 -4 -72q0 -32 4 -90l-4 -6q-49 6 -123 6h-559q-31 0 -57 -2q-27 0 -38 -2l-11 -2l-2 6q20 139 20 410v501q0 249 -22 410l4 6q36 -6 106 -6q32 0 58.5 1.5t37.5 3.5l11 1l2 -6q-21 -143 -21 -410v-501 z" />
<glyph unicode="M" horiz-adv-x="1875" d="M418 1356h53q63 -130 218 -492t265 -564l549 1056h45l49 -444q33 -303 58 -510.5t53 -407.5q-31 6 -102 6q-70 0 -101 -6q-53 641 -93 974q-255 -469 -474 -968h-39q-62 130 -198 458.5t-227 508.5q-27 -164 -80.5 -519t-69.5 -454q-23 6 -78 6t-78 -6q78 376 250 1362z " />
<glyph unicode="N" horiz-adv-x="1470" d="M203 1321l4 6q34 -6 104 -6l29 4l702 -909l40 -52q44 -59 54 -62q8 -2 10 15q3 14 3 48v546q0 256 -21 410l5 6q42 -6 92 -6q20 0 38 1q17 2 25 4l8 1l2 -6q-12 -160 -19 -335.5t-10 -290t-6.5 -329.5t-5.5 -323q-3 -63 -43 -63q-52 0 -88 49l-714 903l-32 41 q-12 14 -22 21t-14.5 5.5t-7.5 -15.5t-3.5 -32t-0.5 -53v-489q0 -264 20 -410l-4 -6q-52 6 -102 6q-20 0 -38 -2q-18 0 -26 -2l-8 -2l-2 6q25 248 34 636q5 165 5 312q0 202 -8 373z" />
<glyph unicode="O" horiz-adv-x="1517" d="M1411 674q0 -203 -81.5 -361t-231 -245.5t-342.5 -87.5q-177 0 -324 78.5t-236.5 229.5t-89.5 347q0 198 85 361.5t233.5 257.5t329.5 94q184 0 333 -83t236.5 -237.5t87.5 -353.5zM727 1257q-61 0 -118.5 -19.5t-111 -64t-93 -110.5t-63.5 -167t-24 -226q0 -143 40 -259 t108 -189t153 -112.5t179 -39.5q180 0 291.5 148.5t111.5 416.5q0 311 -125 466.5t-348 155.5z" />
<glyph unicode="P" horiz-adv-x="1144" d="M213 911q0 264 -20 410l4 6q34 -6 104 -6q31 0 146 7t141 7q109 0 194.5 -23t137 -59.5t85 -85.5t46 -96t12.5 -96q0 -55 -16 -109.5t-54 -109.5t-94 -97t-143.5 -68t-194.5 -26q-105 0 -172 21v-176q0 -256 21 -410l-4 -6q-35 6 -105 6q-32 0 -59 -2q-26 0 -36 -2 l-11 -2l-2 6q20 139 20 410v501zM389 1157v-483q41 -21 162 -21q157 0 235 71t78 241q0 71 -17.5 123t-44 82t-66.5 48t-78 23.5t-85 5.5q-105 0 -144.5 -21.5t-39.5 -68.5z" />
<glyph unicode="Q" horiz-adv-x="1517" d="M991 18q-108 -38 -235 -38q-177 0 -324 78.5t-236.5 229.5t-89.5 347q0 198 85 361.5t233.5 257.5t329.5 94q184 0 333 -83t236.5 -237.5t87.5 -353.5q0 -185 -69 -333t-194 -240l120 -71q109 -65 199.5 -109.5t191.5 -78.5v-12q-136 -72 -193 -117q-101 57 -216.5 143.5 t-258.5 161.5zM727 1257q-61 0 -118.5 -19.5t-111 -64t-93 -110.5t-63.5 -167t-24 -226q0 -143 40 -259t108 -189t153 -112.5t179 -39.5q180 0 291.5 148.5t111.5 416.5q0 311 -125 466.5t-348 155.5z" />
<glyph unicode="R" horiz-adv-x="1228" d="M389 586v-176q0 -256 21 -410l-4 -6q-35 6 -105 6q-32 0 -59 -2q-26 0 -36 -2l-11 -2l-2 6q20 139 20 410v501q0 264 -20 410l4 6q34 -6 104 -6q32 0 142.5 7t134.5 7q81 0 134 -4.5t120.5 -27.5t113.5 -66q109 -103 109 -256q0 -118 -57 -201.5t-148 -128.5 q-45 -23 -111 -37q51 -67 216.5 -308t222.5 -306l-4 -6q-41 6 -123 6q-84 0 -123 -6q-16 50 -75.5 159.5t-119.5 206.5l-37 60l-39 64q-13 22 -35.5 53t-42.5 55q-81 -6 -190 -6zM580 1247q-73 0 -108 -2t-56 -13.5t-24 -26t-3 -48.5v-489h119q63 0 114.5 8t99 29.5t80 56 t51.5 89.5t19 128q0 64 -18.5 112.5t-47.5 77.5t-69.5 47t-78 24.5t-78.5 6.5z" />
<glyph unicode="S" horiz-adv-x="1036" d="M496 70q97 0 168 64.5t71 174.5q0 63 -17.5 111t-53 82.5t-74 57t-94.5 46.5q-59 25 -103 47.5t-94 58t-81.5 73.5t-53 92t-21.5 116q0 107 65 193t161 127q83 35 176 35q67 0 125.5 -9.5t93.5 -23t60.5 -27.5t35.5 -24l10 -9l4 -6q-39 -133 -47 -205l-20 -2 q-42 96 -118.5 155.5t-160.5 59.5q-78 0 -125 -24q-40 -22 -67 -75t-27 -109q0 -49 17 -90t40 -67t61 -50t65 -35.5t67 -26.5q56 -21 102.5 -43.5t98 -59t86 -78t57.5 -100.5t23 -128q0 -175 -127 -283t-320 -108q-67 0 -130 9.5t-105.5 23t-75.5 27.5q-32 12 -47 22l-15 10 l-4 6q3 10 13 46l15 56q5 20 11 51.5t9 57.5l20 2q47 -91 143.5 -156t182.5 -65z" />
<glyph unicode="T" horiz-adv-x="1105" d="M465 911q0 239 -16 295q-122 0 -225.5 -7t-145.5 -14l-43 -7l-4 8q3 24 3 58t-3 77l4 6q49 -6 123 -6h790q74 0 123 6l4 -6q-3 -43 -3 -77t3 -58l-4 -8q-141 28 -414 28q-16 -56 -16 -295v-501q0 -256 21 -410l-5 -6q-34 6 -104 6q-32 0 -59 -2q-26 0 -37 -2l-11 -2l-2 6 q21 146 21 410v501z" />
<glyph unicode="U" horiz-adv-x="1417" d="M1116 911q0 264 -20 410l4 6q21 -6 71 -6q20 0 38 1.5t26 3.5l8 1l2 -6q-20 -136 -20 -410v-307q0 -115 -15 -206t-52.5 -171t-97.5 -133t-153.5 -83.5t-216.5 -30.5q-62 0 -121 11.5t-125.5 45.5t-116 87.5t-82 146t-32.5 212.5v428q0 264 -20 410l4 6q34 -6 104 -6 q32 0 58.5 1.5t37.5 3.5l11 1l2 -6q-21 -143 -21 -410v-360q0 -28 0.5 -45.5t3.5 -56t8.5 -66.5t17.5 -67.5t28.5 -68t43.5 -59t60 -50t79.5 -32t102.5 -12.5q72 0 130 14.5t97.5 38.5t68.5 61.5t45.5 76t26 89.5t12.5 94.5t3 98.5v344z" />
<glyph unicode="V" horiz-adv-x="1292" d="M664 271l50 115l55 128l51 120l56 134l50 120q33 81 50 127l40 109q23 63 38.5 111.5t26.5 91.5q25 -6 103 -6q46 0 71 6l-604 -1347h-57l-196 480l-226 548q-94 227 -139 319q35 -6 123 -6q77 0 112 6q123 -436 391 -1056h5z" />
<glyph unicode="W" horiz-adv-x="1947" d="M1319 270l56 130l63 144l58 137l62 149l54 133q33 85 52 138l40 115q20 63 33 111q25 -6 102 -6q47 0 72 6l-604 -1347h-58l-269 740l-329 -740h-57l-196 480l-226 548q-94 227 -139 319q35 -6 123 -6q67 0 102 6q19 -67 51.5 -169t130.5 -360.5t222 -545.5h4l260 612 q-150 399 -176 463q35 -6 122 -6q78 0 113 6q57 -253 330 -1057h4z" />
<glyph unicode="X" horiz-adv-x="1189" d="M1155 -6q-37 6 -119 6q-81 0 -118 -6q-38 73 -87 155l-77 125l-101 152l-91 137q-203 -310 -343 -569q-23 6 -86 6t-86 -6l453 663l-443 670q35 -6 115 -6t117 6q17 -35 42 -79t63 -102l66 -104l80 -122l78 -120q138 200 195.5 290.5t136.5 236.5q23 -6 86 -6t86 6 l-168 -232l-275 -388l83 -127l85 -131l72 -109l81 -122l72 -105z" />
<glyph unicode="Y" horiz-adv-x="1191" d="M685 585q5 -463 15 -591q-33 6 -106 6q-72 0 -105 -6q15 142 15 569l-240 395q-174 283 -231 369q35 -6 117 -6q81 0 116 6q50 -98 103 -192l141 -242l115 -196q229 362 358 630q25 -6 86 -6q59 0 86 6l-160 -243l-142 -218l-88 -140q-50 -82 -80 -141z" />
<glyph unicode="Z" horiz-adv-x="1277" d="M383 111q119 0 313.5 10.5t329.5 21.5l135 11l4 -7q-4 -32 -4 -67q0 -22 4 -80l-4 -6q-49 6 -145 6h-744l-178 -6l-6 8q13 17 31.5 44t21.5 32l756 1108q7 12 4.5 18t-10.5 6q-112 0 -225 -7t-256.5 -18.5t-245.5 -17.5l-4 7q4 32 4 67q0 22 -4 80l4 6q50 -6 125 -6h622 q49 0 141 4t117 8q13 0 13 -12q0 -25 -62 -111l-727 -1063q-10 -14 -10 -36z" />
<glyph unicode="[" horiz-adv-x="739" d="M225 -393v1833h441v-62q-74 -5 -120.5 -11t-82.5 -18.5t-53.5 -25.5t-28.5 -40.5t-13.5 -55.5t-2.5 -78v-1251q0 -50 2.5 -78t13 -55.5t28.5 -41t54 -26t82.5 -19t120.5 -12.5v-59h-441z" />
<glyph unicode="\" horiz-adv-x="598" d="M123 1430l471 -1528h-100l-471 1528h100z" />
<glyph unicode="]" horiz-adv-x="739" d="M514 1440v-1833h-440v61q74 5 120.5 11t82 18.5t53.5 26t29 41t13.5 55.5t2.5 78v1251q0 50 -2.5 78t-13.5 55.5t-28 40.5t-53.5 26t-82.5 19t-121 12v60h440z" />
<glyph unicode="^" horiz-adv-x="1060" d="M530 1214l-208 -505h-93l260 622h86l259 -622h-93z" />
<glyph unicode="_" horiz-adv-x="995" d="M987 -225v-90h-977v90h977z" />
<glyph unicode="`" horiz-adv-x="802" d="M365 1432l143 -258q12 -24 12 -50q0 -8 -9.5 -15t-21.5 -7q-15 0 -59 41l-233 223l4 23q63 47 133 47q15 0 31 -4z" />
<glyph unicode="a" horiz-adv-x="985" d="M791 156q0 -64 34 -64q14 0 27 6.5t31.5 21t19.5 15.5l6 -4l35 -43q-51 -61 -91 -84.5t-91 -23.5q-36 0 -62.5 13t-40 34t-20 38t-8.5 33h-4q-83 -70 -139 -94t-140 -24q-119 0 -187.5 55.5t-68.5 165.5q0 104 91 183t249 114l191 43q14 5 14 24q0 66 -14 113.5t-33 71.5 t-49 38t-51 16.5t-50 2.5q-67 0 -121 -47t-104 -127l-27 2l-34 137l6 8q37 31 67.5 52t96 44t137.5 23q51 0 95.5 -7.5t90.5 -30t78.5 -58t53 -96t20.5 -140.5q0 -7 -4 -192t-4 -219zM635 461l-174 -47q-114 -31 -158.5 -81t-44.5 -124q0 -50 43 -87.5t109 -37.5 q82 0 188 80q29 22 29 53z" />
<glyph unicode="b" horiz-adv-x="1032" d="M332 1024v-238q104 113 256 113q67 0 132.5 -31.5t118 -86t85 -135t32.5 -171.5q0 -117 -42 -214t-109 -156.5t-147 -92t-160 -32.5q-122 0 -209 75q-42 -37 -68 -80q-47 0 -63 11q10 50 10 159v842q0 271 -21 385l5 6q29 2 58.5 9t42 11t45.5 17.5t36 14.5q18 0 18 -21 q-20 -157 -20 -385zM332 147q69 -86 153 -86q141 0 214 108t73 290q0 147 -65 242.5t-160 95.5q-19 0 -48.5 -5.5t-80 -29t-86.5 -60.5v-555z" />
<glyph unicode="c" horiz-adv-x="890" d="M514 817q-107 0 -185.5 -99t-78.5 -261q0 -174 82 -274.5t205 -100.5q66 0 116 21.5t109 74.5h8l39 -43q-122 -155 -317 -155q-193 0 -305.5 126t-112.5 340q0 101 39 188t102 144t142 89t159 32q77 0 159.5 -16t129.5 -41l4 -6l-47 -168l-27 -2q-40 69 -100.5 110 t-120.5 41z" />
<glyph unicode="d" horiz-adv-x="1085" d="M739 131q-54 -69 -135.5 -110t-157.5 -41q-164 0 -264 122.5t-100 313.5q0 137 65.5 248t176.5 173t243 62q33 0 86 -13t86 -32v133q0 276 -20 385l4 6q29 2 58.5 9t42 11t45.5 17.5t36 14.5q19 0 19 -21q-21 -165 -21 -385v-631q0 -201 35 -393l-4 -6q-40 6 -91 6 q-17 0 -71 -6q-18 0 -18 6l-11 131h-4zM739 223v463q-39 63 -82.5 92t-111.5 29q-35 0 -68.5 -7t-75.5 -30t-72.5 -59.5t-51.5 -103t-21 -154.5q0 -92 22 -163t58.5 -112t78 -61.5t85.5 -20.5q139 0 239 127z" />
<glyph unicode="e" horiz-adv-x="921" d="M797 213l41 -51q-61 -83 -152.5 -132.5t-198.5 -49.5q-103 0 -187.5 35.5t-137.5 99.5q-92 109 -92 313q0 108 38 199.5t98.5 149.5t134.5 90t148 32q78 0 139.5 -24t100 -62.5t64 -90.5t35.5 -103.5t10 -106.5q0 -35 -37 -35h-551q0 -181 49 -260q38 -62 99.5 -89.5 t123.5 -27.5q171 0 275 113zM256 563h371q28 0 28 29q0 107 -51.5 166t-114.5 59q-17 0 -39 -5.5t-53 -23t-57.5 -44t-50 -74t-33.5 -107.5z" />
<glyph unicode="f" horiz-adv-x="643" d="M315 1272q55 75 137 115t179 40q63 0 92 -18l2 -6q-25 -42 -57 -168l-23 -2q-40 72 -119 72q-83 0 -126.5 -60t-43.5 -151q0 -14 5.5 -84.5t5.5 -112.5v-18h221q16 0 16 -13v-51q0 -12 -15.5 -19.5t-31.5 -7.5h-190v-380q0 -272 20 -410l-4 -6q-28 6 -98 6q-32 0 -57 -2 q-26 0 -35 -2l-9 -2l-2 6q21 136 21 410v380h-135q-11 0 -11 13v37q0 15 11 28t36 13h99v79q0 77 14.5 133t33.5 88.5t64 92.5z" />
<glyph unicode="g" horiz-adv-x="1021" d="M659 582q0 239 -196 239q-93 0 -142 -59.5t-49 -163.5q0 -121 44.5 -179.5t162.5 -58.5q101 0 140.5 55.5t39.5 166.5zM819 592q0 -137 -89.5 -225t-260.5 -88q-45 0 -93 8.5t-69 19.5q-61 -53 -61 -114q0 -59 32.5 -78t86.5 -19q1 0 59 4q86 11 170 11q210 0 289 -68 q86 -74 86 -203q0 -80 -48.5 -144t-128.5 -103t-176 -59.5t-198 -20.5q-61 0 -119 12t-112.5 37.5t-87.5 73t-33 110.5q0 28 13.5 66.5t33.5 68.5q24 18 54.5 37t70 40t49.5 27q-79 14 -117.5 62t-38.5 115q0 82 127 170q-145 84 -145 256q0 97 54 169.5t134 107t170 34.5 q75 0 136 -18q87 5 187.5 20.5t135.5 18.5l6 -7q-6 -27 -6 -53t6 -53l-6 -6q-141 15 -214 21q103 -69 103 -230zM207 -213q0 -49 31.5 -87.5t77 -58.5t87.5 -30t72 -10q141 0 242.5 51.5t101.5 140.5q0 101 -80 148q-38 23 -84 28.5t-133 5.5q-10 0 -79 -3t-103 -3 q-56 -30 -94.5 -81t-38.5 -101z" />
<glyph unicode="h" horiz-adv-x="1103" d="M772 369v215q0 117 -40.5 158.5t-127.5 41.5q-52 0 -121 -57.5t-135 -144.5v-213q0 -224 21 -369l-4 -6q-29 6 -99 6q-32 0 -57 -2q-25 0 -34 -2l-9 -2l-2 6q20 129 20 369v616q0 278 -20 387l4 6q29 2 58.5 9t42 11t45.5 17.5t36 14.5q19 0 19 -21q-21 -165 -21 -383 v-315l8 -6q85 106 163 150t167 44q114 0 182 -81.5t68 -235.5v-213q0 -231 20 -369l-4 -6q-28 6 -98 6q-32 0 -57 -2q-25 0 -34 -2l-9 -2l-2 6q20 129 20 369z" />
<glyph unicode="i" horiz-adv-x="532" d="M184 481q0 251 -20 361l4 6q23 2 44 5.5t42 10.5l32 10q11 3 35 13l29 12q19 0 19 -20q-21 -164 -21 -365v-145q0 -215 21 -369l-4 -6q-29 6 -99 6q-32 0 -57 -2q-25 0 -34 -2l-9 -2l-2 6q20 139 20 369v112zM164 1223q0 41 31.5 72.5t72.5 31.5t73 -31.5t32 -72.5 t-32 -73t-73 -32t-72.5 32t-31.5 73z" />
<glyph unicode="j" horiz-adv-x="557" d="M217 -88q0 8 -2 34.5t-4 89.5t-2 161v284q0 245 -21 361l5 6q23 2 44 5.5t42 10.5l32 10q11 3 35 13l29 12q18 0 18 -20q-20 -156 -20 -365v-313q0 -27 3.5 -95.5t3.5 -105.5q0 -69 -10.5 -122.5t-32 -91t-35.5 -54.5t-39 -42l-9 -9q-30 -30 -47 -45t-49 -32.5t-74 -29.5 q-52 -15 -77 -15q-5 0 -9 1l-4 5q-1 25 -19 76.5t-20 77.5l18 9q4 -4 15 -14t16 -14t15 -10.5t18 -8t19.5 -0.5t23.5 6q59 24 98 86t39 139zM184 1223q0 41 32 72.5t73 31.5t72.5 -31.5t31.5 -72.5t-31.5 -73t-72.5 -32t-73 32t-32 73z" />
<glyph unicode="k" horiz-adv-x="999" d="M184 410v577q0 276 -20 385l4 6q29 2 58.5 9t42 11t45.5 17.5t36 14.5q19 0 19 -21q-21 -165 -21 -385v-539q27 1 66 31q59 45 154 154.5t163 208.5q168 0 207 6l4 -6q-59 -50 -132 -125l-153 -162q-80 -87 -98 -105q237 -287 426 -487l-4 -6q-27 6 -123 6q-88 0 -135 -6 l-90 130l-75 108q-25 36 -65 85.5t-87 98.5q-20 18 -58 18v-24q0 -265 21 -410l-4 -6q-29 6 -99 6q-32 0 -57 -2q-25 0 -34 -2l-9 -2l-2 6q20 129 20 410z" />
<glyph unicode="l" horiz-adv-x="516" d="M184 410v577q0 276 -20 385l4 6q29 2 58.5 9t42 11t45.5 17.5t36 14.5q19 0 19 -21q-21 -165 -21 -385v-614q0 -265 21 -410l-4 -6q-29 6 -99 6q-32 0 -57 -2q-25 0 -34 -2l-9 -2l-2 6q20 129 20 410z" />
<glyph unicode="m" horiz-adv-x="1585" d="M1268 369v229q0 101 -39.5 143.5t-124.5 42.5q-62 0 -108 -25.5t-117 -105.5q2 -25 2 -78v-206q0 -231 20 -369l-4 -6q-28 6 -98 6q-32 0 -57 -2q-26 0 -35 -2l-9 -2l-2 6q21 136 21 369v225q0 97 -39.5 143.5t-102.5 46.5q-26 0 -52.5 -12t-62.5 -43t-58 -53l-70 -72 v-235q0 -231 20 -369l-4 -6q-28 6 -98 6q-32 0 -57 -2q-25 0 -34 -2l-9 -2l-3 6q21 136 21 369v112q0 247 -21 361l5 6q29 2 57 8.5t41.5 11t41.5 16.5t36 15q18 0 18 -20l-19 -168l9 -6q45 48 73.5 75t69.5 58.5t82.5 46t87.5 14.5q85 0 145.5 -46t71.5 -116 q86 90 156.5 126t155.5 36q64 0 111 -17t74 -44.5t43 -71.5t21 -88.5t5 -104.5v-204q0 -231 20 -369l-4 -6q-28 6 -98 6q-32 0 -57 -2q-25 0 -35 -2l-9 -2l-2 6q21 136 21 369z" />
<glyph unicode="n" horiz-adv-x="1071" d="M918 369q0 -239 20 -369l-4 -6q-28 6 -98 6q-32 0 -57 -2q-25 0 -35 -2l-9 -2l-2 6q21 130 21 369v200q0 122 -35 168.5t-119 46.5q-63 0 -122 -46.5t-146 -149.5v-219q0 -231 20 -369l-4 -6q-28 6 -98 6q-32 0 -57 -2q-25 0 -34 -2l-9 -2l-3 6q21 136 21 369v112 q0 247 -21 361l5 6q29 2 57 8.5t41.5 11t41.5 16.5t36 15q18 0 18 -20l-19 -168l9 -6q94 110 168.5 152t157.5 42q135 0 195.5 -80t60.5 -244v-206z" />
<glyph unicode="o" horiz-adv-x="1011" d="M500 817q-69 0 -118.5 -30.5t-75.5 -84.5t-37 -114.5t-11 -132.5q0 -52 6.5 -102t25 -104.5t47 -95t77 -66.5t110.5 -26q102 0 166 96t64 244q0 81 -5.5 139.5t-21.5 113.5t-43.5 89t-73.5 54t-110 20zM78 420q0 219 118 349t318 130q203 0 311.5 -123.5t108.5 -337.5 q0 -205 -114.5 -331.5t-313.5 -126.5q-198 0 -313 124.5t-115 315.5z" />
<glyph unicode="p" horiz-adv-x="1071" d="M168 -66v547q0 247 -21 361l5 6q29 2 57.5 8.5t41.5 11t43 16.5l36 15q18 0 18 -20l-19 -142h5q106 162 287 162q110 0 196 -64.5t129 -162.5t43 -209q0 -216 -127 -349.5t-327 -133.5q-121 0 -203 45v-91q0 -271 20 -409l-4 -6q-28 6 -98 6q-32 0 -57 -1.5t-34 -3.5 l-9 -1l-3 6q21 136 21 409zM332 616v-458q75 -88 190 -88q63 0 112 22.5t78.5 57.5t48 84.5t25.5 98.5t7 103q0 168 -65 264.5t-163 96.5q-57 0 -129 -52t-104 -129z" />
<glyph unicode="q" horiz-adv-x="1069" d="M737 -66v113q-27 -24 -97.5 -45.5t-150.5 -21.5q-85 0 -155.5 30t-117 78t-78.5 109.5t-46 123.5t-14 121q0 200 126.5 328.5t315.5 128.5q182 0 277 -82l30 49q22 39 47 39q27 0 27 -51v-920q0 -264 21 -409l-4 -6q-29 6 -99 6q-32 0 -57 -1.5t-34 -3.5l-9 -1l-2 6 q20 129 20 409zM737 668q-41 69 -101 109t-124 40q-119 0 -178.5 -93.5t-59.5 -258.5q0 -89 16.5 -157.5t42 -108.5t62 -65.5t71 -34.5t73.5 -9q140 0 198 45v533z" />
<glyph unicode="r" horiz-adv-x="727" d="M346 678q71 123 126.5 172t135.5 49q14 0 23.5 -1t13.5 -2t16.5 -5t20.5 -6l8 -8l-41 -152l-16 -4q-31 29 -107 29q-30 0 -62.5 -18.5t-55.5 -51.5q-66 -93 -66 -205v-106q0 -223 20 -369l-4 -6q-28 6 -98 6q-32 0 -57 -2q-25 0 -34 -2l-9 -2l-2 6q20 139 20 369v112 q0 191 -31 361l5 6q30 2 56.5 8t41 11.5t39 16.5t35.5 15q18 0 18 -20l-4 -195z" />
<glyph unicode="s" horiz-adv-x="811" d="M102 203l31 2q35 -66 101.5 -105t140.5 -39q84 0 136 45t52 125q0 16 -2.5 30t-10.5 27l-14 20q-5 9 -21 19t-23 15.5t-30 14.5t-31 12.5t-37 14t-38 13.5q-54 20 -80.5 31t-64.5 35.5t-59 52.5q-41 51 -41 133q0 81 46.5 139.5t115 84.5t147.5 26q73 0 150 -19.5 t126 -45.5l4 -7l-41 -143l-28 -2q-26 50 -86 92.5t-133 42.5q-69 0 -112.5 -34t-43.5 -95q0 -28 12.5 -52t28 -38.5t45 -29t46 -20.5t49.5 -17l9 -3q54 -18 86.5 -31t74 -36t64 -48.5t38.5 -64.5t16 -88q0 -37 -8.5 -72.5t-32.5 -74.5t-61.5 -67.5t-101 -47t-144.5 -18.5 q-152 0 -309 55z" />
<glyph unicode="t" horiz-adv-x="696" d="M195 879q0 155 -15 247l4 7q38 3 63.5 9.5t60.5 22.5t42 19q19 0 19 -21q-11 -145 -11 -284h240q16 0 16 -13v-51q0 -12 -16 -19.5t-33 -7.5h-207v-292q0 -69 -3 -159.5t-3 -113.5q0 -68 14.5 -100.5t53.5 -32.5q97 0 161 36l25 -50q-102 -96 -258 -96q-71 0 -115.5 44.5 t-44.5 116.5q0 23 3.5 143t3.5 189v315h-129q-9 0 -9 9v73q0 9 6 9h132z" />
<glyph unicode="u" horiz-adv-x="1101" d="M745 188q-59 -90 -135 -149t-164 -59q-142 0 -212 80.5t-70 197.5v252q0 232 -21 369l4 6q29 -6 99 -6q32 0 57 1.5t34 3.5l9 1l2 -6q-20 -121 -20 -369v-203q0 -52 10 -91.5t25.5 -62t36.5 -36.5t39.5 -18.5t39.5 -4.5q67 0 149 73t122 142v201q0 232 -21 369l4 6 q28 -6 98 -6q32 0 57 1q24 2 34 4l10 1l2 -6q-21 -127 -21 -369v-117q0 -201 35 -393l-4 -6q-40 6 -91 6q-17 0 -71 -6q-18 0 -18 6l-10 182z" />
<glyph unicode="v" horiz-adv-x="966" d="M424 -6q-177 461 -373 891q33 -6 109 -6q75 0 102 6q132 -418 246 -682q41 89 81.5 198t94.5 269l74 215q18 -6 69 -6q60 0 78 6l-97 -216l-105 -238l-87 -206q-51 -126 -88 -231q-18 6 -49 6q-35 0 -55 -6z" />
<glyph unicode="w" horiz-adv-x="1529" d="M430 -8q-145 376 -379 891q33 -6 109 -6q75 0 102 6q132 -420 256 -701h12q85 182 184 446l-89 257q33 -6 108 -6q76 0 103 6q80 -372 206 -700h16q162 377 263 700q18 -6 70 -6q70 0 88 6q-248 -544 -392 -891q-18 6 -75 6q-46 0 -66 -6l-181 492q-106 -246 -194 -494 q-18 6 -73 6q-48 0 -68 -6z" />
<glyph unicode="x" horiz-adv-x="931" d="M378 424l-329 461q33 -6 119 -6q76 0 111 6l61 -105l76 -126q33 -54 70 -104q50 66 130 188l99 147q23 -6 76 -6q69 0 92 6l-336 -413l99 -148l126 -182q53 -76 109 -148q-31 6 -105 6q-86 0 -117 -6l-93 152q-76 125 -124 192q-46 -64 -118.5 -181.5t-102.5 -162.5 q-20 6 -90 6q-54 0 -74 -6z" />
<glyph unicode="y" horiz-adv-x="1036" d="M57 885q29 -6 107 -6q73 0 100 6l24 -71l24 -68l26 -72l26 -67l29 -73l27 -67q6 -17 30 -74l28 -68l30 -75l30 -71h4q133 283 269 706q20 -6 80 -6q68 0 88 6q-85 -171 -314 -687.5t-280 -682.5q-33 10 -100 10q-39 0 -72 -10q145 240 242 465q-25 68 -85 205l-108 245 l-122 271q-74 163 -83 184z" />
<glyph unicode="z" horiz-adv-x="851" d="M278 102q111 0 239 6t201 12l73 5l4 -6q-4 -32 -4 -64q0 -1 4 -55l-4 -6q-47 6 -115 6h-463l-166 -6l-6 9q2 3 45 63l481 710q-104 -1 -221 -6q-118 -6 -182 -11l-64 -5l-4 6q4 32 4 63q0 2 -4 56l4 6q46 -6 115 -6h418q26 0 65 3t68 6t32 3q11 0 11 -12q-15 -17 -61 -86 z" />
<glyph unicode="{" horiz-adv-x="569" d="M367 1151v-360q0 -138 -26.5 -195t-102.5 -90q83 -36 106 -101t23 -210v-326q0 -113 38.5 -185.5t104.5 -72.5v-45q-110 2 -170.5 29.5t-91.5 100t-31 204.5v348q0 100 -34 161t-113 80v31q147 42 147 238v377q0 118 31 185.5t93 96t169 31.5v-45q-33 -10 -56 -23.5 t-44.5 -40.5t-32 -74t-10.5 -114z" />
<glyph unicode="|" horiz-adv-x="430" d="M266 -475h-100v1905h100v-1905z" />
<glyph unicode="}" horiz-adv-x="569" d="M203 -139v360q0 138 26.5 195t102.5 90q-83 36 -106 101t-23 210v326q0 113 -39 185.5t-105 72.5v45q110 -2 170.5 -29.5t91.5 -100t31 -204.5v-348q0 -206 148 -242v-30q-148 -42 -148 -238v-377q0 -118 -31 -185.5t-93 -96t-169 -31.5v45q33 10 56 23.5t44.5 40.5 t32.5 74t11 114z" />
<glyph unicode="~" horiz-adv-x="919" d="M53 428q21 104 96 183t166 79q48 0 152 -65l53 -33q18 -10 46.5 -22.5t49.5 -12.5q32 0 68 12t75 44.5t60 80.5l35 -12q-22 -77 -57 -130t-72.5 -76t-65 -31.5t-51.5 -8.5q-58 0 -153 68q-95 65 -152 65t-123 -41t-100 -106z" />
<glyph unicode="&#xa1;" horiz-adv-x="466" d="M350 788v-8q-14 -41 -39 -66.5t-71 -43.5h-9q-45 17 -70.5 42t-39.5 68v8q16 49 41 74.5t69 36.5h9q48 -11 72.5 -35t37.5 -76zM236 -469q-46 0 -80.5 39t-34.5 111q0 76 23 206t30 189q11 97 18.5 183.5t10.5 134t4 55.5q3 40 29 40q24 0 28 -26q1 -13 5.5 -78.5 t11.5 -152t14 -156.5q7 -72 29 -194t22 -201q0 -75 -34.5 -112.5t-75.5 -37.5z" />
<glyph unicode="&#xa2;" horiz-adv-x="1024" d="M523 317v718q-84 -32 -138.5 -125.5t-54.5 -228.5q0 -140 52.5 -234t140.5 -130zM523 1344h79v-211q78 0 162 -17t133 -42l4 -6l-48 -172l-27 -2q-41 70 -102.5 112t-121.5 43v-751h21q67 0 118.5 22t111.5 76h8l40 -44q-115 -147 -299 -158v-222h-79v224 q-174 18 -273.5 144.5t-99.5 329.5q0 91 31 171t83.5 137t119 95t139.5 52v219z" />
<glyph unicode="&#xa3;" horiz-adv-x="1024" d="M484 902v-156h274q16 0 16 -13v-49q0 -13 -16.5 -20.5t-36.5 -7.5h-237q-2 -306 -161 -456h12q70 0 122 -10.5t82 -26t55.5 -30.5t57 -25.5t71.5 -10.5q62 0 125.5 21.5t102.5 74.5l40 -23q-41 -88 -121.5 -140.5t-185.5 -52.5q-54 0 -97 13.5t-72 32.5l-58 38 q-29 19 -71 32.5t-95 13.5q-93 0 -93 -54q0 -37 -25 -56.5t-64 -19.5q-31 0 -50 16.5t-19 43.5q0 29 29 54.5t82 54.5q90 66 123 184t33 289v37h-139q-9 0 -12 2.5t-3 11.5v30q0 17 13.5 31.5t40.5 14.5h100v45q0 137 31.5 215t117.5 164q156 156 388 156q59 0 93 -19l3 -7 q-31 -53 -59 -167l-23 -3q-41 72 -118 72q-92 0 -174 -92.5t-82 -207.5z" />
<glyph unicode="&#xa4;" horiz-adv-x="1024" d="M509 263q-140 0 -251 84l-100 -124l-95 93l125 100q-90 108 -90 254q0 151 90 256l-121 95l86 93l108 -119q113 82 248 82q144 0 254 -86l107 128l91 -96l-128 -102q88 -106 88 -251q0 -138 -86 -249l121 -102l-84 -89l-107 119q-114 -86 -256 -86zM237 672 q0 -131 75.5 -221.5t196.5 -90.5q119 0 194.5 91t75.5 219q0 129 -78 219t-187 90q-120 0 -198.5 -90t-78.5 -217z" />
<glyph unicode="&#xa5;" horiz-adv-x="1024" d="M109 532q-8 0 -9.5 2.5t-1.5 12.5v32q0 18 12 32t39 14h233l-186 357q-146 285 -187 355q35 -7 119 -7q81 0 116 7q145 -379 292 -635q34 53 64 110q30 56 62 128l52 117l58 141l56 139q23 -7 86 -7q60 0 86 7q-172 -302 -385 -712h299q16 0 16 -13v-49q0 -15 -16.5 -23 t-36.5 -8h-280q1 -24 1.5 -72.5t0.5 -73.5h315q16 0 16 -14v-46q0 -15 -16.5 -23t-36.5 -8h-277q5 -199 12 -302q-33 7 -107 7q-72 0 -105 -7q8 79 12 302h-303q-8 0 -9.5 2t-1.5 12v31q0 18 12 32t39 14h264q0 25 0.5 74t0.5 72h-305z" />
<glyph unicode="&#xa6;" horiz-adv-x="419" d="M264 330v-742h-98v742h98zM264 1380v-741h-98v741h98z" />
<glyph unicode="&#xa7;" horiz-adv-x="989" d="M256 834q-90 96 -90 223q0 51 24 102.5t66 93.5t106 68.5t138 26.5q40 0 80 -10.5t64 -20t58 -33.5q36 -25 44 -32l38 -33l7 -11l-35 -149l-29 -4q-26 45 -48.5 77t-53.5 65.5t-67.5 51t-76.5 17.5q-73 0 -123.5 -47.5t-50.5 -120.5q0 -135 164 -203q60 -24 108 -48 t109 -65.5t101.5 -86.5t69 -109.5t28.5 -136.5q0 -88 -42.5 -162.5t-111.5 -125.5q90 -96 90 -222q0 -51 -24 -102.5t-66 -93.5t-106 -68.5t-138 -26.5q-40 0 -80 10.5t-64 20t-58.5 34t-42.5 31.5l-39 33l-6 10l34 150l29 4q26 -45 48.5 -77t53.5 -65.5t67.5 -51 t76.5 -17.5q73 0 123.5 47.5t50.5 120.5q0 134 -164 202q-60 24 -108.5 48.5t-109 65.5t-101 86.5t-69 110t-28.5 136.5q0 88 42.5 162t111.5 125zM302 793q-83 -83 -83 -168q0 -28 7 -55t17.5 -49.5t29.5 -45t35 -39.5t43.5 -37t47 -32.5t51.5 -30.5l50 -28l52 -26l48 -24 q45 -23 87 -55q83 83 83 168q0 28 -7 55t-17.5 49t-29 45t-35.5 40q-17 16 -44 36l-47 33q-20 13 -51 31l-51 26l-51 26l-48 25q-41 21 -87 56z" />
<glyph unicode="&#xa8;" horiz-adv-x="776" d="M449 1176q0 40 28 69t68 29t68 -29t28 -69t-28 -68.5t-68 -28.5t-68 28.5t-28 68.5zM102 1176q0 40 28.5 69t68.5 29t68 -29t28 -69t-28 -68.5t-68 -28.5t-68.5 28.5t-28.5 68.5z" />
<glyph unicode="&#xa9;" horiz-adv-x="1296" d="M649 1141q-141 0 -260 -68.5t-187.5 -187t-68.5 -258.5q0 -139 68.5 -257.5t187.5 -187.5t260 -69q139 0 257.5 68.5t187.5 187t69 258.5t-68.5 258.5t-187 187t-258.5 68.5zM649 47q-158 0 -291.5 78.5t-210.5 212t-77 289.5q0 117 46 224t123.5 184.5t184.5 123 t225 45.5q157 0 290 -77t210.5 -210t77.5 -290t-77.5 -290.5t-210.5 -211.5t-290 -78zM899 442q-35 -53 -99 -92t-143 -39q-134 0 -226.5 90.5t-92.5 214.5q0 130 95 225t229 95q82 0 132.5 -15.5t69.5 -15.5l29 -160l-41 -8q-29 77 -72.5 114.5t-126.5 37.5 q-34 0 -64.5 -11.5t-59.5 -38.5t-46.5 -78.5t-17.5 -123.5q0 -117 55 -191.5t156 -74.5q113 0 184 102z" />
<glyph unicode="&#xaa;" horiz-adv-x="608" d="M487 842q0 -39 21 -39q6 0 13.5 3t13 6.5t13 9t9.5 7.5l4 -2l21 -26q-30 -38 -56 -53t-57 -15q-41 0 -59.5 24.5t-20.5 49.5h-8q-53 -45 -85 -59.5t-83 -14.5q-74 0 -117 34.5t-43 102.5q0 64 56.5 112.5t154.5 72.5l115 26q8 4 8 15q0 50 -11 83t-31.5 46.5t-36.5 17.5 t-38 4q-42 0 -74.5 -30t-64.5 -82h-16l-23 90l4 4q19 16 31 24.5t37.5 23t55 21.5t63.5 7q209 0 209 -207q0 -4 -2.5 -119.5t-2.5 -136.5zM387 1032l-104 -31q-69 -21 -95 -51t-26 -76q0 -31 24.5 -53t65.5 -22q49 0 113 49q16 13 16 33z" />
<glyph unicode="&#xab;" horiz-adv-x="1097" d="M590 879v-105q-141 -206 -295 -334q150 -116 295 -334v-104q-249 286 -451 399v78q213 150 451 400zM958 879v-105q-137 -206 -292 -334q147 -111 292 -334v-104q-246 284 -446 399v78q213 152 446 400z" />
<glyph unicode="&#xac;" horiz-adv-x="1146" d="M989 272v459h-940v90h1051v-549h-111z" />
<glyph unicode="&#xad;" horiz-adv-x="681" d="M561 483h-463q-13 0 -21.5 10.5t-8.5 24.5q0 25 16.5 50.5t34.5 25.5h469q28 0 28 -37q0 -19 -18 -46.5t-37 -27.5z" />
<glyph unicode="&#xae;" horiz-adv-x="1296" d="M649 1141q-141 0 -260 -68.5t-187.5 -187t-68.5 -258.5q0 -139 68.5 -257.5t187.5 -187.5t260 -69q139 0 257.5 68.5t187.5 187t69 258.5t-68.5 258.5t-187 187t-258.5 68.5zM649 47q-158 0 -291.5 78.5t-210.5 212t-77 289.5q0 117 46 224t123.5 184.5t184.5 123 t225 45.5q157 0 290 -77t210.5 -210t77.5 -290t-77.5 -290.5t-210.5 -211.5t-290 -78zM770 758q0 104 -102 104q-82 0 -82 -51v-172h65q55 0 87 24t32 95zM883 758q0 -57 -34 -96.5t-85 -55.5l98 -168q32 -53 88 -43l8 -35q-35 -14 -73 -14q-82 0 -125 72l-98 164 q-11 8 -76 8v-148q0 -40 24 -43l29 -4q22 -6 23 -12v-33l-5 -4q-83 4 -120 4l-125 -4l-4 4v35q0 7 16 9q3 1 4 1l35 4q26 3 26 43v369q0 25 -13.5 38t-33.5 13h-22q-17 0 -17 10v35l5 4h278q55 0 95.5 -15t61.5 -39t30.5 -49t9.5 -50z" />
<glyph unicode="&#xaf;" horiz-adv-x="813" d="M645 1083h-500q-24 0 -24 31q0 20 13.5 40t31.5 20h500q14 0 21 -9t7 -20q0 -20 -15 -41t-34 -21z" />
<glyph unicode="&#xb0;" horiz-adv-x="546" d="M70 1075q0 86 59.5 145.5t144.5 59.5t144 -59.5t59 -145.5q0 -85 -59 -144t-144 -59t-144.5 59t-59.5 144zM410 1073q0 57 -36 103.5t-100 46.5q-63 0 -100 -45t-37 -105q0 -57 37.5 -100t99.5 -43q60 0 98 43.5t38 99.5z" />
<glyph unicode="&#xb1;" horiz-adv-x="1079" d="M944 139v-100h-809v100h809zM592 700h352v-100h-352v-356h-105v356h-352v100h352v357h105v-357z" />
<glyph unicode="&#xb2;" horiz-adv-x="628" d="M365 815q68 0 178 8q-4 -24 -4 -41t4 -41q-72 4 -166 4h-285q0 67 50.5 130.5t136.5 130.5q77 62 107 107.5t30 123.5q0 64 -35.5 93.5t-73.5 29.5q-60 0 -85 -17.5t-25 -42.5q0 -9 5 -25t5 -24q0 -22 -19.5 -35.5t-37.5 -13.5q-20 0 -37 14.5t-17 34.5q0 52 55.5 105 t163.5 53q41 0 78 -8.5t70.5 -27t53.5 -53t20 -81.5q0 -66 -44.5 -121.5t-138.5 -122.5q-135 -96 -135 -180h146z" />
<glyph unicode="&#xb3;" horiz-adv-x="628" d="M385 1278q0 43 -24 62.5t-58 19.5q-23 0 -47.5 -7t-44.5 -24t-21 -41q-1 -17 -4 -27.5t-15 -21t-34 -10.5q-18 0 -29.5 8.5t-14.5 16t-3 12.5q0 15 13 37.5t38.5 47t75 41.5t111.5 17q80 0 127 -32t47 -89q0 -80 -105 -139q61 -5 112.5 -52t51.5 -128q0 -104 -86.5 -170 t-212.5 -66q-62 0 -122 23t-60 53q0 15 16 28t33 13q28 0 53 -29q30 -37 103 -37q18 0 41 7t50.5 23.5t45.5 52.5t18 85q0 33 -12 58t-29.5 38.5t-41 22t-41 10.5t-35.5 2q-9 0 -41 -4l-4 49q69 9 109 48.5t40 101.5z" />
<glyph unicode="&#xb4;" horiz-adv-x="698" d="M358 1440q12 4 29 4q64 0 113 -47l6 -23l-236 -223q-39 -39 -61 -39q-11 0 -20 8.5t-9 18.5q0 4 0.5 8t1 6.5t2 6.5t2 6t3.5 7t4 7l5 8q4 6 6 8z" />
<glyph unicode="&#xb5;" horiz-adv-x="995" d="M207 -479q-32 0 -71.5 38.5t-39.5 94.5q0 49 16.5 155.5t16.5 174.5q0 28 -9 126t-9 164v385q0 25 -5.5 80t-10.5 97l-5 43q27 0 90 9t78 11q6 -131 6 -197v-401q0 -229 142 -229q80 0 151 38.5t107 92.5v676q29 0 85.5 9.5t67.5 10.5v-645q0 -123 11 -150q11 -28 42 -28 q19 0 35.5 21t34.5 65l49 -23q-32 -84 -71.5 -121.5t-114.5 -37.5q-58 0 -98.5 41.5t-40.5 101.5q-130 -143 -297 -143q-34 0 -67 13.5t-50 33.5q-9 0 -17 -6t-8 -13q0 -72 33 -199t33 -165q0 -60 -23.5 -91.5t-60.5 -31.5z" />
<glyph unicode="&#xb6;" horiz-adv-x="1232" d="M836 1321l202 6l2 -6q-20 -136 -20 -410v-977q0 -263 20 -409l-4 -6q-132 6 -202 6l-201 -6l-4 6q20 146 20 409v650q-27 -6 -65 -6q-227 0 -347 102t-120 305q0 63 23.5 122t69 108.5t122.5 79.5t174 30q89 0 202 -2t128 -2zM752 1176v-1506q0 -39 22.5 -58.5 t59.5 -19.5q84 0 84 78v1506q0 44 -22 60.5t-62 16.5q-82 0 -82 -77z" />
<glyph unicode="&#xb7;" horiz-adv-x="512" d="M256 418q-49 0 -80 32.5t-31 77.5q0 43 33.5 77t77.5 34q42 0 76.5 -33t34.5 -78t-32 -77.5t-79 -32.5z" />
<glyph unicode="&#xb8;" horiz-adv-x="1107" d="M618 -197q-52 0 -92 -12l-12 12l82 197h70l-52 -137q24 6 54 6q63 0 104 -35t41 -92q0 -66 -62.5 -109t-156.5 -43q-74 0 -152 35q0 32 21 53q77 -28 119 -28q47 0 75.5 21.5t28.5 60.5q0 71 -68 71z" />
<glyph unicode="&#xb9;" horiz-adv-x="628" d="M301 1008v174q0 54 -3.5 70t-21.5 16q-19 0 -68 -15t-73 -26l-20 59l35 13l38 13l34 14q26 8 38 14l34 15q22 9 37 17l33 17l35 20h13q6 0 6 -12q-6 -70 -6 -131v-258q0 -165 14 -263l-2 -4q-19 4 -70 4l-69 -4l-2 4q18 100 18 263z" />
<glyph unicode="&#xba;" horiz-adv-x="714" d="M350 1108q-73 0 -112 -60t-39 -149q0 -85 45.5 -153t130.5 -68q23 0 46 8t46.5 26.5t38 56t14.5 89.5q0 120 -46 185t-124 65zM80 879q0 131 75 205.5t207 74.5q73 0 127.5 -22t86 -61t46.5 -85t15 -100q0 -113 -74 -191.5t-211 -78.5q-115 0 -193.5 74t-78.5 184z" />
<glyph unicode="&#xbb;" horiz-adv-x="1097" d="M467 2v104q141 206 295 334q-150 116 -295 334v105q251 -288 451 -400v-78q-216 -152 -451 -399zM98 2v104q136 204 293 334q-149 113 -293 334v105q246 -285 447 -400v-78q-219 -156 -447 -399z" />
<glyph unicode="&#xbc;" horiz-adv-x="1351" d="M295 907v174q0 55 -3.5 70.5t-21.5 15.5q-19 0 -68 -15t-73 -26l-20 60l35 13l38 13l34 14q26 8 38 14l34 15q22 9 37 17l33 17l35 20h13q6 0 6 -13q-6 -70 -6 -131v-258q0 -164 14 -262l-2 -4q-19 4 -70 4l-69 -4l-3 4q19 106 19 262zM1065 -166q17 87 18 203h-295 l-8 24l316 447l63 -21q-51 -78 -149.5 -215.5t-116.5 -165.5h190v158q0 12 15 35q33 43 53 43q43 0 43 -20v-216h100l-12 -69h-87q2 -126 13 -203l-2 -4q-18 4 -69 4l-70 -4zM1141 1231l84 -17l-938 -1341l-86 16z" />
<glyph unicode="&#xbd;" horiz-adv-x="1351" d="M299 907v174q0 55 -3.5 70.5t-21.5 15.5q-19 0 -68 -15t-73 -26l-20 60l35 13l38 13l34 14q26 8 38 14l34 15q22 9 37 17l33 17l35 20h13q6 0 6 -13q-6 -70 -6 -131v-258q0 -164 14 -262l-2 -4q-19 4 -70 4l-69 -4l-2 4q18 100 18 262zM1098 -92q68 0 178 8 q-4 -24 -4 -41t4 -41q-72 4 -166 4h-285q0 67 50 130t137 130q77 62 107 108t30 124q0 64 -35.5 93.5t-73.5 29.5q-60 0 -85 -17.5t-25 -42.5q0 -9 5 -25t5 -24q0 -22 -19.5 -35.5t-37.5 -13.5q-20 0 -37 14.5t-17 34.5q0 52 56 105t164 53q57 0 103.5 -14t82 -54t35.5 -102 q0 -66 -44.5 -121.5t-138.5 -122.5q-135 -96 -135 -180h146zM1090 1231l86 -17l-940 -1341l-84 16z" />
<glyph unicode="&#xbe;" horiz-adv-x="1351" d="M1073 -162q18 92 19 203h-295l-9 25l316 446l63 -20q-51 -78 -149.5 -215.5t-116.5 -165.5h191v157q0 14 14 35q33 43 53 43q43 0 43 -20v-215h101l-13 -70h-87q2 -118 14 -203l-3 -4q-18 4 -69 4l-70 -4zM381 1174q0 43 -24 62t-58 19q-38 0 -75 -18.5t-38 -52.5 q-1 -17 -4 -27.5t-15 -21.5t-34 -11q-18 0 -29.5 8.5t-14.5 16t-3 12.5q0 15 13 37.5t38.5 47.5t75 42t111.5 17q80 0 127 -32t47 -89q0 -81 -105 -140q61 -5 112.5 -52t51.5 -128q0 -104 -86.5 -169.5t-212.5 -65.5q-62 0 -122 23t-60 53q0 15 16 27.5t33 12.5q29 0 53 -28 q30 -37 103 -37q18 0 41 7t50.5 23.5t45.5 52.5t18 85q0 33 -12.5 58t-29.5 38.5t-40.5 22t-41.5 10.5t-36 2q-8 0 -40 -4l-5 49q69 9 109.5 48.5t40.5 101.5zM1151 1231l84 -17l-938 -1341l-86 16z" />
<glyph unicode="&#xbf;" horiz-adv-x="829" d="M578 788v-8q-14 -41 -39.5 -66t-71.5 -44h-8q-45 17 -71 42t-40 68v8q16 49 41.5 74.5t69.5 36.5h8q48 -11 73 -35.5t38 -75.5zM432 -389q141 0 252 192l27 -2l32 -137l-6 -8q-55 -46 -140.5 -86.5t-182.5 -40.5q-156 0 -247 84.5t-91 224.5q0 47 14.5 90t33 72.5 t52.5 63.5q34 32 56 50l61 46q87 65 106 102q37 70 37 150v90q0 20 27 20q26 0 26 -20v-94q0 -43 -3.5 -73.5t-15.5 -76.5t-41.5 -91.5t-76.5 -88.5q-65 -61 -94 -112t-29 -120q0 -100 58 -167.5t145 -67.5z" />
<glyph unicode="&#xc0;" horiz-adv-x="1308" d="M842 564q-97 253 -207 505h-4l-216 -504q18 0 99 -2t115 -2q113 0 213 3zM375 468q-124 -305 -170 -474q-25 6 -92 6q-47 0 -72 -6l604 1354h57l198 -483l224 -550q95 -230 140 -321q-35 6 -123 6q-68 0 -103 -6q-45 168 -159 474q-115 3 -240 3q-147 0 -264 -3z M524 1675l248 -172q31 -22 31 -43q0 -12 -9.5 -21t-21.5 -9q-31 0 -88 24l-315 129q62 60 155 92z" />
<glyph unicode="&#xc1;" horiz-adv-x="1308" d="M842 564q-97 253 -207 505h-4l-216 -504q18 0 99 -2t115 -2q113 0 213 3zM375 468q-124 -305 -170 -474q-25 6 -92 6q-47 0 -72 -6l604 1354h57l198 -483l224 -550q95 -230 140 -321q-35 6 -123 6q-68 0 -103 -6q-45 168 -159 474q-115 3 -240 3q-147 0 -264 -3z M752 1679q88 -40 127 -106l-295 -119q-57 -24 -86 -24q-13 0 -22 9t-9 21q0 22 31 43z" />
<glyph unicode="&#xc2;" horiz-adv-x="1308" d="M842 564q-97 253 -207 505h-4l-216 -504q18 0 99 -2t115 -2q113 0 213 3zM375 468q-124 -305 -170 -474q-25 6 -92 6q-47 0 -72 -6l604 1354h57l198 -483l224 -550q95 -230 140 -321q-35 6 -123 6q-68 0 -103 -6q-45 168 -159 474q-115 3 -240 3q-147 0 -264 -3z M719 1649q83 -101 207 -193l-33 -43q-124 58 -217 127q-104 -76 -219 -127l-29 43q90 68 203 193h88z" />
<glyph unicode="&#xc3;" horiz-adv-x="1308" d="M842 564q-97 253 -207 505h-4l-216 -504q18 0 99 -2t115 -2q113 0 213 3zM375 468q-124 -305 -170 -474q-25 6 -92 6q-47 0 -72 -6l604 1354h57l198 -483l224 -550q95 -230 140 -321q-35 6 -123 6q-68 0 -103 -6q-45 168 -159 474q-115 3 -240 3q-147 0 -264 -3z M807 1524q36 0 58.5 22t43.5 84l49 -12q-37 -184 -178 -184q-52 0 -131 53q-72 45 -110 45q-39 0 -62.5 -23t-38.5 -75l-49 10q22 93 60.5 137.5t103.5 44.5q66 0 147 -57q59 -45 107 -45z" />
<glyph unicode="&#xc4;" horiz-adv-x="1308" d="M842 564q-97 253 -207 505h-4l-216 -504q18 0 99 -2t115 -2q113 0 213 3zM375 468q-124 -305 -170 -474q-25 6 -92 6q-47 0 -72 -6l604 1354h57l198 -483l224 -550q95 -230 140 -321q-35 6 -123 6q-68 0 -103 -6q-45 168 -159 474q-115 3 -240 3q-147 0 -264 -3z M819 1452q0 38 28 65t66 27t65.5 -27t27.5 -65t-27.5 -65t-65.5 -27t-66 27t-28 65zM328 1452q0 38 28 65t66 27t65 -27t27 -65t-27 -65t-65 -27t-66 27t-28 65z" />
<glyph unicode="&#xc5;" horiz-adv-x="1308" d="M842 564q-97 253 -207 505h-4l-216 -504q18 0 99 -2t115 -2q113 0 213 3zM485 1462q0 70 54 120t125 50q72 0 125 -49.5t53 -120.5q0 -54 -33.5 -98.5t-86.5 -61.5l192 -472l216 -530q90 -218 134 -306q-35 6 -123 6q-68 0 -103 -6q-45 168 -159 474q-115 3 -240 3 q-147 0 -264 -3q-124 -305 -170 -474q-25 6 -92 6q-47 0 -72 -6l582 1303q-58 14 -98 60t-40 105zM664 1577q-46 0 -74.5 -34t-28.5 -81q0 -45 29 -79.5t74 -34.5t73.5 34.5t28.5 79.5q0 48 -28.5 81.5t-73.5 33.5z" />
<glyph unicode="&#xc6;" horiz-adv-x="1642" d="M813 665l-83 428h-4q-103 -182 -224 -426q183 -3 184 -3q82 0 127 1zM455 570q-171 -357 -254 -576q-25 6 -92 6q-47 0 -72 -6l196 384l268 514q115 212 249 430l4 5q34 -6 104 -6h436q74 0 123 6l4 -6q-4 -58 -4 -64q0 -21 4 -53l-4 -8q-159 21 -375 21 q-116 0 -148.5 -19t-24.5 -81q40 -196 95 -435q223 0 459 20l7 -6q-7 -32 -7 -57t7 -57l-7 -7q-181 19 -439 21q67 -285 121 -482l435 21l4 -8q-4 -32 -4 -68q0 -1 4 -59l-4 -6q-50 6 -123 6h-280h-3h-110q-67 0 -102 -6q0 98 -91 578q-45 1 -135 1q-127 0 -241 -3z" />
<glyph unicode="&#xc7;" horiz-adv-x="1396" d="M752 -205q-53 0 -93 -12l-12 12l77 186q-148 8 -268.5 68t-195 153.5t-114.5 207t-40 235.5q0 147 56.5 279t149.5 224t215 146t251 54q70 0 142 -9.5t124 -23t94.5 -27.5t64.5 -24l22 -9l4 -6l-13 -51l-10 -44q-3 -12 -7 -35t-6.5 -44.5t-4.5 -52.5l-21 -2 q-115 231 -417 231q-53 0 -109.5 -18.5t-115 -62t-104.5 -106.5t-75 -162t-29 -218q0 -91 18 -177t56.5 -163t93.5 -135t133 -91.5t170 -33.5q142 0 235 45t202 166l49 -39q-203 -266 -480 -276l-46 -125q24 6 53 6q63 0 104 -35t41 -92q0 -66 -62.5 -109t-156.5 -43 q-74 0 -152 35q0 32 21 53q77 -28 119 -28q47 0 75.5 21.5t28.5 60.5q0 71 -67 71z" />
<glyph unicode="&#xc8;" horiz-adv-x="1122" d="M502 1673l248 -172q30 -21 30 -43q0 -12 -9 -21.5t-21 -9.5q-28 0 -88 25l-316 129q61 59 156 92zM389 410q0 -236 17 -295q122 0 266 6t228 12l83 6l4 -8q-4 -32 -4 -68q0 -5 4 -63l-4 -6q-49 6 -123 6h-559q-32 0 -59 -2q-26 0 -36 -2l-11 -2l-2 6q20 139 20 410v501 q0 264 -20 410l4 6q34 -6 104 -6h539q74 0 123 6l4 -6q-4 -58 -4 -78q0 -21 4 -53l-4 -8q-284 24 -557 24q-17 -60 -17 -295v-159q215 0 457 20l6 -6q-6 -27 -6 -66q0 -38 6 -65l-6 -6q-201 20 -457 20v-239z" />
<glyph unicode="&#xc9;" horiz-adv-x="1122" d="M717 1679q88 -40 127 -106l-295 -119q-57 -24 -86 -24q-13 0 -22 9t-9 21q0 22 31 43zM389 410q0 -236 17 -295q122 0 266 6t228 12l83 6l4 -8q-4 -32 -4 -68q0 -5 4 -63l-4 -6q-49 6 -123 6h-559q-32 0 -59 -2q-26 0 -36 -2l-11 -2l-2 6q20 139 20 410v501 q0 264 -20 410l4 6q34 -6 104 -6h539q74 0 123 6l4 -6q-4 -58 -4 -78q0 -21 4 -53l-4 -8q-284 24 -557 24q-17 -60 -17 -295v-159q215 0 457 20l6 -6q-6 -27 -6 -66q0 -38 6 -65l-6 -6q-201 20 -457 20v-239z" />
<glyph unicode="&#xca;" horiz-adv-x="1122" d="M389 410q0 -236 17 -295q122 0 266 6t228 12l83 6l4 -8q-4 -32 -4 -68q0 -5 4 -63l-4 -6q-49 6 -123 6h-559q-32 0 -59 -2q-26 0 -36 -2l-11 -2l-2 6q20 139 20 410v501q0 264 -20 410l4 6q34 -6 104 -6h539q74 0 123 6l4 -6q-4 -58 -4 -78q0 -21 4 -53l-4 -8 q-284 24 -557 24q-17 -60 -17 -295v-159q215 0 457 20l6 -6q-6 -27 -6 -66q0 -38 6 -65l-6 -6q-201 20 -457 20v-239zM649 1649q83 -101 207 -193l-33 -43q-124 58 -217 127q-104 -76 -219 -127l-29 43q90 68 203 193h88z" />
<glyph unicode="&#xcb;" horiz-adv-x="1122" d="M389 410q0 -236 17 -295q122 0 266 6t228 12l83 6l4 -8q-4 -32 -4 -68q0 -5 4 -63l-4 -6q-49 6 -123 6h-559q-32 0 -59 -2q-26 0 -36 -2l-11 -2l-2 6q20 139 20 410v501q0 264 -20 410l4 6q34 -6 104 -6h539q74 0 123 6l4 -6q-4 -58 -4 -78q0 -21 4 -53l-4 -8 q-284 24 -557 24q-17 -60 -17 -295v-159q215 0 457 20l6 -6q-6 -27 -6 -66q0 -38 6 -65l-6 -6q-201 20 -457 20v-239zM297 1538q0 40 29 69t69 29t69.5 -29t29.5 -69t-29.5 -69t-69.5 -29t-69 29t-29 69zM684 1538q0 40 29 69t69 29t69.5 -29t29.5 -69t-29.5 -69t-69.5 -29 t-69 29t-29 69z" />
<glyph unicode="&#xcc;" horiz-adv-x="602" d="M203 1673l248 -172q30 -21 30 -43q0 -12 -9 -21.5t-21 -9.5q-29 0 -89 25l-315 129q61 59 156 92zM213 911q0 264 -20 410l4 6q34 -6 104 -6q32 0 58.5 1.5t37.5 3.5l11 1l2 -6q-21 -143 -21 -410v-501q0 -256 21 -410l-4 -6q-35 6 -105 6q-32 0 -59 -2q-26 0 -36 -2 l-11 -2l-2 6q20 139 20 410v501z" />
<glyph unicode="&#xcd;" horiz-adv-x="602" d="M430 1677q88 -40 127 -106l-295 -119q-60 -25 -86 -25q-13 0 -22 9.5t-9 21.5q0 22 31 43zM213 911q0 264 -20 410l4 6q34 -6 104 -6q32 0 58.5 1.5t37.5 3.5l11 1l2 -6q-21 -143 -21 -410v-501q0 -256 21 -410l-4 -6q-35 6 -105 6q-32 0 -59 -2q-26 0 -36 -2l-11 -2 l-2 6q20 139 20 410v501z" />
<glyph unicode="&#xce;" horiz-adv-x="602" d="M213 911q0 264 -20 410l4 6q34 -6 104 -6q32 0 58.5 1.5t37.5 3.5l11 1l2 -6q-21 -143 -21 -410v-501q0 -256 21 -410l-4 -6q-35 6 -105 6q-32 0 -59 -2q-26 0 -36 -2l-11 -2l-2 6q20 139 20 410v501zM342 1649q83 -101 207 -193l-33 -43q-124 58 -217 127 q-104 -76 -219 -127l-29 43q90 68 203 193h88z" />
<glyph unicode="&#xcf;" horiz-adv-x="602" d="M213 911q0 264 -20 410l4 6q34 -6 104 -6q32 0 58.5 1.5t37.5 3.5l11 1l2 -6q-21 -143 -21 -410v-501q0 -256 21 -410l-4 -6q-35 6 -105 6q-32 0 -59 -2q-26 0 -36 -2l-11 -2l-2 6q20 139 20 410v501zM27 1536q0 40 29 69t69 29t69 -29t29 -69t-29 -69t-69 -29t-69 29 t-29 69zM414 1536q0 40 29 69t69 29t69 -29t29 -69t-29 -69t-69 -29t-69 29t-29 69z" />
<glyph unicode="&#xd0;" horiz-adv-x="1454" d="M301 1321q65 0 169 3t169 3q145 0 276.5 -55.5t226 -149t150.5 -222.5t56 -269q0 -105 -22.5 -193.5t-60 -153t-91 -115t-112.5 -82.5t-126.5 -53t-131 -29.5t-128.5 -8.5q-114 0 -212.5 2t-162.5 2q-32 0 -59 -2q-26 0 -36 -2l-11 -2l-2 6q20 139 20 410v178h-178v80 h178v243q0 264 -20 410l4 6q34 -6 104 -6zM389 168q0 -36 14 -51.5t60.5 -23t148.5 -7.5q66 0 120.5 5.5t109.5 20.5t98 39t81 62t63 89.5t39 122t14 157.5q0 100 -17 190t-59 176.5t-106 149t-165 101t-229 38.5q-42 0 -70 -3t-53 -11t-37 -25t-12 -43v-487h201v-80h-201 v-420z" />
<glyph unicode="&#xd1;" horiz-adv-x="1470" d="M203 1321l4 6q34 -6 104 -6l29 4l702 -909l40 -52q44 -59 54 -62q8 -2 10 15q3 14 3 48v546q0 256 -21 410l5 6q42 -6 92 -6q20 0 38 1q17 2 25 4l8 1l2 -6q-12 -160 -19 -335.5t-10 -290t-6 -329.5t-6 -323q-3 -63 -43 -63q-52 0 -88 49l-714 903l-32 41q-12 14 -22 21 t-14.5 5.5t-7.5 -15.5t-3.5 -32t-0.5 -53v-489q0 -264 20 -410l-4 -6q-52 6 -102 6q-20 0 -38 -2q-18 0 -26 -2l-8 -2l-2 6q25 248 34.5 636.5t-3.5 684.5zM854 1520q36 0 58.5 22t43.5 84l50 -12q-37 -184 -179 -184q-52 0 -131 53q-72 45 -110 45q-39 0 -62.5 -23 t-38.5 -75l-49 10q22 93 60.5 137.5t103.5 44.5q67 0 148 -57q59 -45 106 -45z" />
<glyph unicode="&#xd2;" horiz-adv-x="1517" d="M623 1677l247 -172q31 -22 31 -43q0 -12 -9.5 -21t-21.5 -9q-31 0 -88 24l-315 129q61 59 156 92zM1411 674q0 -203 -81.5 -361t-231 -245.5t-342.5 -87.5q-177 0 -324 78.5t-236.5 229.5t-89.5 347q0 198 85 361.5t233.5 257.5t329.5 94q184 0 333 -83t236.5 -237.5 t87.5 -353.5zM727 1257q-61 0 -118.5 -19.5t-111 -64t-93 -110.5t-63.5 -167t-24 -226q0 -143 40 -259t108 -189t153 -112.5t179 -39.5q180 0 291.5 148.5t111.5 416.5q0 311 -125 466.5t-348 155.5z" />
<glyph unicode="&#xd3;" horiz-adv-x="1517" d="M793 1679q88 -40 127 -106l-295 -119q-57 -24 -86 -24q-13 0 -22 9t-9 21q0 22 31 43zM1411 674q0 -203 -81.5 -361t-231 -245.5t-342.5 -87.5q-177 0 -324 78.5t-236.5 229.5t-89.5 347q0 198 85 361.5t233.5 257.5t329.5 94q184 0 333 -83t236.5 -237.5t87.5 -353.5z M727 1257q-61 0 -118.5 -19.5t-111 -64t-93 -110.5t-63.5 -167t-24 -226q0 -143 40 -259t108 -189t153 -112.5t179 -39.5q180 0 291.5 148.5t111.5 416.5q0 311 -125 466.5t-348 155.5z" />
<glyph unicode="&#xd4;" horiz-adv-x="1517" d="M1411 674q0 -203 -81.5 -361t-231 -245.5t-342.5 -87.5q-177 0 -324 78.5t-236.5 229.5t-89.5 347q0 198 85 361.5t233.5 257.5t329.5 94q184 0 333 -83t236.5 -237.5t87.5 -353.5zM727 1257q-61 0 -118.5 -19.5t-111 -64t-93 -110.5t-63.5 -167t-24 -226q0 -143 40 -259 t108 -189t153 -112.5t179 -39.5q180 0 291.5 148.5t111.5 416.5q0 311 -125 466.5t-348 155.5zM795 1649q85 -103 206 -193l-32 -43q-124 58 -217 127q-103 -74 -220 -127l-28 43q90 68 203 193h88z" />
<glyph unicode="&#xd5;" horiz-adv-x="1517" d="M1411 674q0 -203 -81.5 -361t-231 -245.5t-342.5 -87.5q-177 0 -324 78.5t-236.5 229.5t-89.5 347q0 198 85 361.5t233.5 257.5t329.5 94q184 0 333 -83t236.5 -237.5t87.5 -353.5zM727 1257q-61 0 -118.5 -19.5t-111 -64t-93 -110.5t-63.5 -167t-24 -226q0 -143 40 -259 t108 -189t153 -112.5t179 -39.5q180 0 291.5 148.5t111.5 416.5q0 311 -125 466.5t-348 155.5zM870 1520q36 0 59 22t44 84l49 -12q-37 -184 -178 -184q-52 0 -131 53q-72 45 -111 45t-62 -23t-38 -75l-49 10q22 93 60.5 137.5t102.5 44.5q67 0 148 -57q59 -45 106 -45z" />
<glyph unicode="&#xd6;" horiz-adv-x="1517" d="M1411 674q0 -203 -81.5 -361t-231 -245.5t-342.5 -87.5q-177 0 -324 78.5t-236.5 229.5t-89.5 347q0 198 85 361.5t233.5 257.5t329.5 94q184 0 333 -83t236.5 -237.5t87.5 -353.5zM727 1257q-61 0 -118.5 -19.5t-111 -64t-93 -110.5t-63.5 -167t-24 -226q0 -143 40 -259 t108 -189t153 -112.5t179 -39.5q180 0 291.5 148.5t111.5 416.5q0 311 -125 466.5t-348 155.5zM1073 1452q0 38 27 65t65 27t65 -27t27 -65t-27 -65t-65 -27t-65 27t-27 65zM254 1452q0 38 28 65t66 27t65 -27t27 -65t-27 -65t-65 -27t-66 27t-28 65z" />
<glyph unicode="&#xd7;" horiz-adv-x="1079" d="M610 471l252 -250l-71 -71l-250 249l-250 -249l-74 71l252 250l-252 252l74 72l250 -252l250 252l71 -72z" />
<glyph unicode="&#xd8;" horiz-adv-x="1517" d="M1103 1062l-659 -814q67 -87 159 -132.5t194 -45.5q180 0 291.5 148.5t111.5 416.5q0 271 -97 427zM727 1257q-61 0 -118.5 -19.5t-111 -64t-93 -110.5t-63.5 -167t-24 -226q0 -192 72 -334l653 804q-118 117 -315 117zM221 -27q-28 0 -48.5 20.5t-25.5 45.5l121 149 q-162 180 -162 447q0 198 85 361.5t233.5 257.5t329.5 94q207 0 370 -107l86 107q28 0 49 -19t25 -43l-84 -104q100 -91 155.5 -221t55.5 -287q0 -203 -81.5 -361t-231 -245.5t-342.5 -87.5q-242 0 -416 140z" />
<glyph unicode="&#xd9;" horiz-adv-x="1417" d="M688 1675l248 -172q31 -22 31 -43q0 -12 -9.5 -21t-21.5 -9q-31 0 -88 24l-316 129q61 59 156 92zM1116 911q0 264 -20 410l4 6q21 -6 71 -6q20 0 38 1.5t26 3.5l8 1l2 -6q-20 -136 -20 -410v-307q0 -115 -15 -206t-52.5 -171t-97.5 -133t-153.5 -83.5t-216.5 -30.5 q-62 0 -121 11.5t-125.5 45.5t-116 87.5t-82 146t-32.5 212.5v428q0 264 -20 410l4 6q34 -6 104 -6q32 0 58.5 1.5t37.5 3.5l11 1l2 -6q-21 -143 -21 -410v-360q0 -28 0.5 -45.5t3.5 -56t8.5 -66.5t17.5 -67.5t28.5 -68t43.5 -59t60 -50t79.5 -32t102.5 -12.5q72 0 130 14.5 t97.5 38.5t68.5 61.5t45.5 76t26 89.5t12.5 94.5t3 98.5v344z" />
<glyph unicode="&#xda;" horiz-adv-x="1417" d="M870 1677q88 -40 127 -106l-295 -119q-60 -25 -86 -25q-13 0 -21.5 9.5t-8.5 21.5q0 23 30 43zM1116 911q0 264 -20 410l4 6q21 -6 71 -6q20 0 38 1.5t26 3.5l8 1l2 -6q-20 -136 -20 -410v-307q0 -115 -15 -206t-52.5 -171t-97.5 -133t-153.5 -83.5t-216.5 -30.5 q-62 0 -121 11.5t-125.5 45.5t-116 87.5t-82 146t-32.5 212.5v428q0 264 -20 410l4 6q34 -6 104 -6q32 0 58.5 1.5t37.5 3.5l11 1l2 -6q-21 -143 -21 -410v-360q0 -28 0.5 -45.5t3.5 -56t8.5 -66.5t17.5 -67.5t28.5 -68t43.5 -59t60 -50t79.5 -32t102.5 -12.5q72 0 130 14.5 t97.5 38.5t68.5 61.5t45.5 76t26 89.5t12.5 94.5t3 98.5v344z" />
<glyph unicode="&#xdb;" horiz-adv-x="1417" d="M819 1649q83 -101 207 -193l-33 -43q-124 58 -217 127q-104 -76 -219 -127l-29 43q90 68 203 193h88zM1116 911q0 264 -20 410l4 6q21 -6 71 -6q20 0 38 1.5t26 3.5l8 1l2 -6q-20 -136 -20 -410v-307q0 -115 -15 -206t-52.5 -171t-97.5 -133t-153.5 -83.5t-216.5 -30.5 q-62 0 -121 11.5t-125.5 45.5t-116 87.5t-82 146t-32.5 212.5v428q0 264 -20 410l4 6q34 -6 104 -6q32 0 58.5 1.5t37.5 3.5l11 1l2 -6q-21 -143 -21 -410v-360q0 -28 0.5 -45.5t3.5 -56t8.5 -66.5t17.5 -67.5t28.5 -68t43.5 -59t60 -50t79.5 -32t102.5 -12.5q72 0 130 14.5 t97.5 38.5t68.5 61.5t45.5 76t26 89.5t12.5 94.5t3 98.5v344z" />
<glyph unicode="&#xdc;" horiz-adv-x="1417" d="M1116 911q0 264 -20 410l4 6q21 -6 71 -6q20 0 38 1.5t26 3.5l8 1l2 -6q-20 -136 -20 -410v-307q0 -115 -15 -206t-52.5 -171t-97.5 -133t-153.5 -83.5t-216.5 -30.5q-62 0 -121 11.5t-125.5 45.5t-116 87.5t-82 146t-32.5 212.5v428q0 264 -20 410l4 6q34 -6 104 -6 q32 0 58.5 1.5t37.5 3.5l11 1l2 -6q-21 -143 -21 -410v-360q0 -28 0.5 -45.5t3.5 -56t8.5 -66.5t17.5 -67.5t28.5 -68t43.5 -59t60 -50t79.5 -32t102.5 -12.5q72 0 130 14.5t97.5 38.5t68.5 61.5t45.5 76t26 89.5t12.5 94.5t3 98.5v344zM850 1452q0 38 27 65t65 27t65 -27 t27 -65t-27 -65t-65 -27t-65 27t-27 65zM514 1452q0 38 27 65t65 27t65 -27t27 -65t-27 -65t-65 -27t-65 27t-27 65z" />
<glyph unicode="&#xdd;" horiz-adv-x="1177" d="M685 585q5 -463 15 -591q-33 6 -106 6q-72 0 -105 -6q15 142 15 569l-240 395q-174 284 -231 369q35 -6 117 -6q81 0 116 6q50 -98 103 -192l141 -242l115 -196q229 362 358 630q25 -6 86 -6q59 0 86 6l-160 -243l-142 -218l-88 -140q-50 -82 -80 -141zM737 1679 q88 -40 127 -106l-295 -119q-57 -24 -86 -24q-13 0 -21.5 9t-8.5 21q0 23 30 43z" />
<glyph unicode="&#xde;" horiz-adv-x="1116" d="M389 394q32 -9 141 -9q48 0 88 7.5t80.5 28.5t68 55t45 92t17.5 134q0 291 -262 291q-32 0 -89.5 -6.5t-88.5 -14.5v-61v-501v-16zM213 911q0 264 -20 410l4 6q34 -6 104 -6q32 0 58.5 1.5t37.5 3.5l11 1l2 -6q-14 -98 -19 -247q53 3 178 3q109 0 193 -25.5t133.5 -64.5 t81 -91t42.5 -99t11 -95q0 -49 -15.5 -101t-52.5 -106.5t-91 -97t-139.5 -69.5t-190.5 -27q-106 0 -151 13q3 -196 20 -314l-4 -6q-35 6 -105 6q-32 0 -59 -2q-26 0 -36 -2l-11 -2l-2 6q20 139 20 410v501z" />
<glyph unicode="&#xdf;" horiz-adv-x="1116" d="M717 -20q-66 0 -133 21t-90 36l-2 6q8 14 14 28.5t8.5 24t7.5 31t8 35.5l23 2q19 -34 70.5 -68.5t93.5 -34.5q56 0 95.5 58.5t39.5 199.5q0 135 -83.5 260.5t-223.5 231.5v27q114 88 164.5 160.5t50.5 177.5q0 172 -160 172q-62 0 -106 -26t-68 -65t-38 -102t-17.5 -118 t-3.5 -132v-495q0 -280 20 -410l-4 -6q-28 6 -98 6q-32 0 -57 -2q-26 0 -35 -2l-9 -2l-2 6q21 130 21 410v346q0 18 -5.5 25t-19.5 7h-90q-12 0 -12 11v39q0 15 11.5 28t35.5 13q80 0 80 98q0 97 28 176.5t71.5 129.5t99.5 84.5t110 48.5t106 14q76 0 136.5 -21.5t96 -56 t53.5 -73t18 -77.5q0 -110 -56.5 -189t-177.5 -171v-4q57 -37 99 -68.5t91.5 -79t80.5 -94.5t52 -110t21 -132q0 -163 -87.5 -268.5t-227.5 -105.5z" />
<glyph unicode="&#xe0;" horiz-adv-x="985" d="M791 156q0 -64 34 -64q14 0 27 6.5t31.5 21t19.5 15.5l6 -4l35 -43q-51 -61 -91 -84.5t-91 -23.5q-36 0 -62.5 13t-40 34t-20 38t-8.5 33h-4q-83 -70 -139 -94t-140 -24q-119 0 -187.5 55.5t-68.5 165.5q0 104 91 183t249 114l191 43q14 5 14 24q0 66 -14 113.5t-33 71.5 t-49 38t-51 16.5t-50 2.5q-67 0 -121 -47t-104 -127l-27 2l-34 137l6 8q37 31 67.5 52t96 44t137.5 23q51 0 95.5 -7.5t90.5 -30t78.5 -58t53 -96t20.5 -140.5q0 -7 -4 -192t-4 -219zM635 461l-174 -47q-114 -31 -158.5 -81t-44.5 -124q0 -50 43 -87.5t109 -37.5 q82 0 188 80q29 22 29 53zM401 1374l144 -258q12 -24 12 -49q0 -8 -9.5 -15.5t-21.5 -7.5q-15 0 -59 41l-234 224l5 22q63 47 133 47q14 0 30 -4z" />
<glyph unicode="&#xe1;" horiz-adv-x="985" d="M791 156q0 -64 34 -64q14 0 27 6.5t31.5 21t19.5 15.5l6 -4l35 -43q-51 -61 -91 -84.5t-91 -23.5q-36 0 -62.5 13t-40 34t-20 38t-8.5 33h-4q-83 -70 -139 -94t-140 -24q-119 0 -187.5 55.5t-68.5 165.5q0 104 91 183t249 114l191 43q14 5 14 24q0 66 -14 113.5t-33 71.5 t-49 38t-51 16.5t-50 2.5q-67 0 -121 -47t-104 -127l-27 2l-34 137l6 8q37 31 67.5 52t96 44t137.5 23q51 0 95.5 -7.5t90.5 -30t78.5 -58t53 -96t20.5 -140.5q0 -7 -4 -192t-4 -219zM635 461l-174 -47q-114 -31 -158.5 -81t-44.5 -124q0 -50 43 -87.5t109 -37.5 q82 0 188 80q29 22 29 53zM500 1374q12 4 28 4q64 0 113 -47l6 -22l-235 -224q-38 -38 -62 -38q-11 0 -19.5 8t-8.5 18q0 16 4 25.5t19 31.5z" />
<glyph unicode="&#xe2;" horiz-adv-x="985" d="M791 156q0 -64 34 -64q14 0 27 6.5t31.5 21t19.5 15.5l6 -4l35 -43q-51 -61 -91 -84.5t-91 -23.5q-36 0 -62.5 13t-40 34t-20 38t-8.5 33h-4q-83 -70 -139 -94t-140 -24q-119 0 -187.5 55.5t-68.5 165.5q0 104 91 183t249 114l191 43q14 5 14 24q0 66 -14 113.5t-33 71.5 t-49 38t-51 16.5t-50 2.5q-67 0 -121 -47t-104 -127l-27 2l-34 137l6 8q37 31 67.5 52t96 44t137.5 23q51 0 95.5 -7.5t90.5 -30t78.5 -58t53 -96t20.5 -140.5q0 -7 -4 -192t-4 -219zM635 461l-174 -47q-114 -31 -158.5 -81t-44.5 -124q0 -50 43 -87.5t109 -37.5 q82 0 188 80q29 22 29 53zM492 1323q69 -112 206 -264l-43 -29q-142 105 -217 184q-92 -95 -219 -184l-41 29q149 165 211 264h103z" />
<glyph unicode="&#xe3;" horiz-adv-x="985" d="M791 156q0 -64 34 -64q14 0 27 6.5t31.5 21t19.5 15.5l6 -4l35 -43q-51 -61 -91 -84.5t-91 -23.5q-36 0 -62.5 13t-40 34t-20 38t-8.5 33h-4q-83 -70 -139 -94t-140 -24q-119 0 -187.5 55.5t-68.5 165.5q0 104 91 183t249 114l191 43q14 5 14 24q0 66 -14 113.5t-33 71.5 t-49 38t-51 16.5t-50 2.5q-67 0 -121 -47t-104 -127l-27 2l-34 137l6 8q37 31 67.5 52t96 44t137.5 23q51 0 95.5 -7.5t90.5 -30t78.5 -58t53 -96t20.5 -140.5q0 -7 -4 -192t-4 -219zM635 461l-174 -47q-114 -31 -158.5 -81t-44.5 -124q0 -50 43 -87.5t109 -37.5 q82 0 188 80q29 22 29 53zM580 1167q35 0 58 22.5t44 84.5l49 -12q-38 -185 -178 -185q-52 0 -131 53q-74 46 -111 46q-39 0 -62 -23.5t-38 -75.5l-49 10q22 93 61 138t103 45q65 0 147 -58q59 -45 107 -45z" />
<glyph unicode="&#xe4;" horiz-adv-x="985" d="M791 156q0 -64 34 -64q14 0 27 6.5t31.5 21t19.5 15.5l6 -4l35 -43q-51 -61 -91 -84.5t-91 -23.5q-36 0 -62.5 13t-40 34t-20 38t-8.5 33h-4q-83 -70 -139 -94t-140 -24q-119 0 -187.5 55.5t-68.5 165.5q0 104 91 183t249 114l191 43q14 5 14 24q0 66 -14 113.5t-33 71.5 t-49 38t-51 16.5t-50 2.5q-67 0 -121 -47t-104 -127l-27 2l-34 137l6 8q37 31 67.5 52t96 44t137.5 23q51 0 95.5 -7.5t90.5 -30t78.5 -58t53 -96t20.5 -140.5q0 -7 -4 -192t-4 -219zM635 461l-174 -47q-114 -31 -158.5 -81t-44.5 -124q0 -50 43 -87.5t109 -37.5 q82 0 188 80q29 22 29 53zM516 1176q0 40 28 69t68 29t68.5 -29t28.5 -69t-28.5 -68.5t-68.5 -28.5t-68 28.5t-28 68.5zM170 1176q0 40 28 69t68 29t68 -29t28 -69t-28 -68.5t-68 -28.5t-68 28.5t-28 68.5z" />
<glyph unicode="&#xe5;" horiz-adv-x="985" d="M791 156q0 -64 34 -64q14 0 27 6.5t31.5 21t19.5 15.5l6 -4l35 -43q-51 -61 -91 -84.5t-91 -23.5q-36 0 -62.5 13t-40 34t-20 38t-8.5 33h-4q-83 -70 -139 -94t-140 -24q-119 0 -187.5 55.5t-68.5 165.5q0 104 91 183t249 114l191 43q14 5 14 24q0 66 -14 113.5t-33 71.5 t-49 38t-51 16.5t-50 2.5q-67 0 -121 -47t-104 -127l-27 2l-34 137l6 8q37 31 67.5 52t96 44t137.5 23q51 0 95.5 -7.5t90.5 -30t78.5 -58t53 -96t20.5 -140.5q0 -7 -4 -192t-4 -219zM635 461l-174 -47q-114 -31 -158.5 -81t-44.5 -124q0 -50 43 -87.5t109 -37.5 q82 0 188 80q29 22 29 53zM252 1192q0 70 53.5 120t124.5 50q72 0 125 -49.5t53 -120.5q0 -69 -52.5 -119.5t-125.5 -50.5q-71 0 -124.5 50t-53.5 120zM430 1307q-46 0 -74 -33.5t-28 -81.5q0 -45 28.5 -80t73.5 -35t73.5 35t28.5 80q0 48 -28.5 81.5t-73.5 33.5z" />
<glyph unicode="&#xe6;" horiz-adv-x="1406" d="M414 807q-64 0 -126 -53t-106 -129l-26 2l-33 137l6 8q151 127 303 127q28 0 56 -3.5t72.5 -16t85.5 -44t67 -79.5q51 69 127 106t164 37q66 0 122 -21t91.5 -52.5t60 -69t35 -69t10.5 -54.5q0 -103 -53 -148q-26 -14 -74 -21t-98 -8t-149.5 -3.5t-182.5 -6.5 q0 -163 69 -259.5t185 -96.5q134 0 252 139l41 -57q-45 -84 -133.5 -138t-188.5 -54q-53 0 -98.5 11t-73 23t-56 36t-38.5 35.5t-29 35.5q-147 -141 -307 -141q-157 0 -233 59.5t-76 167.5q0 130 135 213.5t391 101.5q-2 151 -43 218t-149 67zM768 528q53 3 111 4t91.5 1 t68.5 1.5t52.5 6t33 15t21 27.5t5.5 44q0 59 -41.5 119.5t-108.5 60.5q-97 0 -159 -74.5t-74 -204.5zM606 440q-191 -18 -274.5 -77.5t-83.5 -145.5q0 -135 145 -135q59 0 114.5 33t76.5 90q22 63 22 235z" />
<glyph unicode="&#xe7;" horiz-adv-x="890" d="M477 -193q-52 0 -92 -12l-12 12l72 175q-173 16 -272 140t-99 324q0 101 39 188t102 144t142 89t159 32q77 0 159.5 -16t129.5 -41l4 -6l-47 -168l-27 -2q-40 69 -100.5 110t-120.5 41q-107 0 -185.5 -99t-78.5 -261q0 -174 82 -274.5t205 -100.5q66 0 116 21.5t109 74.5 h8l39 -43q-114 -146 -294 -155l-42 -113q24 6 53 6q63 0 104.5 -35t41.5 -92q0 -66 -62.5 -109t-156.5 -43q-74 0 -152 35q0 33 21 54q72 -26 101 -28q8 -1 17 -1q47 0 76 21.5t29 60.5q0 71 -68 71z" />
<glyph unicode="&#xe8;" horiz-adv-x="921" d="M797 213l41 -51q-61 -83 -152.5 -132.5t-198.5 -49.5q-103 0 -187.5 35.5t-137.5 99.5q-92 109 -92 313q0 108 38 199.5t98.5 149.5t134.5 90t148 32q78 0 139.5 -24t100 -62.5t64 -90.5t35.5 -103.5t10 -106.5q0 -35 -37 -35h-551q0 -181 49 -260q38 -62 99.5 -89.5 t123.5 -27.5q171 0 275 113zM256 563h371q28 0 28 29q0 107 -51.5 166t-114.5 59q-17 0 -39 -5.5t-53 -23t-57.5 -44t-50 -74t-33.5 -107.5zM430 1374l143 -258q13 -26 13 -49q0 -8 -9.5 -15.5t-21.5 -7.5q-15 0 -59 41l-234 224l4 22q63 47 133 47q15 0 31 -4z" />
<glyph unicode="&#xe9;" horiz-adv-x="921" d="M797 213l41 -51q-61 -83 -152.5 -132.5t-198.5 -49.5q-103 0 -187.5 35.5t-137.5 99.5q-92 109 -92 313q0 108 38 199.5t98.5 149.5t134.5 90t148 32q78 0 139.5 -24t100 -62.5t64 -90.5t35.5 -103.5t10 -106.5q0 -35 -37 -35h-551q0 -181 49 -260q38 -62 99.5 -89.5 t123.5 -27.5q171 0 275 113zM256 563h371q28 0 28 29q0 107 -51.5 166t-114.5 59q-17 0 -39 -5.5t-53 -23t-57.5 -44t-50 -74t-33.5 -107.5zM553 1374q12 4 29 4q63 0 112 -47l6 -22l-235 -224q-38 -38 -62 -38q-11 0 -19.5 8t-8.5 18q0 16 4 25.5t19 31.5z" />
<glyph unicode="&#xea;" horiz-adv-x="921" d="M797 213l41 -51q-61 -83 -152.5 -132.5t-198.5 -49.5q-103 0 -187.5 35.5t-137.5 99.5q-92 109 -92 313q0 108 38 199.5t98.5 149.5t134.5 90t148 32q78 0 139.5 -24t100 -62.5t64 -90.5t35.5 -103.5t10 -106.5q0 -35 -37 -35h-551q0 -181 49 -260q38 -62 99.5 -89.5 t123.5 -27.5q171 0 275 113zM256 563h371q28 0 28 29q0 107 -51.5 166t-114.5 59q-17 0 -39 -5.5t-53 -23t-57.5 -44t-50 -74t-33.5 -107.5zM528 1323q67 -109 207 -264l-43 -29q-142 105 -217 184q-92 -95 -219 -184l-41 29q149 165 211 264h102z" />
<glyph unicode="&#xeb;" horiz-adv-x="921" d="M797 213l41 -51q-61 -83 -152.5 -132.5t-198.5 -49.5q-103 0 -187.5 35.5t-137.5 99.5q-92 109 -92 313q0 108 38 199.5t98.5 149.5t134.5 90t148 32q78 0 139.5 -24t100 -62.5t64 -90.5t35.5 -103.5t10 -106.5q0 -35 -37 -35h-551q0 -181 49 -260q38 -62 99.5 -89.5 t123.5 -27.5q171 0 275 113zM256 563h371q28 0 28 29q0 107 -51.5 166t-114.5 59q-17 0 -39 -5.5t-53 -23t-57.5 -44t-50 -74t-33.5 -107.5zM549 1176q0 40 28 69t68 29t68 -29t28 -69t-28 -68.5t-68 -28.5t-68 28.5t-28 68.5zM203 1176q0 40 28 69t68 29t68 -29t28 -69 t-28 -68.5t-68 -28.5t-68 28.5t-28 68.5z" />
<glyph unicode="&#xec;" horiz-adv-x="532" d="M184 481q0 251 -20 361l4 6q23 2 44 6t42 10l32 10l35 13l29 12q19 0 19 -20q-21 -164 -21 -365v-145q0 -215 21 -369l-4 -6q-29 6 -99 6q-32 0 -57 -2q-25 0 -34 -2l-9 -2l-2 6q20 139 20 369v112zM225 1374l144 -258q12 -24 12 -49q0 -8 -9.5 -15.5t-21.5 -7.5 q-15 0 -59 41l-234 224l4 22q63 47 134 47q14 0 30 -4z" />
<glyph unicode="&#xed;" horiz-adv-x="532" d="M184 481q0 251 -20 361l4 6q23 2 44 6t42 10l32 10l35 13l29 12q19 0 19 -20q-21 -164 -21 -365v-145q0 -215 21 -369l-4 -6q-29 6 -99 6q-32 0 -57 -2q-25 0 -34 -2l-9 -2l-2 6q20 139 20 369v112zM356 1374q12 4 29 4q64 0 113 -47l6 -22l-236 -224q-38 -38 -61 -38 q-11 0 -20 8t-9 18q0 4 0.5 8t1 6.5t2 6.5t2 6t3.5 7t4 7l5 8q4 6 6 8z" />
<glyph unicode="&#xee;" horiz-adv-x="532" d="M184 481q0 251 -20 361l4 6q23 2 44 6t42 10l32 10l35 13l29 12q19 0 19 -20q-21 -164 -21 -365v-145q0 -215 21 -369l-4 -6q-29 6 -99 6q-32 0 -57 -2q-25 0 -34 -2l-9 -2l-2 6q20 139 20 369v112zM330 1323q67 -109 207 -264l-43 -29q-145 107 -218 184 q-92 -95 -219 -184l-41 29q149 165 211 264h103z" />
<glyph unicode="&#xef;" horiz-adv-x="532" d="M184 481q0 251 -20 361l4 6q23 2 44 6t42 10l32 10l35 13l29 12q19 0 19 -20q-21 -164 -21 -365v-145q0 -215 21 -369l-4 -6q-29 6 -99 6q-32 0 -57 -2q-25 0 -34 -2l-9 -2l-2 6q20 139 20 369v112zM356 1176q0 40 28.5 69t68.5 29t68 -29t28 -69t-28 -68.5t-68 -28.5 t-68.5 28.5t-28.5 68.5zM10 1176q0 40 28 69t68 29t68.5 -29t28.5 -69t-28.5 -68.5t-68.5 -28.5t-68 28.5t-28 68.5z" />
<glyph unicode="&#xf0;" horiz-adv-x="1013" d="M70 426q0 101 30.5 184.5t78 135.5t108 88t118 50.5t111.5 14.5q84 0 158 -29q-61 148 -185 301l-223 -149l-45 65l215 146l-33 33q-43 45 -145 118l39 46q103 -56 217 -146l217 146l45 -66l-198 -133l36 -37q320 -320 320 -709q0 -125 -38 -224t-103 -159t-144.5 -91 t-167.5 -31q-92 0 -171 39.5t-130.5 103.5t-80.5 143t-29 160zM516 63q32 0 62 8.5t63 35t57 68t40 114.5t16 168q0 156 -33 272q-69 86 -209 86q-74 0 -127 -32.5t-80 -87t-39 -112t-12 -122.5q0 -173 76 -285.5t186 -112.5z" />
<glyph unicode="&#xf1;" horiz-adv-x="1071" d="M918 369q0 -239 20 -369l-4 -6q-28 6 -98 6q-32 0 -57 -2q-25 0 -35 -2l-9 -2l-2 6q21 130 21 369v200q0 122 -35 168.5t-119 46.5q-63 0 -122 -46.5t-146 -149.5v-219q0 -231 20 -369l-4 -6q-28 6 -98 6q-32 0 -57 -2q-25 0 -34 -2l-9 -2l-3 6q21 136 21 369v112 q0 247 -21 361l5 6q29 2 57 8.5t41.5 11t41.5 16.5t36 15q18 0 18 -20l-19 -168l9 -6q94 110 168.5 152t157.5 42q135 0 195.5 -80t60.5 -244v-206zM700 1167q36 0 59 22.5t44 84.5l49 -12q-38 -185 -178 -185q-52 0 -131 53q-74 46 -111 46q-39 0 -62 -23.5t-38 -75.5 l-49 10q22 94 60.5 138.5t102.5 44.5q66 0 148 -58q59 -45 106 -45z" />
<glyph unicode="&#xf2;" horiz-adv-x="1011" d="M500 817q-69 0 -118.5 -30.5t-75.5 -84.5t-37 -114.5t-11 -132.5q0 -52 6.5 -102t25 -104.5t47 -95t77 -66.5t110.5 -26q102 0 166 96t64 244q0 81 -5.5 139.5t-21.5 113.5t-43.5 89t-73.5 54t-110 20zM78 420q0 219 118 349t318 130q203 0 311.5 -123.5t108.5 -337.5 q0 -205 -114.5 -331.5t-313.5 -126.5q-198 0 -313 124.5t-115 315.5zM479 1374l144 -258q12 -24 12 -49q0 -8 -9.5 -15.5t-21.5 -7.5q-15 0 -59 41l-234 224l4 22q63 47 134 47q14 0 30 -4z" />
<glyph unicode="&#xf3;" horiz-adv-x="1011" d="M500 817q-69 0 -118.5 -30.5t-75.5 -84.5t-37 -114.5t-11 -132.5q0 -52 6.5 -102t25 -104.5t47 -95t77 -66.5t110.5 -26q102 0 166 96t64 244q0 81 -5.5 139.5t-21.5 113.5t-43.5 89t-73.5 54t-110 20zM78 420q0 219 118 349t318 130q203 0 311.5 -123.5t108.5 -337.5 q0 -205 -114.5 -331.5t-313.5 -126.5q-198 0 -313 124.5t-115 315.5zM573 1374q12 4 29 4q64 0 113 -47l6 -22l-236 -224q-38 -38 -61 -38q-11 0 -20 8t-9 18q0 4 0.5 8t1 6.5t2 6.5t2 6t3.5 7t4 7l6 8q4 6 5 8z" />
<glyph unicode="&#xf4;" horiz-adv-x="1011" d="M500 817q-69 0 -118.5 -30.5t-75.5 -84.5t-37 -114.5t-11 -132.5q0 -52 6.5 -102t25 -104.5t47 -95t77 -66.5t110.5 -26q102 0 166 96t64 244q0 81 -5.5 139.5t-21.5 113.5t-43.5 89t-73.5 54t-110 20zM78 420q0 219 118 349t318 130q203 0 311.5 -123.5t108.5 -337.5 q0 -205 -114.5 -331.5t-313.5 -126.5q-198 0 -313 124.5t-115 315.5zM567 1323q67 -109 207 -264l-43 -29q-142 105 -217 184q-92 -95 -219 -184l-41 29q149 165 211 264h102z" />
<glyph unicode="&#xf5;" horiz-adv-x="1011" d="M500 817q-69 0 -118.5 -30.5t-75.5 -84.5t-37 -114.5t-11 -132.5q0 -52 6.5 -102t25 -104.5t47 -95t77 -66.5t110.5 -26q102 0 166 96t64 244q0 81 -5.5 139.5t-21.5 113.5t-43.5 89t-73.5 54t-110 20zM78 420q0 219 118 349t318 130q203 0 311.5 -123.5t108.5 -337.5 q0 -205 -114.5 -331.5t-313.5 -126.5q-198 0 -313 124.5t-115 315.5zM643 1167q35 0 58 22.5t44 84.5l50 -12q-38 -185 -179 -185q-52 0 -131 53q-74 46 -110 46q-39 0 -62.5 -23.5t-38.5 -75.5l-49 10q22 93 61 138t103 45q66 0 148 -58q59 -45 106 -45z" />
<glyph unicode="&#xf6;" horiz-adv-x="1011" d="M500 817q-69 0 -118.5 -30.5t-75.5 -84.5t-37 -114.5t-11 -132.5q0 -52 6.5 -102t25 -104.5t47 -95t77 -66.5t110.5 -26q102 0 166 96t64 244q0 81 -5.5 139.5t-21.5 113.5t-43.5 89t-73.5 54t-110 20zM78 420q0 219 118 349t318 130q203 0 311.5 -123.5t108.5 -337.5 q0 -205 -114.5 -331.5t-313.5 -126.5q-198 0 -313 124.5t-115 315.5zM575 1176q0 40 28.5 69t68.5 29t68 -29t28 -69t-28 -68.5t-68 -28.5t-68.5 28.5t-28.5 68.5zM229 1176q0 40 28.5 69t68.5 29t68 -29t28 -69t-28 -68.5t-68 -28.5t-68.5 28.5t-28.5 68.5z" />
<glyph unicode="&#xf7;" horiz-adv-x="1079" d="M944 526v-100h-809v100h809zM447 203v6q12 34 33.5 56t59.5 37h7q38 -14 59 -35t33 -58v-6q-14 -41 -34.5 -62.5t-57.5 -30.5h-7q-41 9 -61.5 29.5t-31.5 63.5zM447 751v7q12 34 33.5 56t59.5 37h7q38 -14 59 -35t33 -58v-7q-13 -41 -34 -62t-58 -30h-7q-41 9 -61.5 29 t-31.5 63z" />
<glyph unicode="&#xf8;" horiz-adv-x="1011" d="M731 639l-396 -483q70 -95 189 -95q102 0 166 96t64 244q0 150 -23 238zM500 817q-69 0 -118.5 -30.5t-75.5 -84.5t-37 -114.5t-11 -132.5q0 -124 37 -221l402 488q-59 95 -197 95zM868 930l64 -47l-97 -118q99 -120 99 -327q0 -205 -114.5 -331.5t-313.5 -126.5 q-150 0 -255 74l-91 -111l-62 53l92 111q-112 121 -112 313q0 219 118 349t318 130q160 0 264 -79z" />
<glyph unicode="&#xf9;" horiz-adv-x="1101" d="M745 188q-59 -90 -135 -149t-164 -59q-142 0 -212 80.5t-70 197.5v252q0 232 -21 369l4 6q29 -6 99 -6q32 0 57 1.5t34 3.5l9 1l2 -6q-20 -121 -20 -369v-203q0 -52 10 -91.5t25.5 -62t36.5 -36.5t39.5 -18.5t39.5 -4.5q67 0 149 73t122 142v201q0 232 -21 369l4 6 q28 -6 98 -6q32 0 57 1q24 2 34 4l10 1l2 -6q-21 -127 -21 -369v-117q0 -201 35 -393l-4 -6q-40 6 -91 6q-17 0 -71 -6q-18 0 -18 6l-10 182zM467 1374l143 -258q13 -26 13 -49q0 -8 -9.5 -15.5t-21.5 -7.5q-16 0 -60 41l-233 224l4 22q63 47 133 47q15 0 31 -4z" />
<glyph unicode="&#xfa;" horiz-adv-x="1101" d="M745 188q-59 -90 -135 -149t-164 -59q-142 0 -212 80.5t-70 197.5v252q0 232 -21 369l4 6q29 -6 99 -6q32 0 57 1.5t34 3.5l9 1l2 -6q-20 -121 -20 -369v-203q0 -52 10 -91.5t25.5 -62t36.5 -36.5t39.5 -18.5t39.5 -4.5q67 0 149 73t122 142v201q0 232 -21 369l4 6 q28 -6 98 -6q32 0 57 1q24 2 34 4l10 1l2 -6q-21 -127 -21 -369v-117q0 -201 35 -393l-4 -6q-40 6 -91 6q-17 0 -71 -6q-18 0 -18 6l-10 182zM627 1374q12 4 28 4q64 0 113 -47l6 -22l-235 -224q-38 -38 -62 -38q-11 0 -19.5 8t-8.5 18q0 16 4 25.5t19 31.5z" />
<glyph unicode="&#xfb;" horiz-adv-x="1101" d="M745 188q-59 -90 -135 -149t-164 -59q-142 0 -212 80.5t-70 197.5v252q0 232 -21 369l4 6q29 -6 99 -6q32 0 57 1.5t34 3.5l9 1l2 -6q-20 -121 -20 -369v-203q0 -52 10 -91.5t25.5 -62t36.5 -36.5t39.5 -18.5t39.5 -4.5q67 0 149 73t122 142v201q0 232 -21 369l4 6 q28 -6 98 -6q32 0 57 1q24 2 34 4l10 1l2 -6q-21 -127 -21 -369v-117q0 -201 35 -393l-4 -6q-40 6 -91 6q-17 0 -71 -6q-18 0 -18 6l-10 182zM575 1323q67 -109 207 -264l-43 -29q-142 105 -217 184q-92 -95 -219 -184l-41 29q149 165 211 264h102z" />
<glyph unicode="&#xfc;" horiz-adv-x="1101" d="M745 188q-59 -90 -135 -149t-164 -59q-142 0 -212 80.5t-70 197.5v252q0 232 -21 369l4 6q29 -6 99 -6q32 0 57 1.5t34 3.5l9 1l2 -6q-20 -121 -20 -369v-203q0 -52 10 -91.5t25.5 -62t36.5 -36.5t39.5 -18.5t39.5 -4.5q67 0 149 73t122 142v201q0 232 -21 369l4 6 q28 -6 98 -6q32 0 57 1q24 2 34 4l10 1l2 -6q-21 -127 -21 -369v-117q0 -201 35 -393l-4 -6q-40 6 -91 6q-17 0 -71 -6q-18 0 -18 6l-10 182zM616 1176q0 40 28.5 69t68.5 29t68 -29t28 -69t-28 -68.5t-68 -28.5t-68.5 28.5t-28.5 68.5zM270 1176q0 40 28.5 69t68.5 29 t68 -29t28 -69t-28 -68.5t-68 -28.5t-68.5 28.5t-28.5 68.5z" />
<glyph unicode="&#xfd;" horiz-adv-x="1036" d="M57 885q29 -6 107 -6q73 0 100 6l24 -71l24 -68l26 -72l26 -67l29 -73l27 -67q6 -17 30 -74l28 -68l30 -75l30 -71h4q133 283 269 706q20 -6 80 -6q68 0 88 6q-85 -171 -314 -687.5t-280 -682.5q-33 10 -100 10q-39 0 -72 -10q145 240 242 465q-25 68 -85 205l-108 245 l-122 271q-74 163 -83 184zM629 1374q12 4 28 4q64 0 113 -47l6 -22l-235 -224q-38 -38 -62 -38q-11 0 -19.5 8t-8.5 18q0 16 4 25.5t19 31.5z" />
<glyph unicode="&#xfe;" horiz-adv-x="1054" d="M334 -66q0 -271 20 -409l-4 -6q-28 6 -98 6q-32 0 -57 -1.5t-34 -3.5l-9 -1l-2 6q20 129 20 409v1053q0 276 -20 385l4 6q29 2 58.5 9t42 11t45.5 17.5t36 14.5q18 0 18 -21q-20 -157 -20 -385v-221l-2 -68q24 39 56.5 72t91 62.5t124.5 29.5q97 0 183 -59.5t136 -156 t50 -202.5q0 -111 -38 -206.5t-101 -159t-145 -99.5t-171 -36q-102 0 -184 45v-91zM334 627v-480q73 -88 174 -88q78 0 133 31.5t83 86.5t40 115.5t12 133.5q0 85 -15 152t-38 107t-54 65.5t-59.5 35t-58.5 9.5q-58 0 -121.5 -45.5t-95.5 -122.5z" />
<glyph unicode="&#xff;" horiz-adv-x="1036" d="M57 885q29 -6 107 -6q73 0 100 6l24 -71l24 -68l26 -72l26 -67l29 -73l27 -67q6 -17 30 -74l28 -68l30 -75l30 -71h4q133 283 269 706q20 -6 80 -6q68 0 88 6q-85 -171 -314 -687.5t-280 -682.5q-33 10 -100 10q-39 0 -72 -10q145 240 242 465q-25 68 -85 205l-108 245 l-122 271q-74 163 -83 184zM616 1176q0 40 28.5 69t68.5 29t68 -29t28 -69t-28 -68.5t-68 -28.5t-68.5 28.5t-28.5 68.5zM270 1176q0 40 28.5 69t68.5 29t68 -29t28 -69t-28 -68.5t-68 -28.5t-68.5 28.5t-28.5 68.5z" />
<glyph unicode="&#x152;" horiz-adv-x="1716" d="M932 0l-215 -4q-188 1 -333 88t-221.5 235t-76.5 332q0 186 71.5 337.5t211.5 243t325 91.5q145 -2 238 -2h538q74 0 123 6l4 -6q-4 -58 -4 -64q0 -21 4 -53l-4 -8q-284 25 -557 25q-16 -56 -16 -310v-168q203 0 457 21l6 -6q-6 -27 -6 -58q0 -30 6 -57l-6 -6 q-201 20 -457 20v-247q0 -243 16 -299q122 0 266 6t228 12l84 6l4 -8q-4 -32 -4 -68q0 -1 4 -59l-4 -6q-50 6 -123 6h-559zM713 76h26q60 0 82.5 19t22.5 63v1007q0 46 -22.5 61t-82.5 15h-71q-62 0 -115 -17t-101 -58.5t-82 -105t-53.5 -163t-19.5 -227.5q0 -153 35 -270.5 t94.5 -186.5t132 -103t154.5 -34z" />
<glyph unicode="&#x153;" horiz-adv-x="1587" d="M254 485q0 -88 15 -162.5t45 -134t81.5 -93.5t118.5 -34q41 0 78.5 14.5t75.5 49.5t61 108t23 175q0 90 -17 163t-43.5 118t-60.5 75.5t-65 42.5t-60 12q-62 0 -112 -32t-79.5 -82.5t-45 -107.5t-15.5 -112zM1497 215l41 -53q-61 -83 -152 -132.5t-198 -49.5 q-122 0 -213 45.5t-146 126.5q-40 -58 -78.5 -92.5t-105 -57t-160.5 -22.5q-191 0 -303 124t-112 318q0 116 36.5 208.5t98 150t139 88t164.5 30.5q74 0 131 -14.5t96 -42.5t63.5 -57t49.5 -70q62 87 150 135.5t178 48.5q97 0 167.5 -32.5t108.5 -87.5t55 -116.5t17 -130.5 q0 -34 -37 -34h-551q0 -88 19.5 -158.5t50 -114t70.5 -73t78 -41t75 -11.5q162 0 268 115zM942 588h371q28 0 28 28q0 105 -49.5 153t-115.5 48q-19 0 -39.5 -3t-53 -16.5t-58 -36.5t-49.5 -68t-34 -105z" />
<glyph unicode="&#x178;" horiz-adv-x="1191" d="M685 585q5 -463 15 -591q-33 6 -106 6q-72 0 -105 -6q15 142 15 569l-240 395q-174 284 -231 369q35 -6 117 -6q81 0 116 6q50 -98 103 -192l141 -242l115 -196q229 362 358 630q25 -6 86 -6q59 0 86 6l-160 -243l-142 -218l-88 -140q-50 -82 -80 -141zM705 1536 q0 40 28 69t68 29t68 -29t28 -69t-28 -68t-68 -28t-68 28t-28 68zM358 1536q0 40 28.5 69t68.5 29t68 -29t28 -69t-28 -68t-68 -28t-68.5 28t-28.5 68z" />
<glyph unicode="&#x2c6;" horiz-adv-x="714" d="M416 1368q67 -109 207 -264l-43 -29q-142 105 -218 185q-95 -98 -219 -185l-41 29q149 165 211 264h103z" />
<glyph unicode="&#x2dc;" horiz-adv-x="598" d="M428 1266q36 0 58.5 22t43.5 84l50 -12q-37 -184 -179 -184q-52 0 -131 53q-72 45 -110 45q-39 0 -62.5 -23t-38.5 -75l-49 10q22 93 60.5 137.5t103.5 44.5q67 0 148 -57q59 -45 106 -45z" />
<glyph unicode="&#x2000;" horiz-adv-x="839" />
<glyph unicode="&#x2001;" horiz-adv-x="1679" />
<glyph unicode="&#x2002;" horiz-adv-x="839" />
<glyph unicode="&#x2003;" horiz-adv-x="1679" />
<glyph unicode="&#x2004;" horiz-adv-x="559" />
<glyph unicode="&#x2005;" horiz-adv-x="419" />
<glyph unicode="&#x2006;" horiz-adv-x="279" />
<glyph unicode="&#x2007;" horiz-adv-x="279" />
<glyph unicode="&#x2008;" horiz-adv-x="209" />
<glyph unicode="&#x2009;" horiz-adv-x="335" />
<glyph unicode="&#x200a;" horiz-adv-x="93" />
<glyph unicode="&#x2010;" horiz-adv-x="681" d="M561 483h-463q-13 0 -21.5 10.5t-8.5 24.5q0 25 16.5 50.5t34.5 25.5h469q28 0 28 -37q0 -19 -18 -46.5t-37 -27.5z" />
<glyph unicode="&#x2011;" horiz-adv-x="681" d="M561 483h-463q-13 0 -21.5 10.5t-8.5 24.5q0 25 16.5 50.5t34.5 25.5h469q28 0 28 -37q0 -19 -18 -46.5t-37 -27.5z" />
<glyph unicode="&#x2012;" horiz-adv-x="681" d="M561 483h-463q-13 0 -21.5 10.5t-8.5 24.5q0 25 16.5 50.5t34.5 25.5h469q28 0 28 -37q0 -19 -18 -46.5t-37 -27.5z" />
<glyph unicode="&#x2013;" horiz-adv-x="1093" d="M121 487q-29 0 -29 35q0 20 17.5 43t35.5 23h828q28 0 28 -35q0 -20 -17 -43t-36 -23h-827z" />
<glyph unicode="&#x2014;" horiz-adv-x="1519" d="M59 588h1401v-101h-1401v101z" />
<glyph unicode="&#x2018;" horiz-adv-x="548" d="M398 1143v-8q-15 -41 -39 -67t-70 -44h-8q-62 23 -96.5 72.5t-34.5 142.5q0 27 4 52t9 45q5 18 17 38l21 33q7 13 27 29l30 25q10 8 33.5 23.5t33.5 21.5l37 22q27 -23 27 -43q-81 -55 -120.5 -100t-39.5 -93q0 -23 10.5 -35.5t21.5 -15t28 -2.5q52 -11 74 -29t35 -67z " />
<glyph unicode="&#x2019;" horiz-adv-x="548" d="M150 1325v8q15 41 39.5 67t70.5 44h8q62 -23 96 -72.5t35 -142.5q0 -35 -7 -66t-15 -53t-28 -45.5t-32 -36t-41 -32.5t-42 -28t-48 -28q-26 22 -26 43q81 55 120 100t39 93q0 18 -5 29.5t-15 16t-18.5 6t-20.5 1.5q-52 11 -74.5 29t-35.5 67z" />
<glyph unicode="&#x201a;" horiz-adv-x="548" d="M150 90v8q15 41 39.5 67t70.5 44h8q62 -23 96 -72.5t35 -142.5q0 -35 -7 -66t-15 -53t-28 -45.5t-32 -36t-41 -32.5t-42 -28t-48 -28q-26 22 -26 43q81 55 120 100t39 93q0 18 -5 29.5t-15 16t-18.5 6t-20.5 1.5q-52 11 -74.5 29t-35.5 67z" />
<glyph unicode="&#x201c;" horiz-adv-x="788" d="M348 1145v-8q-15 -41 -39.5 -67t-70.5 -44h-9q-62 23 -96.5 72.5t-34.5 142.5q0 35 7 66t15 53t28 45.5t32 36t41 32.5t42 28t48 28q27 -23 27 -43q-81 -55 -120.5 -100t-39.5 -93q0 -23 10.5 -35.5t21.5 -15t28 -2.5q52 -11 74.5 -29t35.5 -67zM690 1145v-8 q-15 -41 -39.5 -67t-70.5 -44h-9q-62 23 -96.5 72.5t-34.5 142.5q0 35 7 66t15 53t28 45.5t32 36t41 32.5t42 28t48 28q27 -23 27 -43q-81 -55 -120.5 -100t-39.5 -93q0 -23 10.5 -35.5t21.5 -15t28 -2.5q52 -11 74.5 -29t35.5 -67z" />
<glyph unicode="&#x201d;" horiz-adv-x="788" d="M442 1325v8q14 41 39.5 67t71.5 44h8q62 -23 96.5 -72.5t34.5 -142.5q0 -35 -7 -66t-15 -53t-28 -45.5t-32 -36t-41 -32.5t-42 -28t-48 -28q-26 22 -26 43q81 55 120 100t39 93q0 18 -5 29.5t-15 16t-18.5 6t-20.5 1.5q-52 11 -75 29t-36 67zM100 1325v8q14 41 39.5 67 t71.5 44h8q62 -23 96.5 -72.5t34.5 -142.5q0 -35 -7 -66t-15 -53t-28 -45.5t-32 -36t-41 -32.5t-42 -28t-48 -28q-26 22 -26 43q81 55 120 100t39 93q0 18 -5 29.5t-15 16t-18.5 6t-20.5 1.5q-52 11 -75 29t-36 67z" />
<glyph unicode="&#x201e;" horiz-adv-x="788" d="M442 88v8q14 41 39.5 67t71.5 44h8q62 -23 96.5 -72.5t34.5 -142.5q0 -35 -7 -66t-15 -53t-28 -45.5t-32 -36t-41 -32.5t-42 -28t-48 -28q-26 22 -26 43q81 55 120 100t39 93q0 18 -5 29.5t-15 16t-18.5 6t-20.5 1.5q-52 11 -75 29t-36 67zM100 88v8q14 41 39.5 67 t71.5 44h8q62 -23 96.5 -72.5t34.5 -142.5q0 -35 -7 -66t-15 -53t-28 -45.5t-32 -36t-41 -32.5t-42 -28t-48 -28q-26 22 -26 43q81 55 120 100t39 93q0 18 -5 29.5t-15 16t-18.5 6t-20.5 1.5q-52 11 -75 29t-36 67z" />
<glyph unicode="&#x2022;" horiz-adv-x="718" d="M127 471q0 97 68 165.5t165 68.5t165.5 -68.5t68.5 -165.5t-68.5 -165t-165.5 -68t-165 68t-68 165z" />
<glyph unicode="&#x2026;" horiz-adv-x="1533" d="M1194 90v8q14 41 39.5 67t71.5 44h8q45 -17 70.5 -42.5t39.5 -68.5v-8q-16 -49 -41 -74t-69 -36h-8q-48 11 -73 35t-38 75zM653 90v8q14 41 39.5 67t71.5 44h8q45 -17 71 -42.5t40 -68.5v-8q-16 -49 -41.5 -74t-69.5 -36h-8q-48 11 -73 35t-38 75zM111 90v8 q15 41 39.5 67t70.5 44h8q45 -17 71 -42.5t40 -68.5v-8q-16 -49 -41.5 -74t-69.5 -36h-8q-48 11 -72.5 35t-37.5 75z" />
<glyph unicode="&#x202f;" horiz-adv-x="335" />
<glyph unicode="&#x2039;" horiz-adv-x="727" d="M590 881v-111q-148 -209 -287 -330q133 -107 287 -327v-111q-247 287 -451 399v80q213 147 451 400z" />
<glyph unicode="&#x203a;" horiz-adv-x="727" d="M139 0v111q147 206 287 329q-132 106 -287 328v111q249 -289 451 -400v-80q-216 -149 -451 -399z" />
<glyph unicode="&#x205f;" horiz-adv-x="419" />
<glyph unicode="&#x20ac;" d="M31 674l2 22l43 54h42q32 236 160 375t318 139q61 0 114.5 -9.5t86.5 -23t57.5 -27.5t34.5 -24l10 -9l4 -8q-6 -24 -16 -58.5t-13 -46.5t-6.5 -38.5t-5.5 -65.5l-22 -2q-30 71 -51 108.5t-52 67t-70.5 39t-101.5 9.5q-93 0 -170.5 -108.5t-96.5 -317.5h490l-38 -76h-457 v-43q0 -46 1 -68h419l-39 -76h-374q9 -87 29.5 -159t54 -129.5t84.5 -90t116 -32.5q48 0 81 6.5t58 18.5t48 40.5t41.5 60t47.5 89.5l23 -2q2 -39 5.5 -66t6 -38.5t13 -47.5t16.5 -59l-4 -6q-5 -4 -14.5 -10.5t-40.5 -22.5t-64.5 -28.5t-84.5 -23t-102 -10.5q-116 0 -207 38 t-151 107t-95 160.5t-47 204.5h-114v21l43 55h66v39q0 26 2 72h-80z" />
<glyph unicode="&#x2122;" horiz-adv-x="1628" d="M1380 705l-34 403l-203 -498q-7 -20 -33 -20q-24 0 -35 20l-205 488q-16 -263 -28 -396v-12q0 -47 14 -47h31q35 0 35 -14v-17l-7 -12q-79 4 -124 4l-97 -4l-10 12v17q0 14 37 14h29q13 0 22 62q6 85 20.5 269.5t20.5 274.5v6v5q0 34 -18 34h-33q-35 3 -35 13v16l10 12 h183l229 -542l219 542h168l6 -12v-16q0 -13 -35 -13h-30q-19 0 -19 -32v-13l47 -544q8 -62 25 -62h29q38 0 38 -14v-17l-12 -12q-90 4 -133 4l-135 -4l-12 12v17q0 14 34 14h29q12 0 12 47v15zM424 698q0 -25 13.5 -37t47.5 -12h29q10 0 10 -10v-27l-2 -2q-129 2 -170 2 l-168 -2l-2 2v27q0 10 11 10h28q34 0 49 11t15 38v543q0 24 -6.5 32.5t-22.5 8.5h-104q-33 0 -48 -18.5t-32 -85.5l-45 12l39 184l49 -16q-1 -2 -2 -8t-2 -10.5t-2 -4.5h477q-1 0 -2 4.5t-2 10.5t-2 8l51 16l39 -186l-47 -10q-18 68 -33 86t-49 18h-88q-17 0 -23 -8.5 t-6 -34.5v-541z" />
<glyph unicode="&#xe000;" horiz-adv-x="885" d="M0 885h885v-885h-885v885z" />
<glyph unicode="&#xfb01;" horiz-adv-x="1179" d="M315 1272q55 75 137 115t179 40q63 0 92 -18l2 -6q-25 -42 -57 -168l-23 -2q-40 72 -119 72q-83 0 -126.5 -60t-43.5 -151q0 -14 5.5 -84.5t5.5 -112.5v-18h221q16 0 16 -13v-51q0 -12 -15.5 -19.5t-31.5 -7.5h-190v-380q0 -272 20 -410l-4 -6q-28 6 -98 6q-32 0 -57 -2 q-26 0 -35 -2l-9 -2l-2 6q21 136 21 410v380h-135q-11 0 -11 13v37q0 15 11 28t36 13h99v79q0 77 14.5 133t33.5 88.5t64 92.5zM815 481q0 251 -20 361l4 6q23 2 44 6t42 10l32 10l35 13l29 12q18 0 18 -20q-20 -156 -20 -365v-145q0 -223 20 -369l-4 -6q-28 6 -98 6 q-32 0 -57 -2q-25 0 -34 -2l-9 -2l-2 6q20 139 20 369v112zM795 1223q0 41 31.5 72.5t72.5 31.5t73 -31.5t32 -72.5t-32 -73t-73 -32t-72.5 32t-31.5 73z" />
<glyph unicode="&#xfb02;" horiz-adv-x="1163" d="M315 1272q55 75 137 115t179 40q63 0 92 -18l2 -6q-25 -42 -57 -168l-23 -2q-40 72 -119 72q-83 0 -126.5 -60t-43.5 -151q0 -14 5.5 -84.5t5.5 -112.5v-18h221q16 0 16 -13v-51q0 -12 -15.5 -19.5t-31.5 -7.5h-190v-380q0 -272 20 -410l-4 -6q-28 6 -98 6q-32 0 -57 -2 q-26 0 -35 -2l-9 -2l-2 6q21 136 21 410v380h-135q-11 0 -11 13v37q0 15 11 28t36 13h99v79q0 77 14.5 133t33.5 88.5t64 92.5zM815 410v577q0 276 -20 385l4 6q29 2 58.5 9t42 11t45.5 17.5t36 14.5q18 0 18 -21q-20 -157 -20 -385v-614q0 -272 20 -410l-4 -6q-28 6 -98 6 q-32 0 -57 -2q-25 0 -34 -2l-9 -2l-2 6q20 129 20 410z" />
<glyph unicode="&#xfb03;" horiz-adv-x="1728" d="M1364 481q0 245 -21 361l5 6q23 2 44 6t42 10l32 10l35 13l29 12q18 0 18 -20q-20 -156 -20 -365v-145q0 -223 20 -369l-4 -6q-28 6 -98 6q-32 0 -57 -2q-25 0 -34 -2l-9 -2l-3 6q21 146 21 369v112zM1343 1223q0 41 32 72.5t73 31.5t72.5 -31.5t31.5 -72.5t-31.5 -73 t-72.5 -32t-73 32t-32 73zM872 1274q56 75 137.5 115.5t178.5 40.5q62 0 92 -19l2 -6q-25 -42 -57 -168l-23 -2q-40 72 -119 72q-83 0 -126.5 -60t-43.5 -151q0 -17 5.5 -93t5.5 -104v-20h221q16 0 16 -13v-51q0 -12 -15.5 -19.5t-31.5 -7.5h-190v-378q0 -272 20 -410l-4 -6 q-28 6 -98 6q-32 0 -57 -2q-25 0 -35 -2l-9 -2l-2 6q21 136 21 410v378h-215h-43h-148v-378q0 -265 21 -410l-4 -6q-29 6 -99 6q-32 0 -57 -2q-25 0 -34 -2l-9 -2l-2 6q20 129 20 410v378h-135q-10 0 -10 13v37q0 15 11 28t36 13h98v82q0 59 6 100.5t24 80t33 62t50 70.5 q56 75 137 115.5t178 40.5q63 0 93 -19l2 -6q-27 -45 -58 -168l-22 -2q-40 72 -119 72q-83 0 -126.5 -60t-43.5 -151q0 -17 5 -93t5 -104v-20h185h36h185v82q0 110 23.5 168t88.5 145z" />
<glyph unicode="&#xfb04;" horiz-adv-x="1794" d="M1384 410v577q0 276 -20 385l4 6q29 2 58.5 9t42 11t45.5 17.5t36 14.5q19 0 19 -21q-21 -165 -21 -385v-614q0 -265 21 -410l-4 -6q-29 6 -99 6q-32 0 -57 -2q-25 0 -34 -2l-9 -2l-2 6q20 129 20 410zM872 1274q56 75 137.5 115.5t178.5 40.5q62 0 92 -19l2 -6 q-25 -42 -57 -168l-23 -2q-40 72 -119 72q-83 0 -126.5 -60t-43.5 -151q0 -17 5.5 -93t5.5 -104v-20h221q16 0 16 -13v-51q0 -12 -15.5 -19.5t-31.5 -7.5h-190v-378q0 -272 20 -410l-4 -6q-28 6 -98 6q-32 0 -57 -2q-25 0 -35 -2l-9 -2l-2 6q21 136 21 410v378h-215h-43 h-148v-378q0 -265 21 -410l-4 -6q-29 6 -99 6q-32 0 -57 -2q-25 0 -34 -2l-9 -2l-2 6q20 129 20 410v378h-135q-10 0 -10 13v37q0 15 11 28t36 13h98v82q0 59 6 100.5t24 80t33 62t50 70.5q56 75 137 115.5t178 40.5q63 0 93 -19l2 -6q-27 -45 -58 -168l-22 -2 q-40 72 -119 72q-83 0 -126.5 -60t-43.5 -151q0 -17 5 -93t5 -104v-20h185h36h185v82q0 110 23.5 168t88.5 145z" />
</font>
</defs>
</svg>
