<?xml version="1.0" standalone="no"?>
<!DOCTYPE svg PUBLIC "-//W3C//DTD SVG 1.1//EN" "http://www.w3.org/Graphics/SVG/1.1/DTD/svg11.dtd" >
<svg xmlns="http://www.w3.org/2000/svg">
<metadata>
This is a custom SVG webfont generated by Font Squirrel.
Copyright   : Linux Libertine by Philipp H Poll Open Font under Terms of following Free Software LicensesGPL General Public License with fontexception and OFL Open Font LicenseCreated with FontForge httpfontforgesfnet Sept 2003 2004 2005 2006 2007 2008
Designer    : Philipp H Poll
Foundry     : Philipp H Poll
Foundry URL : httplinuxlibertinesfnet
</metadata>
<defs>
<font id="webfontrUOsQ7fm" horiz-adv-x="1034" >
<font-face units-per-em="2048" ascent="1638" descent="-410" />
<missing-glyph horiz-adv-x="512" />
<glyph unicode=" "  horiz-adv-x="512" />
<glyph unicode="&#x09;" horiz-adv-x="512" />
<glyph unicode="&#xa0;" horiz-adv-x="512" />
<glyph unicode="!" horiz-adv-x="512" d="M131 98v11q20 48 48.5 77t80.5 50h8q52 -19 81 -47.5t48 -79.5v-11q-20 -57 -49 -86t-80 -41h-8q-57 12 -85.5 40t-43.5 87zM250 1348q51 0 89 -39t38 -111q0 -75 -26 -203.5t-34 -191.5q-12 -97 -19.5 -183.5t-10.5 -134t-4 -55.5q-4 -41 -33 -41q-26 0 -31 27 q-1 8 -6.5 77.5t-13 154t-15.5 155.5q-8 66 -31.5 190t-23.5 205q0 75 38 112.5t83 37.5z" />
<glyph unicode="&#x22;" horiz-adv-x="768" d="M221 862l-31 8q-65 328 -65 340q0 40 36 75.5t97 35.5q31 0 50.5 -6t28 -18.5t11 -23.5t2.5 -28q0 -15 -19 -107l-38 -178l-19 -86zM514 864l-31 8q-65 328 -65 340q0 40 36 75.5t97 35.5q31 0 50.5 -6t28 -18.5t11 -23.5t2.5 -28q0 -15 -19 -107l-38 -178l-19 -85z" />
<glyph unicode="#" horiz-adv-x="978" d="M700 690l-32 -205h209l-17 -114h-209l-55 -344h-119l55 344h-165l-27 -166l-31 -178h-123l54 344h-191l17 114h192q27 163 33 205h-193l19 117h192l56 342h124l-57 -342h168l53 342h119l-53 -342h207l-17 -117h-209zM549 485l33 205h-164l-35 -205h166z" />
<glyph unicode="$" horiz-adv-x="1024" d="M549 485v-401q143 33 143 184q0 93 -35.5 139t-107.5 78zM459 711v367q-70 -11 -110 -54t-40 -113q0 -128 150 -200zM459 76v445q-58 23 -100 42.5t-95.5 52.5t-87 66.5t-57 81t-23.5 100.5q0 89 56 157t135.5 102.5t171.5 44.5v116h90v-113q88 -3 162.5 -23t105.5 -38 l31 -18l4 -7q-22 -72 -35 -211l-18 -2q-33 75 -101.5 132.5t-148.5 72.5v-402q57 -20 98 -37.5t97 -49.5t91.5 -65.5t61 -83.5t25.5 -107q0 -133 -108 -227t-265 -118v-153h-90v146h-4q-56 0 -114.5 8.5t-101.5 20t-78 23.5t-53 20l-18 9l-4 7q19 71 37 215l16 2 q36 -79 133.5 -141.5t186.5 -67.5z" />
<glyph unicode="%" horiz-adv-x="1304" d="M250 803q0 -58 19 -92.5t48 -34.5q45 0 86.5 48.5t65 116.5t23.5 128q0 67 -22.5 90.5t-57.5 23.5q-47 0 -85.5 -46t-57.5 -109t-19 -125zM745 1063q213 0 308 102l96 -43l-842 -1155l-110 25l749 1026q-114 -47 -221 -47q-34 0 -78 12.5t-74 30.5q7 -28 7 -43 q0 -88 -33 -170t-100 -137.5t-152 -55.5q-93 0 -139.5 58.5t-46.5 164.5q0 134 78.5 230t201.5 96q43 0 82.5 -12t54.5 -31q111 -51 219 -51zM768 186q0 84 31.5 157t97 121t152.5 48q188 0 188 -186q0 -155 -76 -260t-196 -105q-93 0 -145 61.5t-52 163.5zM907 158 q0 -59 20 -94t50 -35q50 0 91.5 50.5t62 117t20.5 125.5q0 116 -80 116q-42 0 -81 -45.5t-61 -110.5t-22 -124z" />
<glyph unicode="&#x26;" horiz-adv-x="1492" d="M924 428q149 231 176 457q20 -6 110 -6q97 0 117 6q-31 -52 -163 -289.5t-158 -276.5l24 -41l27 -42l25 -40q16 -24 27.5 -37.5t26 -27.5t28 -20.5t26.5 -6.5q46 0 77 24t68 95l66 -47q-35 -63 -68 -103.5t-66.5 -60t-62 -26t-67.5 -6.5q-74 0 -127.5 36.5t-126.5 143.5 q-51 -57 -98.5 -93.5t-119.5 -61.5t-159 -25q-94 0 -170 18.5t-134 57t-90 102.5t-32 149q0 117 83.5 212.5t311.5 225.5q-65 100 -96 176.5t-31 145.5q0 47 24.5 94.5t69 87.5t115 65t154.5 25q142 0 217.5 -61t75.5 -178q0 -77 -84.5 -169t-219.5 -169q66 -114 224 -334z M811 250q-214 285 -293 409q-112 -71 -154 -141.5t-42 -169.5q0 -129 60 -207t142 -78q83 0 149 43t138 144zM553 1071q0 -34 23 -94.5t61 -116.5l67 54q22 18 52.5 49.5t43.5 59t13 56.5q0 84 -31.5 130t-91.5 46q-56 0 -96.5 -47t-40.5 -137z" />
<glyph unicode="'" horiz-adv-x="440" d="M201 862l-31 8q-66 328 -66 340q0 40 36.5 75.5t97.5 35.5q31 0 50.5 -6t28 -18.5t11 -23.5t2.5 -28q0 -15 -19 -107l-38 -178l-19 -86z" />
<glyph unicode="(" horiz-adv-x="692" d="M90 516q0 248 138.5 506t334.5 426l66 -57q-31 -35 -57 -68.5t-73 -116t-79 -171.5t-57 -228t-25 -291q0 -544 291 -878l-66 -56q-112 96 -199 209t-137 213t-82.5 202.5t-43.5 175.5t-11 134z" />
<glyph unicode=")" horiz-adv-x="692" d="M602 516q0 -248 -138.5 -506t-334.5 -426l-66 58q291 326 291 874q0 545 -291 879l66 55q112 -96 199 -209t137 -213t82.5 -202.5t43.5 -175.5t11 -134z" />
<glyph unicode="*" horiz-adv-x="886" d="M403 1159q-8 1 -27 5t-27.5 5t-29.5 0q-47 -7 -83.5 -8t-59 19.5t-22.5 64.5q0 26 16.5 46t50.5 20q30 0 58.5 -17.5t65 -46t71.5 -43.5q-4 43 -33 102.5t-29 84.5q0 31 24.5 55t53.5 24q31 0 56.5 -18.5t25.5 -52.5q0 -28 -24.5 -96.5t-26.5 -98.5q30 13 57.5 33.5 t43 37t37 28.5t44.5 12q41 0 60.5 -24t19.5 -46q0 -43 -40 -62.5t-101 -19.5q-74 0 -111 -6q25 -27 73 -52t74.5 -50.5t27.5 -71.5q0 -26 -21 -42.5t-45 -16.5q-45 0 -68.5 31.5t-42 90t-35.5 84.5q-13 -23 -22.5 -56t-15.5 -57t-16.5 -46.5t-32.5 -34.5t-56 -12 q-26 0 -43 16.5t-17 40.5q0 31 11 53t30 35.5t39.5 24.5t46 27.5t43.5 37.5z" />
<glyph unicode="+" horiz-adv-x="1064" d="M594 537h348v-123h-348v-348h-123v348h-348v123h348v350h123v-350z" />
<glyph unicode="," horiz-adv-x="503" d="M111 104v11q15 46 44.5 76t82.5 51h10q71 -26 110 -82.5t39 -163.5q0 -119 -85 -207.5t-197 -110.5q-10 9 -13.5 34t2.5 44q84 23 132.5 77.5t48.5 98.5q0 40 -10.5 52t-36.5 12q-60 11 -87 32t-40 76z" />
<glyph unicode="-" horiz-adv-x="712" d="M575 453h-462q-13 0 -22 15t-9 30q0 28 17 66t34 38h469q14 0 21.5 -15.5t7.5 -31.5q0 -22 -19 -62t-37 -40z" />
<glyph unicode="." horiz-adv-x="503" d="M123 98v11q20 48 48.5 77t80.5 50h8q52 -19 81 -47.5t48 -79.5v-11q-20 -57 -49 -86t-80 -41h-8q-57 12 -85.5 40t-43.5 87z" />
<glyph unicode="/" horiz-adv-x="700" d="M639 1323l-485 -1444h-123l485 1444h123z" />
<glyph unicode="0" d="M508 -20q-106 0 -189 50t-134.5 136.5t-78 197t-26.5 236.5q0 146 37.5 270.5t98.5 206t139 127t161 45.5t159.5 -42.5t136.5 -120.5t96 -198.5t36 -266.5q0 -139 -26 -250t-68.5 -183t-100 -120t-117.5 -68t-124 -20zM516 1159q-31 0 -56 -11.5t-52 -48t-45 -97.5 t-29.5 -168.5t-11.5 -253.5q0 -64 3 -122.5t15 -133t31 -127.5t55 -90t84 -37q41 0 73.5 28t53 79t34 108.5t20 129t9 127.5t2.5 117q0 55 -1 98t-5.5 97t-12.5 95t-22 82.5t-33 68t-47.5 43t-64.5 16.5z" />
<glyph unicode="1" d="M735 387q0 -216 25 -387l-4 -6q-70 6 -144 6l-139 -6l-2 6q23 147 23 387v500q0 68 -6.5 100.5t-30.5 32.5q-134 0 -224 -12l-4 88q67 15 148.5 38t123.5 36l139 45q96 32 103 34q15 0 15 -10q0 -3 -3 -19.5t-5 -31t-5 -44t-5 -61t-3.5 -79t-1.5 -99.5v-518z" />
<glyph unicode="2" d="M463 1139q-160 0 -258 -174l-49 2l-43 161l6 9q44 38 151 75t209 37q126 0 222 -33.5t155 -107t59 -180.5q0 -56 -12.5 -102t-44 -90.5t-58 -73t-81.5 -82.5l-205 -199q-43 -41 -90 -97.5t-47 -78.5h168q72 0 131 2t90 4t81 6t79 6q-13 -59 -13 -135q0 -38 13 -96 q-205 8 -357 8q-109 0 -489 -8l-2 8q0 86 59 169.5t223 250.5l152 149q82 84 104.5 162.5t22.5 198.5q0 89 -57.5 149t-118.5 60z" />
<glyph unicode="3" d="M436 84q33 0 66.5 11t71 38t61.5 86t24 143q0 70 -18 119t-51 74.5t-70.5 36t-85.5 10.5q-55 0 -80 -4v94q148 7 215.5 70.5t67.5 191.5q0 81 -43.5 135t-104.5 54q-53 0 -91 -10t-67.5 -35.5t-50 -54t-49.5 -80.5l-49 2l-43 161l6 9q45 40 150.5 77t212.5 37 q74 0 137.5 -14.5t117 -44t84 -81.5t30.5 -122q0 -126 -64 -204.5t-180 -108.5v-6q60 -5 112 -25t96 -55t69.5 -91.5t25.5 -127.5q0 -83 -29 -150t-77.5 -111.5t-114 -74.5t-136.5 -43t-147 -13q-105 0 -193 36t-137 79l-8 10l45 162l49 2q53 -94 74 -119q48 -55 137 -62 q17 -1 37 -1z" />
<glyph unicode="4" d="M575 1026l-372 -590h372v590zM575 303h-417q-83 0 -96 5q-16 6 -19 22l-1 3q0 3 -0.5 8t-1 11.5t1 14.5t4 17t7.5 19.5t13 20.5q87 117 260 384t266 423l2 6q24 -6 100 -6l137 6l5 -6q-2 -12 -5 -37l-4 -33l-3 -27q-2 -20 -3 -28t-2.5 -26t-1.5 -30.5t-1 -33t-1 -42.5 v-48v-490h148q28 0 28 -41q0 -22 -18.5 -57t-38.5 -35h-119q0 -30 0.5 -54.5t0.5 -42t1.5 -38.5t2 -29.5t3 -31.5t3.5 -29.5t5 -37t5 -40.5l-5 -6q-63 6 -137 6l-141 -6l-2 6q2 17 7 51t6.5 45.5t4.5 38t3.5 46.5t1.5 51.5t1 70.5z" />
<glyph unicode="5" d="M455 -23q-105 0 -194.5 36t-137.5 79l-6 10l43 162l49 2q55 -98 109.5 -142t140.5 -44q78 0 136 72.5t58 212.5q0 137 -51.5 214.5t-144.5 77.5q-70 0 -112.5 -10t-111.5 -39l-45 15l68 616q144 -12 229 -12q165 0 379 22l13 -6l-31 -203q-126 -12 -256 -12 q-98 0 -238 16l-30 -299q93 33 188 33q168 0 280.5 -112t112.5 -265q0 -129 -61 -227t-162 -147.5t-225 -49.5z" />
<glyph unicode="6" d="M332 586q-4 -50 -4 -94q0 -105 12 -182.5t30.5 -122t47.5 -71.5t57 -35.5t64 -8.5q61 0 106 71t45 211q0 30 -0.5 48.5t-4.5 52.5t-10.5 56t-21 49.5t-34.5 43.5t-51.5 27.5t-71.5 11.5q-94 0 -164 -57zM346 684q80 55 193 55q114 0 197 -33.5t127 -89.5t63.5 -117.5 t19.5 -129.5q0 -67 -24 -133t-72 -124.5t-131.5 -95t-190.5 -36.5q-157 0 -256 65q-194 125 -194 453q0 96 30.5 197.5t96 201t158 177.5t227.5 126.5t293 48.5l6 -75q-33 -3 -50.5 -5t-60 -9.5t-70 -17.5t-71 -29t-74.5 -43t-68 -61.5t-63 -82.5t-49.5 -107t-36.5 -135z " />
<glyph unicode="7" d="M727 1047q-172 0 -565 -21q10 78 10 111q0 27 -10 104q100 -14 614 -14q69 0 131 16l29 -41q-290 -705 -463 -1220l-180 -9l-6 15q143 324 440 1059z" />
<glyph unicode="8" d="M508 61q37 0 65 5t56.5 19.5t47.5 39t30.5 66t11.5 98.5q0 87 -35 140t-131 112l-94 57q-88 -62 -116 -134t-28 -165q0 -107 59.5 -172.5t133.5 -65.5zM891 991q0 -95 -62.5 -158.5t-193.5 -115.5l127 -82q84 -55 138 -137t54 -168q0 -183 -163 -285q-107 -65 -287 -65 q-115 0 -208.5 35.5t-152.5 109t-59 174.5q0 111 76 192t225 156l-37 21q-196 122 -196 290q0 134 96.5 212.5t286.5 78.5q171 0 263.5 -69t92.5 -189zM522 1167q-80 0 -115.5 -46.5t-35.5 -123.5q0 -50 32 -101t95 -91l61 -39q34 25 56 48t41.5 66t19.5 95q0 83 -35 137.5 t-119 54.5z" />
<glyph unicode="9" d="M717 641q4 50 4 94q0 105 -12 182.5t-30.5 122t-47.5 71.5t-57 35.5t-64 8.5q-61 0 -106.5 -71.5t-45.5 -211.5q0 -30 0.5 -49t4.5 -52.5t11 -55.5t21.5 -49t34.5 -43.5t51.5 -27.5t71.5 -11q94 0 164 57zM702 543q-82 -56 -192 -56q-92 0 -164.5 23t-117.5 59t-74 86 t-40.5 99.5t-11.5 103.5q0 67 24 133t72 124.5t131.5 95t190.5 36.5q157 0 256 -65q195 -125 195 -453q0 -96 -30.5 -197.5t-96 -201.5t-158 -178t-227.5 -126.5t-293 -48.5l-6 76q148 14 239 55q244 109 303 435z" />
<glyph unicode=":" horiz-adv-x="503" d="M137 199v10q20 48 48.5 77t80.5 50h8q52 -19 81 -47.5t48 -79.5v-10q-20 -57 -49 -86t-80 -41h-8q-57 12 -85.5 40t-43.5 87zM137 737v11q19 47 48 76t81 50h8q53 -19 81.5 -47t47.5 -79v-11q-20 -57 -49 -86t-80 -41h-8q-57 12 -85.5 40t-43.5 87z" />
<glyph unicode=";" horiz-adv-x="503" d="M111 104v11q15 46 44.5 76t82.5 51h10q71 -26 110 -82.5t39 -163.5q0 -119 -85 -207.5t-197 -110.5q-10 9 -13.5 34t2.5 44q84 23 132.5 77.5t48.5 98.5q0 40 -10.5 52t-36.5 12q-60 11 -87 32t-40 76zM117 737v11q19 47 48 76t81 50h8q53 -19 81.5 -47t47.5 -79v-11 q-20 -57 -49 -86t-80 -41h-8q-57 12 -85.5 40t-43.5 87z" />
<glyph unicode="&#x3c;" horiz-adv-x="1048" d="M313 492l652 -238v-127l-879 319v91l879 319v-127z" />
<glyph unicode="=" horiz-adv-x="1128" d="M1010 668v-123h-889v123h889zM1010 406v-123h-889v123h889z" />
<glyph unicode="&#x3e;" horiz-adv-x="1048" d="M735 487l-649 238v127l879 -322v-90l-879 -317v127z" />
<glyph unicode="?" horiz-adv-x="868" d="M244 98v11q20 48 48.5 77t80.5 50h8q52 -19 81 -47.5t48 -79.5v-11q-20 -57 -49 -86t-80 -41h-8q-57 12 -85.5 40t-43.5 87zM399 1249q-141 0 -252 -192l-26 2l-33 155l6 9q55 46 141 86.5t183 40.5q160 0 268.5 -86.5t108.5 -223.5q0 -39 -14 -76.5t-29.5 -62.5 t-50.5 -57.5t-51 -45.5q-16 -14 -60 -44l-51 -35q-27 -20 -45 -37.5t-38 -47t-30 -71.5t-10 -96v-80q0 -10 -17 -20.5t-30 -10.5t-30 10.5t-17 20.5v84q0 185 157 330q56 52 70 99t14 132q0 217 -164 217z" />
<glyph unicode="@" horiz-adv-x="2023" d="M1311 154q0 -19 8.5 -24t28.5 -5q24 0 60.5 16t78.5 52t78 85t60 123t24 158q0 130 -41.5 239.5t-106.5 181t-148 122t-164.5 72.5t-156.5 22q-96 0 -189.5 -30t-177 -91t-147 -146.5t-100.5 -204.5t-37 -257q0 -95 22.5 -191t75.5 -191.5t130 -168.5t195.5 -118.5 t262.5 -45.5q242 0 430 154q36 -11 43 -60q-75 -57 -136.5 -91t-158.5 -58.5t-217 -24.5q-241 0 -432 97t-299.5 275.5t-108.5 408.5q0 159 63 307t173.5 261.5t274 182t352.5 68.5q170 0 315 -52.5t245 -144t156 -217.5t56 -270q0 -141 -71 -268t-191 -204t-254 -77 q-96 0 -138.5 37.5t-42.5 79.5q-102 -95 -217 -95q-68 0 -118 20t-76.5 48t-42 67t-19.5 68t-4 60q0 108 43 207t111.5 168t156 110t175.5 41q129 0 192 -78l76 68l55 -23l-121 -528q-26 -115 -26 -135zM1241 655q0 53 -30.5 90t-69.5 37q-91 0 -166 -80 q-127 -137 -127 -366q0 -189 115 -189q53 0 117 63.5t102 184.5q59 201 59 260z" />
<glyph unicode="A" horiz-adv-x="1394" d="M410 449q-119 -292 -162 -455q-25 6 -92 6q-90 0 -115 -6l604 1354h143l198 -483l224 -550q95 -230 140 -321q-35 6 -166 6q-111 0 -146 -6q-49 178 -152 456q-201 3 -204 3q-116 0 -272 -4zM655 1024l-197 -459q18 0 99 -2t115 -2q55 0 171 2q-88 227 -188 461z" />
<glyph unicode="B" horiz-adv-x="1320" d="M342 1321q62 0 161 3t130 3q110 0 196 -20t139 -52t87.5 -74.5t47.5 -84.5t13 -86q0 -82 -54.5 -157.5t-135.5 -115.5q143 -41 227 -130.5t84 -229.5q0 -70 -31 -135t-94.5 -122t-175.5 -91.5t-258 -34.5q-97 0 -187 3t-149 3l-149 -6l-3 6q21 146 21 410v501 q0 256 -21 410l5 6q77 -6 147 -6zM461 659v-460q0 -53 37 -75t141 -22q81 0 137.5 10.5t90 28.5t51.5 49.5t24 64.5t6 83q0 74 -13 128.5t-45 100t-92 69t-147 23.5h-190zM461 1126v-358h160q131 0 181 44.5t50 172.5q0 76 -15 124.5t-45.5 71.5t-63 30.5t-81.5 7.5 q-82 0 -122.5 -10t-52 -28t-11.5 -55z" />
<glyph unicode="C" horiz-adv-x="1374" d="M791 1348q70 0 141.5 -9.5t124 -23t95 -27.5t64.5 -24l21 -9l4 -6q-32 -136 -41 -266l-20 -2q-62 124 -170 188t-248 64q-53 0 -105.5 -16.5t-105 -57.5t-92.5 -101.5t-65 -157t-25 -216.5q0 -89 14.5 -171.5t46.5 -158t78.5 -131t116.5 -88.5t155 -33q144 0 233.5 37 t203.5 146l49 -70q-123 -127 -251 -181t-274 -54q-128 0 -237.5 37.5t-187 101.5t-132.5 149t-81.5 181t-26.5 196q0 169 66.5 313t187.5 238q195 152 461 152z" />
<glyph unicode="D" horiz-adv-x="1538" d="M338 1321q75 0 190.5 3t190.5 3q145 0 279.5 -55.5t233.5 -149t158.5 -222.5t59.5 -269q0 -105 -23.5 -194t-63.5 -153t-95.5 -114.5t-117 -82.5t-131 -53t-134 -29.5t-129.5 -8.5q-111 0 -226.5 2t-191.5 2l-150 -6l-2 6q21 146 21 410v501q0 256 -21 410l4 6 q78 -6 148 -6zM461 186q0 -35 16.5 -51t64.5 -23.5t150 -7.5q94 0 159.5 10t126.5 39.5t97 81.5t57 138.5t21 208.5q0 73 -5 135t-19.5 129t-38 119.5t-62.5 101.5t-92 81.5t-128 51.5t-167 19q-88 0 -134 -16.5t-46 -65.5v-951z" />
<glyph unicode="E" horiz-adv-x="1155" d="M451 410q0 -225 16 -281q122 0 268.5 6.5t232.5 12.5l85 6l4 -9q-4 -32 -4 -71q0 -16 4 -74l-4 -6q-49 6 -123 6h-602l-150 -6l-2 6q21 146 21 410v501q0 256 -21 410l4 6q78 -6 148 -6h581q73 0 123 6l4 -6q-4 -58 -4 -72q0 -31 4 -63l-4 -8q-292 24 -565 24 q-16 -56 -16 -291v-159q222 0 464 20l7 -6q-7 -32 -7 -66q0 -36 7 -67l-7 -6q-201 20 -464 20v-237z" />
<glyph unicode="F" horiz-adv-x="1062" d="M907 1321q79 0 129 6l4 -6q-4 -58 -4 -72q0 -31 4 -63l-4 -8q-292 24 -565 24q-16 -56 -16 -291v-159q223 0 465 20l6 -6q-6 -27 -6 -66q0 -40 6 -67l-6 -6q-201 20 -465 20v-237q0 -264 20 -410l-4 -6q-69 6 -139 6l-150 -6l-2 6q21 146 21 410v501q0 256 -21 410l4 6 q78 -6 148 -6h575z" />
<glyph unicode="G" horiz-adv-x="1536" d="M1118 240q0 243 -20 389l4 6q77 -6 147 -6l150 6l2 -6q-21 -143 -21 -348q0 -85 21 -111v-6q-103 -86 -265.5 -135t-342.5 -49q-151 0 -284.5 52t-227 139.5t-147.5 207t-54 250.5q0 174 61 316t176 233q212 170 506 170q111 0 233.5 -23t189.5 -47l67 -23l4 -6 q-32 -136 -41 -266l-41 -2q-61 122 -179 187t-261 65q-203 0 -318 -155t-115 -408q0 -84 16.5 -164t54 -156t92 -132.5t136 -91t179.5 -34.5q95 0 162.5 16t115.5 62v70z" />
<glyph unicode="H" horiz-adv-x="1531" d="M1047 911q0 256 -21 410l4 6q74 -6 144 -6l145 6l2 -6q-21 -143 -21 -410v-501q0 -256 21 -410l-4 -6q-73 6 -143 6l-146 -6l-2 6q21 146 21 410v227h-582v-227q0 -264 20 -410l-4 -6q-73 6 -143 6l-145 -6l-3 6q21 146 21 410v501q0 256 -21 410l5 6q73 -6 143 -6l145 6 l2 -6q-20 -136 -20 -410v-168h582v168z" />
<glyph unicode="I" horiz-adv-x="677" d="M217 911q0 264 -20 410l4 6q73 -6 143 -6l145 6l3 -6q-21 -143 -21 -410v-501q0 -256 21 -410l-5 -6q-73 6 -143 6l-145 -6l-2 6q20 139 20 410v501z" />
<glyph unicode="J" horiz-adv-x="722" d="M287 195v716q0 256 -21 410l4 6q78 -6 148 -6l141 6l2 -6q-20 -136 -20 -410v-671q0 -64 -0.5 -93t-2.5 -74t-6.5 -67.5t-13 -55.5t-21.5 -56t-32 -51t-45 -58q-137 -156 -410 -156q-30 0 -65 6t-47 13l-2 6q10 17 20.5 53.5t22 89t14.5 64.5l43 2q52 -92 119 -92 q34 0 60.5 14.5t44.5 37.5t31 59t19.5 70t10.5 80.5t5 81.5t1 81z" />
<glyph unicode="K" horiz-adv-x="1472" d="M217 911q0 264 -20 410l4 6q73 -6 143 -6l145 6l3 -6q-21 -143 -21 -410v-196q27 3 45 18q63 55 139.5 135t126.5 138l145 168l132 153q27 -6 162 -6q112 0 145 6l-344 -316q-184 -175 -279 -286v-4l643 -727q-39 6 -167 6q-154 0 -189 -6l-190 242l-206 266 q-87 110 -124 147q-14 12 -39 14v-253q0 -256 21 -410l-5 -6q-73 6 -143 6l-145 -6l-2 6q20 139 20 410v501z" />
<glyph unicode="L" horiz-adv-x="1163" d="M465 410q0 -209 16 -265q122 0 268.5 6.5t232.5 12.5l85 6l4 -8q-4 -32 -4 -76q0 -28 4 -86l-4 -6q-49 6 -123 6h-602l-149 -6l-3 6q21 146 21 410v501q0 242 -23 410l5 6q71 -6 141 -6l149 6l2 -6q-20 -136 -20 -410v-501z" />
<glyph unicode="M" horiz-adv-x="1824" d="M313 1356h125q335 -696 491 -986l531 986h121l49 -444q33 -303 58 -510.5t53 -407.5q-31 6 -125 6q-90 0 -121 -6q-53 641 -93 974l-72 -132l-78 -143l-68 -128l-76 -145l-65 -130l-73 -150l-63 -140h-71l-110 226l-106 212l-122 238l-114 222l-40 -304 q-31 -233 -45.5 -372t-15.5 -228q-23 6 -99 6q-77 0 -100 -6q111 601 229 1362z" />
<glyph unicode="N" horiz-adv-x="1548" d="M207 911q0 256 -21 410l4 6q76 -6 146 -6l70 4l702 -909q16 -20 41 -54q43 -57 52 -60q8 -2 11 16q2 14 2 47v546q0 264 -20 410l-37 6q83 -6 133 -6q20 0 33.5 1.5t16.5 3.5l3 1l43 -6q-20 -136 -20 -410v-868q0 -27 -29 -45t-55 -18q-79 0 -127.5 25.5t-119.5 115.5 l-642 811q-17 22 -45 66q-2 3 -2 0q9 -67 10 -99v-489q0 -256 21 -410l-4 -6q-42 6 -92 6l-93 -6l-2 6q21 143 21 410v501z" />
<glyph unicode="O" horiz-adv-x="1595" d="M1489 674q0 -205 -81.5 -361.5t-239.5 -244.5t-373 -88q-201 0 -358 83t-244 232.5t-87 339.5q0 200 84 362t242 256.5t361 94.5q324 0 510 -183.5t186 -490.5zM766 1239q-78 0 -142 -29.5t-117 -93t-82.5 -177t-29.5 -269.5q0 -144 34 -256.5t94.5 -182.5t139.5 -106.5 t173 -36.5q177 0 270.5 137.5t93.5 409.5q0 315 -107 459.5t-327 144.5z" />
<glyph unicode="P" horiz-adv-x="1153" d="M190 911q0 264 -20 410l4 6q73 -6 143 -6q31 0 153 7t148 7q231 0 330 -69q78 -54 111 -128.5t33 -142.5q0 -55 -16.5 -111t-55.5 -112.5t-95.5 -100t-145 -71t-195.5 -27.5q-76 0 -144 21v-184q0 -256 21 -410l-4 -6q-70 6 -140 6l-145 -6l-2 6q20 139 20 410v501z M440 1157v-471q39 -20 162 -20q103 0 162 71.5t59 220.5q0 88 -16.5 147.5t-48.5 89t-68 41t-86 11.5q-71 0 -107.5 -11t-46.5 -28.5t-10 -50.5z" />
<glyph unicode="Q" horiz-adv-x="1595" d="M1003 3q-92 -23 -208 -23q-201 0 -358 83t-244 232.5t-87 339.5q0 200 84 362t242 256.5t361 94.5q324 0 510 -183.5t186 -490.5q0 -196 -75.5 -349t-217.5 -241q9 -5 50 -30l58 -34l59 -34q40 -22 69 -36l68 -33q40 -19 79 -34.5t80 -29.5v-13q-69 -36 -193 -135 q-101 57 -214 141.5t-249 156.5zM766 1239q-78 0 -142 -29.5t-117 -93t-82.5 -177t-29.5 -269.5q0 -144 34 -256.5t94.5 -182.5t139.5 -106.5t173 -36.5q177 0 270.5 137.5t93.5 409.5q0 315 -107 459.5t-327 144.5z" />
<glyph unicode="R" horiz-adv-x="1325" d="M461 594v-184q0 -264 20 -410l-4 -6q-73 6 -143 6l-141 -6l-3 6q21 146 21 410v501q0 256 -21 410l5 6q77 -6 147 -6q32 0 153.5 7t145.5 7q122 0 212 -13.5t155 -55.5q133 -87 133 -277q0 -277 -308 -358q50 -65 226 -314.5t235 -316.5l-4 -6q-41 6 -149 6 q-121 0 -160 -6q-31 96 -219 366q-105 150 -182 236q-41 -2 -119 -2zM643 1247q-102 0 -142 -25.5t-40 -74.5v-453h110q82 0 131 10t89 40.5t56.5 89t16.5 153.5q0 71 -11.5 120t-29.5 76t-49 42t-59 18.5t-72 3.5z" />
<glyph unicode="S" horiz-adv-x="1069" d="M512 86q104 0 158.5 57t54.5 166q0 118 -40.5 177.5t-137.5 97.5l-83 34q-35 14 -84 38.5t-83 47t-72 55t-61 66t-38 77t-15 91.5q0 158 126.5 256.5t305.5 98.5q70 0 133.5 -9.5t104 -23t71 -27.5t44.5 -24l13 -9l4 -6q-25 -83 -41 -235l-20 -2q-45 101 -133.5 168 t-194.5 67q-84 0 -130 -52t-46 -146q0 -49 16.5 -90t39 -67t57 -49t59.5 -34t58 -23q61 -22 109.5 -43t107 -57.5t97.5 -77t66 -100t27 -127.5q0 -80 -31 -151t-90 -127.5t-154.5 -89.5t-215.5 -33q-111 0 -214.5 23t-151.5 46l-48 23l-4 6q26 98 41 239l20 2 q43 -95 154 -164t221 -69z" />
<glyph unicode="T" horiz-adv-x="1191" d="M469 893q0 233 -16 289q-122 0 -226.5 -6t-148.5 -12l-43 -7l-4 8q3 28 3 66.5t-3 89.5l4 6q49 -6 123 -6h876q74 0 123 6l4 -6q-4 -50 -3.5 -89.5t3.5 -66.5l-4 -8q-145 25 -418 25q-16 -56 -16 -289v-483q0 -264 20 -410l-4 -6q-73 6 -143 6l-145 -6l-2 6 q20 139 20 410v483z" />
<glyph unicode="U" horiz-adv-x="1431" d="M1079 911q0 264 -20 410l4 6q54 -6 104 -6l105 6l2 -6q-21 -143 -21 -410v-307q0 -301 -134 -462.5t-427 -161.5q-71 0 -136.5 11.5t-137 45.5t-123 87.5t-85.5 146t-34 212.5v428q0 264 -20 410l4 6q69 -6 139 -6l150 6l2 -6q-21 -143 -21 -410v-360q0 -33 0.5 -56.5 t3.5 -62t9 -67t16.5 -64.5t26 -62.5t38.5 -53.5t52.5 -44.5t70 -28t88.5 -10.5q90 0 155.5 27.5t101 69t56 107.5t26 123.5t5.5 137.5v344z" />
<glyph unicode="V" horiz-adv-x="1335" d="M705 366l151 350q57 136 126 318t99 293q25 -6 146 -6q46 0 71 6l-604 -1347h-100l-196 480l-226 548q-94 227 -139 319q35 -6 166 -6q120 0 155 6q112 -394 351 -961z" />
<glyph unicode="W" horiz-adv-x="2033" d="M1403 366l151 350q57 134 127 317t99 294q25 -6 104 -6q88 0 113 6l-604 -1347h-101l-265 646l-290 -646h-143l-196 480l-226 548q-94 227 -139 319q35 -6 166 -6q110 0 145 6q117 -409 384 -1030l222 520q-163 396 -219 510q35 -6 166 -6q121 0 156 6q109 -389 350 -961 z" />
<glyph unicode="X" horiz-adv-x="1255" d="M1200 -6q-37 6 -162 6q-124 0 -161 -6q-151 290 -295 534q-182 -280 -320 -534q-23 6 -86 6q-106 0 -129 -6l455 668l-424 665q35 -6 158 -6q122 0 159 6q67 -138 257 -448q103 150 155.5 234t122.5 214q23 -6 129 -6q63 0 86 6l-414 -576z" />
<glyph unicode="Y" horiz-adv-x="1296" d="M771 585q5 -463 15 -591q-33 6 -149 6q-115 0 -148 -6q15 142 15 569l-240 395q-174 283 -231 369q35 -6 160 -6q124 0 159 6l82 -155l78 -138l92 -154l87 -148q203 322 335 595q25 -6 129 -6q59 0 86 6l-160 -243l-142 -218l-88 -140q-50 -82 -80 -141z" />
<glyph unicode="Z" horiz-adv-x="1280" d="M385 129q119 0 324 5.5t350 11.5l145 6l4 -7q-4 -32 -4 -67q0 -20 4 -78l-4 -6q-50 6 -145 6h-785l-264 -6l-6 8q13 17 31.5 44t21.5 32l802 1115l-736 -24l-4 7q4 32 4 67q0 20 -4 78l4 6q49 -6 125 -6h706q49 0 141 4t117 8q13 0 13 -12q0 -25 -62 -111 q-767 -1061 -774 -1073q-4 -6 -4 -8z" />
<glyph unicode="[" horiz-adv-x="796" d="M225 -393v1833h498v-80q-74 -5 -120.5 -11t-82 -18.5t-53.5 -26t-29 -41t-13.5 -55.5t-2.5 -78v-1214q0 -50 2.5 -78t13.5 -55.5t28 -40.5t53.5 -26t82.5 -19t121 -12v-78h-498z" />
<glyph unicode="\" horiz-adv-x="641" d="M166 1430l471 -1528h-143l-471 1528h143z" />
<glyph unicode="]" horiz-adv-x="796" d="M571 1440v-1833h-497v80q74 5 120.5 11t82.5 18.5t53.5 25.5t28.5 40.5t13.5 55.5t2.5 78v1214q0 50 -2.5 78t-13 55.5t-28.5 41t-54 26t-82.5 19t-120.5 12.5v78h497z" />
<glyph unicode="^" horiz-adv-x="1060" d="M530 1165l-184 -456h-117l260 622h86l259 -622h-117z" />
<glyph unicode="_" horiz-adv-x="995" d="M987 -211v-104h-977v104h977z" />
<glyph unicode="`" horiz-adv-x="802" d="M406 1438l141 -254q18 -32 18 -54q0 -13 -10.5 -22.5t-24.5 -9.5q-23 0 -71 41l-248 215l4 22q19 21 60.5 43.5t89.5 22.5q25 0 41 -4z" />
<glyph unicode="a" horiz-adv-x="974" d="M813 164q0 -47 28 -60.5t97 -13.5q15 -12 20 -43q-87 -67 -202 -67q-64 0 -106.5 33t-55.5 85h-4q-73 -66 -134.5 -92t-125.5 -26q-111 0 -185.5 59.5t-74.5 161.5q0 103 93.5 189t242.5 122l178 43q12 4 12 25q0 114 -35 161t-106 47q-144 0 -232 -161l-47 2l-41 153 l6 9q44 39 138 73.5t194 34.5q174 0 266 -82q82 -73 82 -250q0 -7 -4 -188t-4 -215zM596 455l-164 -43q-33 -9 -56 -24t-35 -31.5t-18.5 -42t-8 -45t-1.5 -50.5q0 -45 27 -81t70 -36q81 0 151 70q11 11 21 41t10 51z" />
<glyph unicode="b" horiz-adv-x="1126" d="M395 1024v-238q90 67 147.5 90t125.5 23q83 0 145.5 -23.5t122.5 -78.5q111 -102 111 -301q0 -101 -30 -187t-80 -145.5t-114.5 -101.5t-133.5 -62t-138 -20t-130.5 28.5t-98.5 77.5q-86 -78 -107 -111q-14 0 -38.5 6.5t-33.5 12.5q11 55 11 151v826q0 271 -21 385l4 6 q106 8 260 68q19 0 19 -21q-21 -165 -21 -385zM395 184q18 -45 70.5 -73.5t103.5 -28.5q86 0 158 104t72 269q0 150 -50 232.5t-143 82.5q-100 0 -211 -80v-506z" />
<glyph unicode="c" horiz-adv-x="913" d="M561 795q-103 0 -167 -87t-64 -241q0 -156 65 -260q29 -46 77 -78.5t91 -32.5q162 0 230 84h32q0 -48 11 -90q-71 -60 -142.5 -85t-185.5 -25q-109 0 -180 33t-131 98q-111 121 -111 303q0 236 123 360.5t334 124.5q74 0 165 -21t140 -47l4 -6l-49 -198l-37 -2 q-80 170 -205 170z" />
<glyph unicode="d" horiz-adv-x="1148" d="M758 131q-83 -80 -147 -115.5t-146 -35.5q-175 0 -275 121t-100 315q0 241 176 377q72 56 149 81t191 25q74 0 152 -45v117q0 271 -21 385l4 6q106 8 260 68q19 0 19 -21q-21 -165 -21 -385v-631q0 -201 35 -393l-4 -6q-40 6 -130 6q-55 0 -109 -6q-19 0 -19 6l-10 131 h-4zM758 242v426q-39 62 -82.5 91t-112.5 29q-33 0 -62.5 -8t-61 -31t-54 -58.5t-37 -97t-14.5 -140.5q0 -179 56.5 -258.5t148.5 -79.5q63 0 113.5 28.5t105.5 98.5z" />
<glyph unicode="e" horiz-adv-x="940" d="M817 219q41 -23 41 -72q-58 -78 -157.5 -122.5t-211.5 -44.5q-89 0 -160.5 23.5t-119 63.5t-79.5 95t-46 116.5t-14 129.5q0 112 37.5 207t98 156t134 94.5t147.5 33.5q98 0 172.5 -32.5t118 -88t65 -122.5t21.5 -144q0 -35 -37 -35h-520q0 -87 12.5 -152.5t32 -104 t49.5 -62t60.5 -31.5t68.5 -8q195 0 287 100zM311 567h275q14 0 21 16t7 33q0 102 -34 142.5t-95 40.5q-26 0 -52 -12t-51.5 -37t-45 -72.5t-25.5 -110.5z" />
<glyph unicode="f" horiz-adv-x="708" d="M332 1288q136 142 364 142q62 0 92 -19l3 -6q-10 -17 -18.5 -55.5t-16.5 -85.5t-13 -66l-41 -2q-12 22 -19.5 33t-21.5 27.5t-31 24t-38 7.5q-81 0 -125.5 -52.5t-44.5 -139.5q0 -22 5 -96t5 -101v-20h221q17 0 17 -13v-55q0 -12 -15.5 -19.5t-31.5 -7.5h-191v-374 q0 -266 17 -410l-5 -6q-63 6 -133 6l-133 -6l-2 6q14 104 14 410v374h-135q-10 0 -10 13v41q0 15 11 28t36 13h98v61q0 94 37.5 186t104.5 162z" />
<glyph unicode="g" horiz-adv-x="1067" d="M338 -31q-70 -73 -70 -182q0 -49 22.5 -87.5t56.5 -59t67.5 -31t62.5 -10.5q132 0 216.5 60.5t84.5 154.5q0 41 -16 70t-39 44.5t-60.5 24t-67 10.5t-71.5 2q-10 0 -59.5 -1t-83.5 -1q-4 0 -43 6zM647 571q0 248 -170 248q-38 0 -65.5 -18t-42 -48.5t-21 -64t-6.5 -70.5 q0 -43 3 -76t13 -67t26.5 -55.5t45.5 -35t68 -13.5q61 0 105 49.5t44 150.5zM885 592q0 -142 -103.5 -222.5t-283.5 -80.5q-27 0 -49 1.5t-35.5 3t-27 5t-18.5 5.5t-16 7t-14 6q-29 -44 -29 -98q0 -59 32.5 -78.5t86.5 -19.5q4 0 13.5 1.5t25.5 2.5q78 10 129 10 q418 0 418 -274q0 -79 -55.5 -147t-143 -110.5t-191 -66.5t-204.5 -24q-61 0 -119.5 12t-113 37.5t-88 73t-33.5 110.5q0 102 45 160q28 17 75 48l60 40q-51 14 -93 56.5t-42 101.5q0 49 44.5 99.5t106.5 86.5l-57 37q-22 18 -36 32.5t-32.5 40.5t-27.5 61t-9 79 q0 145 105 228t274 83q81 0 142 -18q50 3 180 8t186 10l6 -6q-6 -27 -6 -59q0 -29 6 -56l-6 -6q-25 2 -98.5 9.5t-108.5 8.5q47 -32 76 -88t29 -110z" />
<glyph unicode="h" horiz-adv-x="1183" d="M176 971q0 276 -20 385l4 6q106 8 260 68q18 0 18 -21q-20 -157 -20 -385v-127l-8 -188l8 -4q71 92 151.5 143t157.5 51q135 0 206 -81t71 -222v-227q0 -239 20 -369l-4 -6q-67 6 -137 6l-131 -6l-2 6q12 109 12 369v182q0 190 -107 190q-112 0 -237 -163v-209 q0 -229 12 -369l-4 -6q-59 6 -129 6l-139 -6l-2 6q20 129 20 369v602z" />
<glyph unicode="i" horiz-adv-x="606" d="M184 481q0 251 -20 361l4 6q61 4 141.5 20t118.5 31q18 0 18 -20q-20 -156 -20 -365v-145q0 -223 20 -369l-4 -6q-67 6 -137 6l-139 -6l-2 6q20 139 20 369v112zM172 1214q0 56 39 95t94 39t94 -39t39 -95t-39 -94.5t-94 -38.5t-94 38.5t-39 94.5z" />
<glyph unicode="j" horiz-adv-x="655" d="M236 -111q0 8 -2 40t-3.5 101t-1.5 167v284q0 251 -20 361l4 6q61 4 141.5 20t118.5 31q19 0 19 -20q-21 -164 -21 -365v-455q0 -264 -84 -383q-46 -66 -155.5 -98.5t-215.5 -32.5q-28 0 -68 5.5t-50 11.5l-2 6q11 21 18.5 105.5t13.5 105.5l41 2q19 -35 52.5 -65.5 t70.5 -30.5q72 0 108 43.5t36 160.5zM217 1214q0 56 39 95t94 39t94 -39t39 -95t-38.5 -94.5t-94.5 -38.5t-94.5 38.5t-38.5 94.5z" />
<glyph unicode="k" horiz-adv-x="1118" d="M166 410v561q0 271 -21 385l5 6q106 8 260 68q18 0 18 -21q-20 -157 -20 -385v-528q39 7 67 28q61 47 157 153.5t161 201.5q225 0 264 6l4 -6q-59 -50 -132 -125l-153 -162q-80 -87 -98 -105q237 -287 426 -487l-4 -6q-27 6 -172 6q-118 0 -164 -6l-88 125 q-58 82 -79 109l-62 78q-41 50 -89 100q-13 12 -38 16v-12q0 -272 20 -410l-4 -6q-67 6 -137 6l-140 -6l-2 6q21 136 21 410z" />
<glyph unicode="l" horiz-adv-x="593" d="M176 410v561q0 276 -20 385l4 6q106 8 260 68q18 0 18 -21q-20 -157 -20 -385v-614q0 -272 20 -410l-4 -6q-67 6 -137 6l-139 -6l-2 6q20 129 20 410z" />
<glyph unicode="m" horiz-adv-x="1699" d="M1305 369v190q0 182 -113 182q-62 0 -106.5 -25.5t-116.5 -105.5q2 -25 2 -61v-180q0 -223 20 -369l-4 -6q-59 6 -129 6l-139 -6l-2 6q20 139 20 369v206q0 97 -29 131.5t-92 34.5q-77 0 -210 -161v-211q0 -223 20 -369l-4 -6q-67 6 -137 6l-140 -6l-2 6q21 146 21 369 v112q0 245 -21 361l4 6q61 4 138 20t116 31q19 0 19 -20l-23 -168l9 -9q63 81 146.5 139t154.5 58q100 0 158 -43.5t91 -126.5q87 92 158 131t148 39q284 0 284 -326v-204q0 -215 21 -369l-4 -6q-68 6 -138 6l-139 -6l-2 6q21 146 21 369z" />
<glyph unicode="n" horiz-adv-x="1171" d="M991 369q0 -233 21 -369l-4 -6q-68 6 -138 6l-131 -6l-2 6q13 118 13 369v182q0 190 -107 190q-112 0 -237 -163v-209q0 -229 12 -369l-4 -6q-59 6 -129 6l-140 -6l-2 6q21 136 21 369v112q0 247 -21 361l4 6q61 4 138 20t116 31q19 0 19 -20l-23 -168l9 -6 q71 92 151.5 143t157.5 51q135 0 205.5 -81t70.5 -222v-227z" />
<glyph unicode="o" horiz-adv-x="1089" d="M535 797q-51 0 -87.5 -18t-57 -46t-32.5 -74t-15 -88.5t-3 -103.5q0 -46 2.5 -84t10 -85.5t24 -83t41 -67t64.5 -48.5t91 -17q177 0 177 301q0 224 -44.5 319t-170.5 95zM78 420q0 214 127 346.5t344 132.5q100 0 180.5 -27.5t132.5 -73t86.5 -106.5t49 -124t14.5 -130 q0 -84 -29.5 -164t-85.5 -146.5t-147.5 -107t-204.5 -40.5q-111 0 -201 37t-147.5 99t-88 140t-30.5 164z" />
<glyph unicode="p" horiz-adv-x="1155" d="M164 -66v547q0 247 -21 361l4 6q61 4 138 20t116 31q19 0 19 -20l-23 -168l9 -6q68 104 138 149t152 45q79 0 131.5 -18t100.5 -56q145 -117 145 -344q0 -106 -37.5 -200t-100 -159.5t-147.5 -103.5t-178 -38q-123 0 -213 57v-103q0 -264 21 -409l-4 -6q-63 6 -133 6 l-136 -6l-2 6q21 136 21 409zM397 557v-381q54 -44 114.5 -69t102.5 -25q101 0 151 96.5t50 247.5q0 163 -45 241t-139 78q-56 0 -129 -55t-105 -133z" />
<glyph unicode="q" horiz-adv-x="1144" d="M752 -66v123q-108 -77 -248 -77q-115 0 -181 22t-122 82q-55 60 -88 148t-33 192q0 131 71.5 241.5t185 172t238.5 61.5q172 0 267 -82l30 49q9 17 32 28t36 11q18 0 31.5 -15t13.5 -36v-920q0 -264 21 -409l-5 -6q-63 6 -133 6l-135 -6l-2 6q21 136 21 409zM752 649 q-85 142 -205 142q-103 0 -151 -86.5t-48 -239.5q0 -356 246 -356q87 0 158 55v485z" />
<glyph unicode="r" horiz-adv-x="808" d="M424 719q46 69 118 124.5t138 55.5q35 0 84 -14l8 -8l-41 -201l-16 -4q-50 39 -119 39q-12 0 -30 -4.5t-43.5 -18t-47 -33.5t-36.5 -56t-15 -81v-149q0 -223 20 -369l-4 -6q-77 6 -147 6l-129 -6l-2 6q20 139 20 369v112q0 251 -20 361l4 6q61 4 135.5 19.5t114.5 31.5 q18 0 18 -20q-1 -26 -5.5 -64.5t-8.5 -64.5l-4 -25z" />
<glyph unicode="s" horiz-adv-x="817" d="M111 231l41 2q45 -88 97 -125.5t122 -37.5q66 0 109.5 35.5t43.5 105.5q0 63 -41.5 102t-130.5 64q-102 29 -172.5 99.5t-70.5 172.5q0 105 99 177.5t238 72.5q73 0 141.5 -14.5t110.5 -38.5l4 -6l-38 -185l-35 -2q-73 154 -187 154q-62 0 -97.5 -33.5t-35.5 -85.5 q0 -62 33.5 -93.5t95.5 -45.5q67 -16 118 -38t94 -56.5t66 -86t23 -118.5q0 -44 -23 -90t-67.5 -87t-121 -67t-171.5 -26q-129 0 -278 55z" />
<glyph unicode="t" horiz-adv-x="696" d="M49 784q-11 0 -18.5 9t-7.5 20q0 22 14 44t29 22h118q0 89 -2 115.5t-12 90.5l4 7q37 8 82.5 25.5t94 39.5t61.5 27q18 0 18 -21q-10 -149 -10 -284h219q16 0 16 -13v-55q0 -12 -16 -19.5t-33 -7.5h-186l-4 -227q-2 -123 -2 -289q0 -71 18.5 -119.5t56.5 -48.5 q42 0 64.5 4.5t54.5 20.5q35 -21 35 -64q-109 -81 -272 -81q-92 0 -145.5 60.5t-53.5 139.5q0 27 1 86l3 142q1 83 2 127l6 249h-135z" />
<glyph unicode="u" horiz-adv-x="1153" d="M733 131q-141 -151 -303 -151q-73 0 -130 23.5t-90 63t-50 87.5q-15 46 -15 98v6l5 252q1 26 1 53q0 141 -18 316l4 6q65 -6 135 -6l134 6l2 -6q-5 -36 -8 -81.5t-4 -81.5t-2 -100l-3 -106l-4 -184v-12q0 -52 7 -88q9 -40 27.5 -58t37.5 -24.5t45 -6.5q76 0 152.5 62.5 t76.5 146.5v164q0 254 -14 369l4 6q61 -6 131 -6l137 6l2 -6q-18 -109 -18 -369v-117q0 -201 35 -393l-4 -6q-40 6 -130 6q-56 0 -110 -6q-18 0 -18 6l-11 131h-4z" />
<glyph unicode="v" horiz-adv-x="1044" d="M408 -6q-210 546 -367 891q33 -6 137 -6q125 0 152 6q133 -421 233 -660h6l50 116q25 60 57 145l45 123l53 149q40 112 45 127q18 -6 88 -6q79 0 97 6q-268 -574 -398 -891q-18 6 -86 6q-92 0 -112 -6z" />
<glyph unicode="w" horiz-adv-x="1665" d="M412 -8q-188 490 -371 891q33 -6 147 -6q104 0 131 6q132 -420 256 -701h23q77 164 180 438l-116 265q33 -6 137 -6q114 0 141 6q130 -412 234 -660h16l50 116q25 60 56 145l46 123l54 149l44 127q18 -6 88 -6q78 0 96 6q-260 -557 -397 -891q-18 6 -86 6q-93 0 -113 -6 l-187 475q-127 -268 -202 -477q-18 6 -121 6q-86 0 -106 -6z" />
<glyph unicode="x" horiz-adv-x="1032" d="M390 424l-9 12l-340 449q33 -6 158 -6q114 0 149 6q75 -123 190 -283q141 184 210 283q23 -6 114 -6q69 0 92 6l-336 -390l29 -38q130 -187 344 -463q-31 6 -143 6q-125 0 -156 -6q-71 112 -218 317q-160 -224 -222 -317q-20 6 -90 6q-93 0 -113 -6l335 422z" />
<glyph unicode="y" horiz-adv-x="1075" d="M579 181l-2 -2h4zM57 885q29 -6 140 -6q102 0 129 6q78 -237 251 -652q121 269 244 652q20 -6 109 -6q68 0 88 6q-85 -171 -314 -687.5t-280 -682.5q-33 10 -100 10q-78 0 -111 -10q128 212 229 446l-5 14q-54 143 -183 451z" />
<glyph unicode="z" horiz-adv-x="929" d="M555 758q-102 -2 -210.5 -7.5t-166.5 -10.5l-57 -5l-4 6q4 32 4 72q0 12 -4 66l4 6q47 -6 115 -6h475q26 0 65 3t68.5 6t32.5 3q10 0 10 -12q-15 -17 -62 -86l-456 -672q109 1 234 6.5t195 10.5l70 5l4 -6q-4 -32 -4 -71q0 -12 4 -66l-4 -6q-46 6 -114 6h-463l-244 -6 l-4 20q21 21 43 52z" />
<glyph unicode="{" horiz-adv-x="647" d="M430 1133v-342q0 -69 -9.5 -117t-30.5 -80t-47 -51.5t-67 -36.5q87 -37 120.5 -107t33.5 -204v-308q0 -113 38.5 -185.5t104.5 -72.5v-63q-84 2 -145 17t-110.5 51t-75 102.5t-25.5 163.5v338q0 100 -34 161t-113 80v49q147 42 147 238v369q0 166 93 237t263 76v-64 q-33 -10 -56 -23.5t-44.5 -40t-32 -73.5t-10.5 -114z" />
<glyph unicode="|" horiz-adv-x="450" d="M287 -475h-123v1905h123v-1905z" />
<glyph unicode="}" horiz-adv-x="647" d="M217 -121v342q0 69 9.5 117t30.5 80t47 51.5t67 36.5q-87 37 -120.5 107t-33.5 204v307q0 113 -38.5 185.5t-104.5 72.5v64q84 -2 145 -17t110.5 -51t75 -102.5t25.5 -163.5v-338q0 -206 148 -242v-49q-148 -42 -148 -237v-369q0 -166 -93 -237t-263 -76v63 q33 10 56 23.5t44.5 40.5t32 74t10.5 114z" />
<glyph unicode="~" horiz-adv-x="919" d="M53 418q22 107 97.5 193.5t164.5 86.5q48 0 152 -65l53 -33q18 -10 46.5 -22.5t49.5 -12.5q132 0 185 119l53 -12q-22 -77 -57 -130t-72.5 -76t-65 -31.5t-51.5 -8.5q-58 0 -153 68q-95 65 -152 65q-55 0 -112.5 -40.5t-92.5 -106.5z" />
<glyph unicode="&#xa1;" horiz-adv-x="512" d="M336 780v-10q-20 -48 -48.5 -77t-80.5 -50h-8q-52 19 -81 47.5t-48 79.5v10q20 57 49 86t80 41h8q57 -12 85.5 -40t43.5 -87zM217 -469q-51 0 -89 39t-38 111q0 75 26 203.5t34 191.5q12 97 19.5 183.5t10.5 134t4 55.5q3 40 33 40q27 0 31 -26q1 -8 6.5 -77.5t13 -154 t15.5 -155.5q8 -66 31.5 -190t23.5 -205q0 -75 -38 -112.5t-83 -37.5z" />
<glyph unicode="&#xa2;" horiz-adv-x="983" d="M543 279v623q-82 -12 -131.5 -89t-49.5 -204q0 -139 59 -234q21 -34 54.5 -60.5t67.5 -35.5zM543 1184h69v-190q137 -15 217 -57l3 -6l-44 -179l-33 -1q-60 125 -143 147v-622q113 9 167 75h29q0 -36 10 -81q-96 -81 -206 -95v-200h-69v195h-20q-98 0 -162.5 29.5 t-118.5 88.5q-99 109 -99 273q0 209 107 320.5t293 115.5v187z" />
<glyph unicode="&#xa3;" d="M528 850l9 -131h249q17 0 17 -12v-62q0 -13 -17 -20t-38 -7h-211q-1 -71 -13.5 -132t-28.5 -100t-44 -76.5t-46.5 -56t-48.5 -44.5h11q72 0 124 -10t80.5 -24t52 -28t54.5 -24t72 -10q168 0 237 84l41 -37q-43 -82 -126.5 -131t-192.5 -49q-57 0 -101 14q-45 12 -75 32 l-59 39q-30 19 -73 32.5t-98 13.5q-88 0 -88 -60q0 -39 -28 -60.5t-72 -21.5q-35 0 -58.5 18t-23.5 46q0 51 129 112q45 33 73 78.5t40.5 107.5t16 115.5t3.5 137.5v34h-143q-15 0 -15 13v45q0 16 14 29.5t42 13.5h102v26q0 127 41 208t137 165q152 131 395 131q56 0 97 -18 l2 -6q-7 -11 -13 -25.5t-10.5 -35t-7 -34.5t-6.5 -41t-6 -36l-45 -2q-1 2 -7.5 11t-8 12t-7.5 11t-9 11l-9 10q-6 6 -12 9l-12 7q-7 4 -13.5 6t-15 3.5t-17.5 1.5q-48 0 -91.5 -16t-79.5 -48t-55 -88.5t-14 -130.5z" />
<glyph unicode="&#xa4;" horiz-adv-x="948" d="M471 250q-114 0 -205 51l-94 -119l-125 121l109 88q-88 111 -88 221q0 116 90 226q-81 61 -107 84l113 116l102 -112q94 51 209 51q108 0 203 -53l104 125l119 -125l-113 -93q86 -106 86 -219q0 -104 -83 -217l106 -90l-111 -119l-104 119q-96 -55 -211 -55zM233 614 q0 -107 68.5 -179.5t169.5 -72.5q102 0 170 72.5t68 177.5q0 107 -71 179.5t-163 72.5q-100 0 -171 -72.5t-71 -177.5z" />
<glyph unicode="&#xa5;" d="M106 469q-9 0 -10.5 2t-1.5 10v41q0 15 11.5 28t37.5 13h206l-170 298q-144 254 -185 317q38 -7 129 -7q77 0 115 7l86 -196q32 -72 84 -171.5t111 -193.5q33 47 61.5 94.5t62.5 117.5l49 100q14 29 58 129l53 120q27 -7 82 -7t84 7l-366 -615h282q16 0 16 -12v-55 q0 -13 -16 -20t-35 -7h-251q0 -41 2 -129h284q16 0 16 -12v-54q0 -13 -16 -20.5t-35 -7.5h-247q3 -187 9 -252q-31 6 -123 6q-91 0 -122 -6q8 67 12 252h-273q-9 0 -10.5 2t-1.5 10v41q0 15 11.5 28t37.5 13h237q0 22 0.5 65t0.5 64h-275z" />
<glyph unicode="&#xa6;" horiz-adv-x="450" d="M287 330v-742h-123v742h123zM287 1380v-741h-123v741h123z" />
<glyph unicode="&#xa7;" horiz-adv-x="1075" d="M271 850q-105 102 -105 207t114 198t263 93q94 0 183 -41t144 -88l7 -11l-35 -168l-29 -4q-49 84 -129.5 147.5t-159.5 63.5q-73 0 -112 -38t-39 -111q0 -71 31 -112t110 -73q459 -188 459 -464q0 -85 -49.5 -167.5t-118.5 -136.5q104 -101 104 -206t-114 -198t-263 -93 q-94 0 -183 41t-144 88l-6 10l34 168l29 4q49 -84 129.5 -147.5t159.5 -63.5q72 0 111.5 38.5t39.5 111.5q0 74 -32.5 122.5t-108.5 79.5l-79 33q-32 14 -84 41t-88.5 51.5t-78.5 61t-68 74t-43.5 86t-17.5 100.5q0 85 49.5 167t119.5 136zM344 790q-39 -48 -39 -165 q0 -40 11.5 -77.5t27 -65t47 -58t53.5 -48.5t66 -44q42 -26 64 -38l69 -36q52 -27 88 -53q39 48 39 166q0 40 -12 77.5t-27 65t-46.5 58t-53 48t-66 44t-64.5 37.5t-69 36q-52 27 -88 53z" />
<glyph unicode="&#xa8;" horiz-adv-x="817" d="M84 1174q0 49 34 82.5t81 33.5q49 0 82.5 -33t33.5 -83q0 -47 -33.5 -81t-82.5 -34q-46 0 -80.5 34.5t-34.5 80.5zM473 1174q0 49 33.5 82.5t83.5 33.5q47 0 81 -33.5t34 -82.5q0 -46 -34.5 -80.5t-80.5 -34.5q-49 0 -83 34.5t-34 80.5z" />
<glyph unicode="&#xa9;" horiz-adv-x="1296" d="M649 1141q-141 0 -260 -68.5t-187.5 -187t-68.5 -258.5q0 -139 68.5 -257.5t187.5 -187.5t260 -69q139 0 257.5 68.5t187.5 187t69 258.5t-68.5 258.5t-187 187t-258.5 68.5zM649 47q-158 0 -291.5 78.5t-210.5 212t-77 289.5q0 117 46 224t123.5 184.5t184.5 123 t225 45.5q157 0 290 -77t210.5 -210t77.5 -290t-77.5 -290.5t-210.5 -211.5t-290 -78zM899 442q-35 -53 -99 -92t-143 -39q-134 0 -226.5 90.5t-92.5 214.5q0 130 95 225t229 95q82 0 132.5 -15.5t69.5 -15.5l29 -160l-41 -8q-29 77 -72.5 114.5t-126.5 37.5 q-34 0 -64.5 -11.5t-59.5 -38.5t-46.5 -78.5t-17.5 -123.5q0 -117 55 -191.5t156 -74.5q113 0 184 102z" />
<glyph unicode="&#xaa;" horiz-adv-x="608" d="M473 733q-35 0 -58 24.5t-28 55.5q-54 -47 -89 -63.5t-85 -16.5q-66 0 -112 40t-46 104q0 122 211 176l119 30q0 55 -10 91t-28.5 52t-35 21.5t-37.5 5.5q-51 0 -80.5 -15t-29.5 -40q0 -19 4 -27t4 -24q0 -15 -13.5 -29t-39.5 -14q-23 0 -38 14t-15 37q0 58 71.5 104 t141.5 46q42 0 77 -10t68.5 -34t52.5 -72.5t19 -117.5v-153q0 -117 28 -117q15 0 25 10l20 -33q-16 -17 -42.5 -31t-53.5 -14zM385 1028q-128 -33 -175.5 -65t-47.5 -80q0 -36 21.5 -60t70.5 -24q31 0 60.5 15.5t70.5 51.5v162z" />
<glyph unicode="&#xab;" horiz-adv-x="1290" d="M649 879l21 -105q-94 -124 -160.5 -200t-144.5 -134q75 -52 142 -128t163 -206l-21 -104q-276 288 -495 399v78q228 145 495 400zM1096 879l20 -105q-149 -206 -321 -334q158 -108 321 -334l-20 -104q-249 263 -512 399v78q302 195 512 400z" />
<glyph unicode="&#xac;" horiz-adv-x="1146" d="M989 272v459h-940v90h1051v-549h-111z" />
<glyph unicode="&#xad;" horiz-adv-x="712" d="M575 453h-462q-13 0 -22 15t-9 30q0 28 17 66t34 38h469q14 0 21.5 -15.5t7.5 -31.5q0 -22 -19 -62t-37 -40z" />
<glyph unicode="&#xae;" horiz-adv-x="1296" d="M649 1141q-141 0 -260 -68.5t-187.5 -187t-68.5 -258.5q0 -139 68.5 -257.5t187.5 -187.5t260 -69q139 0 257.5 68.5t187.5 187t69 258.5t-68.5 258.5t-187 187t-258.5 68.5zM649 47q-158 0 -291.5 78.5t-210.5 212t-77 289.5q0 117 46 224t123.5 184.5t184.5 123 t225 45.5q157 0 290 -77t210.5 -210t77.5 -290t-77.5 -290.5t-210.5 -211.5t-290 -78zM770 758q0 104 -102 104q-82 0 -82 -51v-172h65q55 0 87 24t32 95zM883 758q0 -57 -34 -96.5t-85 -55.5l98 -168q32 -53 88 -43l8 -35q-35 -14 -73 -14q-82 0 -125 72l-98 164 q-11 8 -76 8v-148q0 -40 24 -43l29 -4q22 -6 23 -12v-33l-5 -4q-83 4 -120 4l-125 -4l-4 4v35q0 7 16 9q3 1 4 1l35 4q26 3 26 43v369q0 25 -13.5 38t-33.5 13h-22q-17 0 -17 10v35l5 4h278q55 0 95.5 -15t61.5 -39t30.5 -49t9.5 -50z" />
<glyph unicode="&#xaf;" horiz-adv-x="813" d="M645 1083h-500q-24 0 -24 31q0 20 13.5 40t31.5 20h500q14 0 21 -9t7 -20q0 -20 -15 -41t-34 -21z" />
<glyph unicode="&#xb0;" horiz-adv-x="546" d="M57 1075q0 90 63.5 153.5t153.5 63.5q89 0 152 -63t63 -154q0 -89 -63 -152t-152 -63t-153 63t-64 152zM401 1073q0 53 -33.5 97t-93.5 44q-59 0 -94 -42.5t-35 -98.5q0 -54 36 -94.5t93 -40.5t92 41t35 94z" />
<glyph unicode="&#xb1;" horiz-adv-x="1079" d="M942 152v-123h-819v123h819zM594 711h348v-123h-348v-348h-123v348h-348v123h348v350h123v-350z" />
<glyph unicode="&#xb2;" horiz-adv-x="628" d="M365 815q68 0 178 8q-4 -24 -4 -41t4 -41q-72 4 -166 4h-285q0 67 50.5 130.5t136.5 130.5q77 62 107 107.5t30 123.5q0 64 -35.5 93.5t-73.5 29.5q-60 0 -85 -17.5t-25 -42.5q0 -9 5 -25t5 -24q0 -22 -19.5 -35.5t-37.5 -13.5q-20 0 -37 14.5t-17 34.5q0 52 55.5 105 t163.5 53q41 0 78 -8.5t70.5 -27t53.5 -53t20 -81.5q0 -66 -44.5 -121.5t-138.5 -122.5q-135 -96 -135 -180h146z" />
<glyph unicode="&#xb3;" horiz-adv-x="628" d="M385 1278q0 43 -24 62.5t-58 19.5q-23 0 -47.5 -7t-44.5 -24t-21 -41q-1 -17 -4 -27.5t-15 -21t-34 -10.5q-18 0 -29.5 8.5t-14.5 16t-3 12.5q0 15 13 37.5t38.5 47t75 41.5t111.5 17q80 0 127 -32t47 -89q0 -80 -105 -139q61 -5 112.5 -52t51.5 -128q0 -104 -86.5 -170 t-212.5 -66q-62 0 -122 23t-60 53q0 15 16 28t33 13q28 0 53 -29q30 -37 103 -37q18 0 41 7t50.5 23.5t45.5 52.5t18 85q0 33 -12 58t-29.5 38.5t-41 22t-41 10.5t-35.5 2q-9 0 -41 -4l-4 49q69 9 109 48.5t40 101.5z" />
<glyph unicode="&#xb4;" horiz-adv-x="698" d="M383 1446q12 4 33 4q77 0 116 -49l21 -47l-246 -221q-38 -33 -78 -33q-12 0 -22 9.5t-10 18.5q0 26 16 50z" />
<glyph unicode="&#xb5;" horiz-adv-x="1083" d="M666 98q-77 -62 -136.5 -92.5t-136.5 -30.5q-48 0 -94 19q1 -10 2 -83t8 -108q25 -110 25 -147q0 -64 -29 -97.5t-80 -33.5q-38 0 -83.5 40.5t-45.5 100.5q0 47 15 146q1 10 6 39t7 44.5t4.5 43t2.5 53.5q-1 16 -3 52l-3 50q-2 17 -15.5 87t-13.5 100v381q0 23 -6 80 q-4 56 -10 102l-6 45l241 26q7 -147 7 -213v-395q0 -100 28 -161.5t80 -61.5q62 0 131 35t103 82v688l225 29v-660q0 -35 1 -54.5t5 -45.5t12.5 -39.5t24.5 -23t39 -9.5q17 0 29 5t17 11l9 12q4 5 8 5q6 0 16.5 -15.5t10.5 -25.5q0 -7 -23 -29.5t-70 -45.5t-98 -23 q-90 0 -135.5 28.5t-64.5 89.5h-4z" />
<glyph unicode="&#xb6;" horiz-adv-x="1232" d="M836 1321l202 6l2 -6q-20 -136 -20 -410v-977q0 -263 20 -409l-4 -6q-132 6 -202 6l-201 -6l-4 6q20 146 20 409v650q-27 -6 -65 -6q-227 0 -347 102t-120 305q0 63 23.5 122t69 108.5t122.5 79.5t174 30q89 0 202 -2t128 -2zM752 1176v-1506q0 -39 22.5 -58.5 t59.5 -19.5q84 0 84 78v1506q0 44 -22 60.5t-62 16.5q-82 0 -82 -77z" />
<glyph unicode="&#xb7;" horiz-adv-x="616" d="M309 391q-61 0 -100 40.5t-39 96.5q0 55 41.5 97.5t97.5 42.5q54 0 97 -41.5t43 -98.5q0 -56 -41 -96.5t-99 -40.5z" />
<glyph unicode="&#xb8;" horiz-adv-x="1107" d="M514 -188l-27 26l80 176h92l-41 -104q91 0 133 -40.5t42 -88.5q0 -67 -61 -111.5t-152 -44.5q-48 0 -78.5 6.5t-79.5 28.5l31 74q73 -27 116 -27q37 0 65 19t28 45q0 21 -17 38t-43 17q-48 0 -88 -14z" />
<glyph unicode="&#xb9;" horiz-adv-x="628" d="M301 1008v174q0 54 -3.5 70t-21.5 16q-19 0 -68 -15t-73 -26l-20 59l35 13l38 13l34 14q26 8 38 14l34 15q22 9 37 17l33 17l35 20h13q6 0 6 -12q-6 -70 -6 -131v-258q0 -165 14 -263l-2 -4q-19 4 -70 4l-69 -4l-2 4q18 100 18 263z" />
<glyph unicode="&#xba;" horiz-adv-x="714" d="M350 1108q-73 0 -112 -60t-39 -149q0 -85 45.5 -153t130.5 -68q23 0 46 8t46.5 26.5t38 56t14.5 89.5q0 120 -46 185t-124 65zM80 879q0 131 75 205.5t207 74.5q73 0 127.5 -22t86 -61t46.5 -85t15 -100q0 -113 -74 -191.5t-211 -78.5q-115 0 -193.5 74t-78.5 184z" />
<glyph unicode="&#xbb;" horiz-adv-x="1290" d="M641 2l-20 104q94 124 160.5 200t144.5 134q-75 52 -142 128t-163 206l20 105q277 -289 496 -400v-78q-234 -149 -496 -399zM195 2l-21 104q148 204 322 334q-160 110 -322 334l21 105q251 -265 512 -400v-78q-305 -197 -512 -399z" />
<glyph unicode="&#xbc;" horiz-adv-x="1351" d="M295 907v174q0 55 -3.5 70.5t-21.5 15.5q-19 0 -68 -15t-73 -26l-20 60l35 13l38 13l34 14q26 8 38 14l34 15q22 9 37 17l33 17l35 20h13q6 0 6 -13q-6 -70 -6 -131v-258q0 -164 14 -262l-2 -4q-19 4 -70 4l-69 -4l-3 4q19 106 19 262zM1065 -166q17 87 18 203h-295 l-8 24l316 447l63 -21q-51 -78 -149.5 -215.5t-116.5 -165.5h190v158q0 12 15 35q33 43 53 43q43 0 43 -20v-216h100l-12 -69h-87q2 -126 13 -203l-2 -4q-18 4 -69 4l-70 -4zM1141 1231l84 -17l-938 -1341l-86 16z" />
<glyph unicode="&#xbd;" horiz-adv-x="1351" d="M299 907v174q0 55 -3.5 70.5t-21.5 15.5q-19 0 -68 -15t-73 -26l-20 60l35 13l38 13l34 14q26 8 38 14l34 15q22 9 37 17l33 17l35 20h13q6 0 6 -13q-6 -70 -6 -131v-258q0 -164 14 -262l-2 -4q-19 4 -70 4l-69 -4l-2 4q18 100 18 262zM1098 -92q68 0 178 8 q-4 -24 -4 -41t4 -41q-72 4 -166 4h-285q0 67 50 130t137 130q77 62 107 108t30 124q0 64 -35.5 93.5t-73.5 29.5q-60 0 -85 -17.5t-25 -42.5q0 -9 5 -25t5 -24q0 -22 -19.5 -35.5t-37.5 -13.5q-20 0 -37 14.5t-17 34.5q0 52 56 105t164 53q57 0 103.5 -14t82 -54t35.5 -102 q0 -66 -44.5 -121.5t-138.5 -122.5q-135 -96 -135 -180h146zM1090 1231l86 -17l-940 -1341l-84 16z" />
<glyph unicode="&#xbe;" horiz-adv-x="1351" d="M1073 -162q18 92 19 203h-295l-9 25l316 446l63 -20q-51 -78 -149.5 -215.5t-116.5 -165.5h191v157q0 14 14 35q33 43 53 43q43 0 43 -20v-215h101l-13 -70h-87q2 -118 14 -203l-3 -4q-18 4 -69 4l-70 -4zM381 1174q0 43 -24 62t-58 19q-38 0 -75 -18.5t-38 -52.5 q-1 -17 -4 -27.5t-15 -21.5t-34 -11q-18 0 -29.5 8.5t-14.5 16t-3 12.5q0 15 13 37.5t38.5 47.5t75 42t111.5 17q80 0 127 -32t47 -89q0 -81 -105 -140q61 -5 112.5 -52t51.5 -128q0 -104 -86.5 -169.5t-212.5 -65.5q-62 0 -122 23t-60 53q0 15 16 27.5t33 12.5q29 0 53 -28 q30 -37 103 -37q18 0 41 7t50.5 23.5t45.5 52.5t18 85q0 33 -12.5 58t-29.5 38.5t-40.5 22t-41.5 10.5t-36 2q-8 0 -40 -4l-5 49q69 9 109.5 48.5t40.5 101.5zM1151 1231l84 -17l-938 -1341l-86 16z" />
<glyph unicode="&#xbf;" horiz-adv-x="868" d="M588 780v-10q-20 -48 -48.5 -77t-80.5 -50h-8q-52 19 -81 47.5t-48 79.5v10q20 57 49 86t80 41h8q57 -12 85.5 -40t43.5 -87zM432 -371q141 0 252 193l27 -2l32 -156l-6 -8q-55 -46 -140.5 -86.5t-182.5 -40.5q-160 0 -268.5 86t-108.5 223q0 39 14 76.5t29 62t51 58 t51.5 46t60.5 44t50 35.5q27 20 45 37.5t38 47t30 71.5t10 96v80q0 10 17 20t30 10t30 -10t17 -20v-84q0 -184 -158 -330q-56 -52 -70 -99.5t-14 -132.5q0 -217 164 -217z" />
<glyph unicode="&#xc0;" horiz-adv-x="1394" d="M410 449q-119 -292 -162 -455q-25 6 -92 6q-90 0 -115 -6l604 1354h143l198 -483l224 -550q95 -230 140 -321q-35 6 -166 6q-111 0 -146 -6q-49 178 -152 456q-201 3 -204 3q-116 0 -272 -4zM655 1024l-197 -459q18 0 99 -2t115 -2q55 0 171 2q-88 227 -188 461z M432 1706l291 -203q31 -22 31 -49q0 -13 -10 -22t-23 -9q-14 0 -80 19l-311 90l-15 29q25 83 117 145z" />
<glyph unicode="&#xc1;" horiz-adv-x="1394" d="M410 449q-119 -292 -162 -455q-25 6 -92 6q-90 0 -115 -6l604 1354h143l198 -483l224 -550q95 -230 140 -321q-35 6 -166 6q-111 0 -146 -6q-49 178 -152 456q-201 3 -204 3q-116 0 -272 -4zM655 1024l-197 -459q18 0 99 -2t115 -2q55 0 171 2q-88 227 -188 461z M1020 1706q92 -62 117 -145l-15 -29l-311 -90q-66 -19 -80 -19q-13 0 -23 9t-10 22q0 27 31 49z" />
<glyph unicode="&#xc2;" horiz-adv-x="1394" d="M410 449q-119 -292 -162 -455q-25 6 -92 6q-90 0 -115 -6l604 1354h143l198 -483l224 -550q95 -230 140 -321q-35 6 -166 6q-111 0 -146 -6q-49 178 -152 456q-201 3 -204 3q-116 0 -272 -4zM655 1024l-197 -459q18 0 99 -2t115 -2q55 0 171 2q-88 227 -188 461z M1026 1454l-33 -53q-42 16 -87 37l-98 48l-83 40l-79 -38q-64 -32 -106 -51l-85 -36l-33 53q102 82 272 252h62q117 -123 270 -252z" />
<glyph unicode="&#xc3;" horiz-adv-x="1394" d="M410 449q-119 -292 -162 -455q-25 6 -92 6q-90 0 -115 -6l604 1354h143l198 -483l224 -550q95 -230 140 -321q-35 6 -166 6q-111 0 -146 -6q-49 178 -152 456q-201 3 -204 3q-116 0 -272 -4zM655 1024l-197 -459q18 0 99 -2t115 -2q55 0 171 2q-88 227 -188 461z M856 1532q56 0 94 119l70 -21q-43 -221 -186 -221q-50 0 -77 14.5t-57 46.5q-50 54 -108 54q-39 0 -60 -27t-34 -82l-70 17q23 108 63 162.5t107 54.5q47 0 80.5 -16.5t71.5 -49.5q60 -51 106 -51z" />
<glyph unicode="&#xc4;" horiz-adv-x="1394" d="M410 449q-119 -292 -162 -455q-25 6 -92 6q-90 0 -115 -6l604 1354h143l198 -483l224 -550q95 -230 140 -321q-35 6 -166 6q-111 0 -146 -6q-49 178 -152 456q-201 3 -204 3q-116 0 -272 -4zM655 1024l-197 -459q18 0 99 -2t115 -2q55 0 171 2q-88 227 -188 461z M307 1440q0 45 33 77.5t78 32.5q46 0 78 -32t32 -78q0 -44 -32 -76.5t-78 -32.5q-44 0 -77.5 32.5t-33.5 76.5zM883 1440q0 46 32 78t78 32q45 0 78 -32.5t33 -77.5q0 -44 -33.5 -76.5t-77.5 -32.5q-45 0 -77.5 32.5t-32.5 76.5z" />
<glyph unicode="&#xc5;" horiz-adv-x="1394" d="M655 1024l-197 -459q18 0 99 -2t115 -2q55 0 171 2q-88 227 -188 461zM537 1462q0 73 53 124.5t127 51.5t128 -51t54 -125q0 -49 -25.5 -90t-68.5 -64l193 -473l218 -533q90 -218 134 -308q-35 6 -166 6q-111 0 -146 -6q-49 178 -152 456q-201 3 -204 3q-116 0 -272 -4 q-119 -292 -162 -455q-25 6 -92 6q-90 0 -115 -6l587 1315q-41 23 -66 63.5t-25 89.5zM719 1571q-44 0 -74.5 -33t-30.5 -76q0 -41 31 -74.5t74 -33.5t73.5 33.5t30.5 74.5q0 44 -30.5 76.5t-73.5 32.5z" />
<glyph unicode="&#xc6;" horiz-adv-x="1642" d="M813 675l-83 418h-4q-103 -180 -219 -416q20 0 59 -1t68.5 -1.5t51.5 -0.5q82 0 127 1zM750 1321l4 6q34 -6 104 -6h436q74 0 123 6l4 -6q-4 -58 -4 -84q0 -21 4 -53l-4 -8q-159 21 -375 21q-40 0 -86 -2q42 -216 108 -502q144 3 359 20l7 -6q-7 -31 -7 -58q0 -47 7 -78 l-7 -6q-125 12 -334 18q49 -210 114 -455l337 17l4 -8q-4 -32 -4 -67q0 -12 4 -70l-4 -6q-50 6 -123 6h-178h-105h-110q-57 0 -92 -6q0 88 -96 568q-47 1 -140 1q-130 0 -246 -3q-157 -327 -249 -566q-25 6 -92 6q-86 0 -111 -6l196 384l268 514q115 212 249 430l41 -17z " />
<glyph unicode="&#xc7;" horiz-adv-x="1374" d="M647 -197l-26 27l68 151q-118 8 -219 49t-172.5 105t-122 147t-75 175t-24.5 188q0 169 66.5 313t187.5 238q195 152 461 152q70 0 141.5 -9.5t124 -23t95 -27.5t64.5 -24l21 -9l4 -6q-32 -136 -41 -266l-20 -2q-62 124 -170 188t-248 64q-53 0 -105.5 -16.5t-105 -57.5 t-92.5 -101.5t-65 -157t-25 -216.5q0 -89 14.5 -171.5t46.5 -158t78.5 -131t116.5 -88.5t155 -33q144 0 233.5 37t203.5 146l49 -70q-114 -119 -232.5 -173.5t-250.5 -60.5l-31 -79q91 0 132.5 -40.5t41.5 -88.5q0 -67 -61 -111.5t-152 -44.5q-48 0 -78.5 6.5t-79.5 28.5 l31 74q73 -27 116 -27q37 0 65 18.5t28 44.5q0 22 -17 39t-43 17q-45 0 -88 -15z" />
<glyph unicode="&#xc8;" horiz-adv-x="1155" d="M451 410q0 -225 16 -281q122 0 268.5 6.5t232.5 12.5l85 6l4 -9q-4 -32 -4 -71q0 -16 4 -74l-4 -6q-49 6 -123 6h-602l-150 -6l-2 6q21 146 21 410v501q0 256 -21 410l4 6q78 -6 148 -6h581q73 0 123 6l4 -6q-4 -58 -4 -72q0 -31 4 -63l-4 -8q-292 24 -565 24 q-16 -56 -16 -291v-159q222 0 464 20l7 -6q-7 -32 -7 -66q0 -36 7 -67l-7 -6q-201 20 -464 20v-237zM453 1706l290 -203q31 -22 31 -49q0 -13 -10 -22t-23 -9t-79 19l-312 90l-14 29q25 83 117 145z" />
<glyph unicode="&#xc9;" horiz-adv-x="1155" d="M451 410q0 -225 16 -281q122 0 268.5 6.5t232.5 12.5l85 6l4 -9q-4 -32 -4 -71q0 -16 4 -74l-4 -6q-49 6 -123 6h-602l-150 -6l-2 6q21 146 21 410v501q0 256 -21 410l4 6q78 -6 148 -6h581q73 0 123 6l4 -6q-4 -58 -4 -72q0 -31 4 -63l-4 -8q-292 24 -565 24 q-16 -56 -16 -291v-159q222 0 464 20l7 -6q-7 -32 -7 -66q0 -36 7 -67l-7 -6q-201 20 -464 20v-237zM713 1706q90 -61 116 -145l-14 -29l-311 -90q-66 -19 -80 -19q-13 0 -23 9t-10 22q0 27 31 49z" />
<glyph unicode="&#xca;" horiz-adv-x="1155" d="M451 410q0 -225 16 -281q122 0 268.5 6.5t232.5 12.5l85 6l4 -9q-4 -32 -4 -71q0 -16 4 -74l-4 -6q-49 6 -123 6h-602l-150 -6l-2 6q21 146 21 410v501q0 256 -21 410l4 6q78 -6 148 -6h581q73 0 123 6l4 -6q-4 -58 -4 -72q0 -31 4 -63l-4 -8q-292 24 -565 24 q-16 -56 -16 -291v-159q222 0 464 20l7 -6q-7 -32 -7 -66q0 -36 7 -67l-7 -6q-201 20 -464 20v-237zM944 1454l-33 -53q-42 16 -87 37l-98 48l-83 40l-79 -38q-64 -32 -106 -51l-85 -36l-33 53q102 82 272 252h62q117 -123 270 -252z" />
<glyph unicode="&#xcb;" horiz-adv-x="1155" d="M451 410q0 -225 16 -281q122 0 268.5 6.5t232.5 12.5l85 6l4 -9q-4 -32 -4 -71q0 -16 4 -74l-4 -6q-49 6 -123 6h-602l-150 -6l-2 6q21 146 21 410v501q0 256 -21 410l4 6q78 -6 148 -6h581q73 0 123 6l4 -6q-4 -58 -4 -72q0 -31 4 -63l-4 -8q-292 24 -565 24 q-16 -56 -16 -291v-159q222 0 464 20l7 -6q-7 -32 -7 -66q0 -36 7 -67l-7 -6q-201 20 -464 20v-237zM311 1563q0 46 32.5 78t78.5 32t77 -32t31 -78q0 -45 -31.5 -77t-76.5 -32q-46 0 -78.5 32.5t-32.5 76.5zM696 1563q0 46 32.5 78t78.5 32q45 0 78 -32.5t33 -77.5 q0 -44 -33.5 -76.5t-77.5 -32.5q-46 0 -78.5 32.5t-32.5 76.5z" />
<glyph unicode="&#xcc;" horiz-adv-x="677" d="M217 911q0 264 -20 410l4 6q73 -6 143 -6l145 6l3 -6q-21 -143 -21 -410v-501q0 -256 21 -410l-5 -6q-73 6 -143 6l-145 -6l-2 6q20 139 20 410v501zM145 1706l291 -203q31 -22 31 -49q0 -13 -10 -22t-23 -9q-14 0 -80 19l-311 90l-14 29q26 84 116 145z" />
<glyph unicode="&#xcd;" horiz-adv-x="677" d="M217 911q0 264 -20 410l4 6q73 -6 143 -6l145 6l3 -6q-21 -143 -21 -410v-501q0 -256 21 -410l-5 -6q-73 6 -143 6l-145 -6l-2 6q20 139 20 410v501zM467 1706q92 -62 117 -145l-15 -29l-311 -90q-66 -19 -80 -19q-13 0 -23 9t-10 22q0 27 31 49z" />
<glyph unicode="&#xce;" horiz-adv-x="677" d="M217 911q0 264 -20 410l4 6q73 -6 143 -6l145 6l3 -6q-21 -143 -21 -410v-501q0 -256 21 -410l-5 -6q-73 6 -143 6l-145 -6l-2 6q20 139 20 410v501zM643 1454l-33 -53q-42 16 -87 37l-99 48l-82 40l-79 -38q-65 -32 -107 -51l-84 -36l-33 53q102 82 272 252h62 q117 -123 270 -252z" />
<glyph unicode="&#xcf;" horiz-adv-x="677" d="M217 911q0 264 -20 410l4 6q73 -6 143 -6l145 6l3 -6q-21 -143 -21 -410v-501q0 -256 21 -410l-5 -6q-73 6 -143 6l-145 -6l-2 6q20 139 20 410v501zM45 1563q0 46 32.5 78t78.5 32t77 -32t31 -78q0 -45 -31.5 -77t-76.5 -32q-46 0 -78.5 32.5t-32.5 76.5zM430 1563 q0 46 32.5 78t78.5 32q45 0 77.5 -32.5t32.5 -77.5q0 -44 -33 -76.5t-77 -32.5q-46 0 -78.5 32.5t-32.5 76.5z" />
<glyph unicode="&#xd0;" horiz-adv-x="1538" d="M338 1321q75 0 190.5 3t190.5 3q145 0 279.5 -55.5t233.5 -149t158.5 -222.5t59.5 -269q0 -105 -23.5 -194t-63.5 -153t-95.5 -114.5t-117 -82.5t-131 -53t-134 -29.5t-129.5 -8.5q-111 0 -226.5 2t-191.5 2l-150 -6l-2 6q21 146 21 410v178h-172v80h172v243 q0 256 -21 410l4 6q78 -6 148 -6zM461 186q0 -35 16.5 -51t64.5 -23.5t150 -7.5q94 0 159.5 10t126.5 39.5t97 81.5t57 138.5t21 208.5q0 73 -5 135t-19.5 129t-38 119.5t-62.5 101.5t-92 81.5t-128 51.5t-167 19q-88 0 -134 -16.5t-46 -65.5v-469h129v-80h-129v-402z" />
<glyph unicode="&#xd1;" horiz-adv-x="1548" d="M207 911q0 256 -21 410l4 6q76 -6 146 -6l70 4l702 -909q16 -20 41 -54q43 -57 52 -60q8 -2 11 16q2 14 2 47v546q0 264 -20 410l-37 6q83 -6 133 -6q20 0 33.5 1.5t16.5 3.5l3 1l43 -6q-20 -136 -20 -410v-868q0 -27 -29 -45t-55 -18q-79 0 -127.5 25.5t-119.5 115.5 l-642 811q-17 22 -45 66q-2 3 -2 0q9 -67 10 -99v-489q0 -256 21 -410l-4 -6q-42 6 -92 6l-93 -6l-2 6q21 143 21 410v501zM879 1528q56 0 94 119l69 -21q-43 -221 -186 -221q-50 0 -76.5 14.5t-56.5 46.5q-49 54 -109 54q-39 0 -60 -27t-34 -82l-69 16q23 109 63 163.5 t107 54.5q47 0 80 -16.5t71 -49.5q60 -51 107 -51z" />
<glyph unicode="&#xd2;" horiz-adv-x="1595" d="M1489 674q0 -205 -81.5 -361.5t-239.5 -244.5t-373 -88q-201 0 -358 83t-244 232.5t-87 339.5q0 200 84 362t242 256.5t361 94.5q324 0 510 -183.5t186 -490.5zM766 1239q-78 0 -142 -29.5t-117 -93t-82.5 -177t-29.5 -269.5q0 -144 34 -256.5t94.5 -182.5t139.5 -106.5 t173 -36.5q177 0 270.5 137.5t93.5 409.5q0 315 -107 459.5t-327 144.5zM637 1706l291 -203q30 -21 30 -49q0 -13 -9.5 -22t-22.5 -9q-14 0 -80 19l-311 90l-15 29q25 83 117 145z" />
<glyph unicode="&#xd3;" horiz-adv-x="1595" d="M1489 674q0 -205 -81.5 -361.5t-239.5 -244.5t-373 -88q-201 0 -358 83t-244 232.5t-87 339.5q0 200 84 362t242 256.5t361 94.5q324 0 510 -183.5t186 -490.5zM766 1239q-78 0 -142 -29.5t-117 -93t-82.5 -177t-29.5 -269.5q0 -144 34 -256.5t94.5 -182.5t139.5 -106.5 t173 -36.5q177 0 270.5 137.5t93.5 409.5q0 315 -107 459.5t-327 144.5zM897 1706q92 -62 117 -145l-15 -29l-311 -90q-66 -19 -80 -19q-13 0 -23 9t-10 22q0 27 31 49z" />
<glyph unicode="&#xd4;" horiz-adv-x="1595" d="M1489 674q0 -205 -81.5 -361.5t-239.5 -244.5t-373 -88q-201 0 -358 83t-244 232.5t-87 339.5q0 200 84 362t242 256.5t361 94.5q324 0 510 -183.5t186 -490.5zM766 1239q-78 0 -142 -29.5t-117 -93t-82.5 -177t-29.5 -269.5q0 -144 34 -256.5t94.5 -182.5t139.5 -106.5 t173 -36.5q177 0 270.5 137.5t93.5 409.5q0 315 -107 459.5t-327 144.5zM1108 1454l-33 -53q-42 16 -87 37l-98 48l-83 40l-79 -38q-64 -32 -106 -51l-85 -36l-33 53q102 82 272 252h62q117 -123 270 -252z" />
<glyph unicode="&#xd5;" horiz-adv-x="1595" d="M1489 674q0 -205 -81.5 -361.5t-239.5 -244.5t-373 -88q-201 0 -358 83t-244 232.5t-87 339.5q0 200 84 362t242 256.5t361 94.5q324 0 510 -183.5t186 -490.5zM766 1239q-78 0 -142 -29.5t-117 -93t-82.5 -177t-29.5 -269.5q0 -144 34 -256.5t94.5 -182.5t139.5 -106.5 t173 -36.5q177 0 270.5 137.5t93.5 409.5q0 315 -107 459.5t-327 144.5zM895 1528q56 0 94 119l70 -21q-43 -221 -187 -221q-50 0 -76.5 14.5t-56.5 46.5q-49 54 -108 54q-39 0 -60 -27t-34 -82l-70 16q23 109 63 163.5t107 54.5q47 0 80 -16.5t71 -49.5q60 -51 107 -51z " />
<glyph unicode="&#xd6;" horiz-adv-x="1595" d="M1489 674q0 -205 -81.5 -361.5t-239.5 -244.5t-373 -88q-201 0 -358 83t-244 232.5t-87 339.5q0 200 84 362t242 256.5t361 94.5q324 0 510 -183.5t186 -490.5zM766 1239q-78 0 -142 -29.5t-117 -93t-82.5 -177t-29.5 -269.5q0 -144 34 -256.5t94.5 -182.5t139.5 -106.5 t173 -36.5q177 0 270.5 137.5t93.5 409.5q0 315 -107 459.5t-327 144.5zM242 1440q0 45 32.5 77.5t77.5 32.5q46 0 78.5 -32t32.5 -78q0 -44 -32.5 -76.5t-78.5 -32.5q-44 0 -77 32.5t-33 76.5zM1096 1440q0 46 32 78t78 32q45 0 78 -32.5t33 -77.5q0 -44 -33.5 -76.5 t-77.5 -32.5q-46 0 -78 32.5t-32 76.5z" />
<glyph unicode="&#xd7;" horiz-adv-x="1064" d="M532 563l248 246l86 -88l-245 -246l245 -246l-86 -86l-248 246l-245 -246l-86 86l245 246l-247 248l86 86z" />
<glyph unicode="&#xd8;" horiz-adv-x="1595" d="M1121 1051l-629 -776q59 -93 148 -140t196 -47q177 0 270.5 137.5t93.5 409.5q0 271 -79 416zM766 1239q-78 0 -142 -29.5t-117 -93t-82.5 -177t-29.5 -269.5q0 -178 54 -311l620 764q-106 116 -303 116zM203 -82l-70 53l160 197q-90 87 -138.5 206.5t-48.5 260.5 q0 200 84 362t242 256.5t361 94.5q223 0 385 -91l94 115l69 -49l-91 -113q116 -89 177.5 -226t61.5 -310q0 -205 -81.5 -361.5t-239.5 -244.5t-373 -88q-254 0 -435 132z" />
<glyph unicode="&#xd9;" horiz-adv-x="1431" d="M1079 911q0 264 -20 410l4 6q54 -6 104 -6l105 6l2 -6q-21 -143 -21 -410v-307q0 -301 -134 -462.5t-427 -161.5q-71 0 -136.5 11.5t-137 45.5t-123 87.5t-85.5 146t-34 212.5v428q0 264 -20 410l4 6q69 -6 139 -6l150 6l2 -6q-21 -143 -21 -410v-360q0 -33 0.5 -56.5 t3.5 -62t9 -67t16.5 -64.5t26 -62.5t38.5 -53.5t52.5 -44.5t70 -28t88.5 -10.5q90 0 155.5 27.5t101 69t56 107.5t26 123.5t5.5 137.5v344zM555 1706l291 -203q31 -22 31 -49q0 -13 -10 -22t-23 -9q-14 0 -80 19l-311 90l-15 29q25 83 117 145z" />
<glyph unicode="&#xda;" horiz-adv-x="1431" d="M1079 911q0 264 -20 410l4 6q54 -6 104 -6l105 6l2 -6q-21 -143 -21 -410v-307q0 -301 -134 -462.5t-427 -161.5q-71 0 -136.5 11.5t-137 45.5t-123 87.5t-85.5 146t-34 212.5v428q0 264 -20 410l4 6q69 -6 139 -6l150 6l2 -6q-21 -143 -21 -410v-360q0 -33 0.5 -56.5 t3.5 -62t9 -67t16.5 -64.5t26 -62.5t38.5 -53.5t52.5 -44.5t70 -28t88.5 -10.5q90 0 155.5 27.5t101 69t56 107.5t26 123.5t5.5 137.5v344zM918 1706q90 -61 116 -145l-14 -29l-311 -90q-66 -19 -80 -19q-13 0 -23 9t-10 22q0 27 31 49z" />
<glyph unicode="&#xdb;" horiz-adv-x="1431" d="M1079 911q0 264 -20 410l4 6q54 -6 104 -6l105 6l2 -6q-21 -143 -21 -410v-307q0 -301 -134 -462.5t-427 -161.5q-71 0 -136.5 11.5t-137 45.5t-123 87.5t-85.5 146t-34 212.5v428q0 264 -20 410l4 6q69 -6 139 -6l150 6l2 -6q-21 -143 -21 -410v-360q0 -33 0.5 -56.5 t3.5 -62t9 -67t16.5 -64.5t26 -62.5t38.5 -53.5t52.5 -44.5t70 -28t88.5 -10.5q90 0 155.5 27.5t101 69t56 107.5t26 123.5t5.5 137.5v344zM1047 1454l-33 -53q-42 16 -87 37l-99 48q-54 27 -83 40l-79 -38q-64 -32 -106 -51l-85 -36l-33 53q107 86 273 252h61 q113 -118 271 -252z" />
<glyph unicode="&#xdc;" horiz-adv-x="1431" d="M1079 911q0 264 -20 410l4 6q54 -6 104 -6l105 6l2 -6q-21 -143 -21 -410v-307q0 -301 -134 -462.5t-427 -161.5q-71 0 -136.5 11.5t-137 45.5t-123 87.5t-85.5 146t-34 212.5v428q0 264 -20 410l4 6q69 -6 139 -6l150 6l2 -6q-21 -143 -21 -410v-360q0 -33 0.5 -56.5 t3.5 -62t9 -67t16.5 -64.5t26 -62.5t38.5 -53.5t52.5 -44.5t70 -28t88.5 -10.5q90 0 155.5 27.5t101 69t56 107.5t26 123.5t5.5 137.5v344zM479 1440q0 45 33 77.5t78 32.5q46 0 78 -32t32 -78q0 -44 -32 -76.5t-78 -32.5q-44 0 -77.5 32.5t-33.5 76.5zM834 1440q0 46 32 78 t78 32q45 0 78 -32.5t33 -77.5q0 -44 -33.5 -76.5t-77.5 -32.5q-46 0 -78 32.5t-32 76.5z" />
<glyph unicode="&#xdd;" horiz-adv-x="1296" d="M771 585q5 -463 15 -591q-33 6 -149 6q-115 0 -148 -6q15 142 15 569l-240 395q-174 284 -231 369q35 -6 160 -6q124 0 159 6l82 -155l78 -138l92 -154l87 -148q203 322 335 595q25 -6 129 -6q59 0 86 6l-160 -243l-142 -218l-88 -140q-50 -82 -80 -141zM856 1706 q92 -62 117 -145l-15 -29l-311 -90q-66 -19 -80 -19q-13 0 -22.5 9t-9.5 22q0 28 30 49z" />
<glyph unicode="&#xde;" horiz-adv-x="1206" d="M449 414q33 -11 145 -11q49 0 83.5 5.5t69.5 24t56 50.5t34 87t13 132q0 72 -11.5 123t-30 79.5t-49 45t-59 21t-69.5 4.5q-31 0 -91 -7t-91 -16v-41v-497zM195 911q0 256 -21 410l4 6q74 -6 144 -6l145 6l2 -6q-13 -89 -18 -248q73 4 182 4q91 0 168.5 -17.5t131 -47.5 t94.5 -68t64 -80.5t34.5 -83t11.5 -78.5q0 -61 -33 -128t-95.5 -129.5t-168.5 -103t-236 -40.5q-112 0 -155 14q3 -197 20 -315l-4 -6q-73 6 -143 6l-146 -6l-2 6q21 146 21 410v501z" />
<glyph unicode="&#xdf;" horiz-adv-x="1230" d="M793 -20q-66 0 -133.5 21.5t-90.5 35.5l-2 6q10 18 16 37.5t12.5 51.5t10.5 48l23 2q21 -38 62 -73t81 -35q64 0 90.5 56t26.5 189q0 286 -268 488v43q107 66 143.5 133.5t36.5 183.5q0 77 -41 124.5t-105 47.5q-47 0 -85 -15.5t-62 -39.5t-40.5 -56t-23 -63.5 t-6.5 -62.5q0 -38 2 -97t2 -100v-495q0 -226 13 -410l-4 -6q-59 6 -129 6l-136 -6l-2 6q17 132 17 410v342q0 18 -5.5 25t-19.5 7h-90q-12 0 -12 11v43q0 15 11.5 28t35.5 13q80 0 80 98q0 78 46 174.5t128 169.5q65 58 145.5 83.5t149.5 25.5q161 0 237 -48 q58 -36 92.5 -87.5t34.5 -110.5q0 -112 -59.5 -190t-171.5 -136v-20q57 -37 99 -68.5t91.5 -79t80.5 -94.5t52 -110t21 -132q0 -92 -29 -171t-84 -128q-86 -75 -241 -75z" />
<glyph unicode="&#xe0;" horiz-adv-x="974" d="M813 164q0 -47 28 -60.5t97 -13.5q15 -12 20 -43q-87 -67 -202 -67q-64 0 -106.5 33t-55.5 85h-4q-73 -66 -134.5 -92t-125.5 -26q-111 0 -185.5 59.5t-74.5 161.5q0 103 93.5 189t242.5 122l178 43q12 4 12 25q0 114 -35 161t-106 47q-144 0 -232 -161l-47 2l-41 153 l6 9q44 39 138 73.5t194 34.5q174 0 266 -82q82 -73 82 -250q0 -7 -4 -188t-4 -215zM596 455l-164 -43q-33 -9 -56 -24t-35 -31.5t-18.5 -42t-8 -45t-1.5 -50.5q0 -45 27 -81t70 -36q81 0 151 70q11 11 21 41t10 51zM442 1380l142 -254q18 -32 18 -53q0 -13 -10.5 -23 t-24.5 -10q-23 0 -71 41l-248 215l4 23q18 21 59.5 43t89.5 22q25 0 41 -4z" />
<glyph unicode="&#xe1;" horiz-adv-x="974" d="M813 164q0 -47 28 -60.5t97 -13.5q15 -12 20 -43q-87 -67 -202 -67q-64 0 -106.5 33t-55.5 85h-4q-73 -66 -134.5 -92t-125.5 -26q-111 0 -185.5 59.5t-74.5 161.5q0 103 93.5 189t242.5 122l178 43q12 4 12 25q0 114 -35 161t-106 47q-144 0 -232 -161l-47 2l-41 153 l6 9q44 39 138 73.5t194 34.5q174 0 266 -82q82 -73 82 -250q0 -7 -4 -188t-4 -215zM596 455l-164 -43q-33 -9 -56 -24t-35 -31.5t-18.5 -42t-8 -45t-1.5 -50.5q0 -45 27 -81t70 -36q81 0 151 70q11 11 21 41t10 51zM524 1380q12 4 33 4q41 0 71.5 -15t45.5 -34l20 -47 l-245 -221q-38 -33 -78 -33q-12 0 -22.5 10t-10.5 19q0 25 16 49z" />
<glyph unicode="&#xe2;" horiz-adv-x="974" d="M813 164q0 -47 28 -60.5t97 -13.5q15 -12 20 -43q-87 -67 -202 -67q-64 0 -106.5 33t-55.5 85h-4q-73 -66 -134.5 -92t-125.5 -26q-111 0 -185.5 59.5t-74.5 161.5q0 103 93.5 189t242.5 122l178 43q12 4 12 25q0 114 -35 161t-106 47q-144 0 -232 -161l-47 2l-41 153 l6 9q44 39 138 73.5t194 34.5q174 0 266 -82q82 -73 82 -250q0 -7 -4 -188t-4 -215zM596 455l-164 -43q-33 -9 -56 -24t-35 -31.5t-18.5 -42t-8 -45t-1.5 -50.5q0 -45 27 -81t70 -36q81 0 151 70q11 11 21 41t10 51zM774 1055l-51 -39q-75 45 -122 80t-97 88 q-37 -38 -76.5 -70t-61.5 -46l-79 -52l-51 39q75 85 119 140t62 81l58 88h62l65 -99q20 -29 63 -83t109 -127z" />
<glyph unicode="&#xe3;" horiz-adv-x="974" d="M813 164q0 -47 28 -60.5t97 -13.5q15 -12 20 -43q-87 -67 -202 -67q-64 0 -106.5 33t-55.5 85h-4q-73 -66 -134.5 -92t-125.5 -26q-111 0 -185.5 59.5t-74.5 161.5q0 103 93.5 189t242.5 122l178 43q12 4 12 25q0 114 -35 161t-106 47q-144 0 -232 -161l-47 2l-41 153 l6 9q44 39 138 73.5t194 34.5q174 0 266 -82q82 -73 82 -250q0 -7 -4 -188t-4 -215zM596 455l-164 -43q-33 -9 -56 -24t-35 -31.5t-18.5 -42t-8 -45t-1.5 -50.5q0 -45 27 -81t70 -36q81 0 151 70q11 11 21 41t10 51zM645 1176q30 0 52.5 29t41.5 89l70 -20 q-43 -221 -186 -221q-50 0 -77 14.5t-57 46.5q-49 53 -108 53q-39 0 -60 -26.5t-34 -81.5l-70 16q23 108 63 162.5t107 54.5q48 0 81 -16.5t71 -48.5q60 -51 106 -51z" />
<glyph unicode="&#xe4;" horiz-adv-x="974" d="M813 164q0 -47 28 -60.5t97 -13.5q15 -12 20 -43q-87 -67 -202 -67q-64 0 -106.5 33t-55.5 85h-4q-73 -66 -134.5 -92t-125.5 -26q-111 0 -185.5 59.5t-74.5 161.5q0 103 93.5 189t242.5 122l178 43q12 4 12 25q0 114 -35 161t-106 47q-144 0 -232 -161l-47 2l-41 153 l6 9q44 39 138 73.5t194 34.5q174 0 266 -82q82 -73 82 -250q0 -7 -4 -188t-4 -215zM596 455l-164 -43q-33 -9 -56 -24t-35 -31.5t-18.5 -42t-8 -45t-1.5 -50.5q0 -45 27 -81t70 -36q81 0 151 70q11 11 21 41t10 51zM174 1169q0 49 34.5 83t80.5 34q49 0 83 -34t34 -83 q0 -46 -34 -80t-83 -34q-46 0 -80.5 34t-34.5 80zM563 1169q0 49 33.5 83t83.5 34q46 0 80.5 -34t34.5 -83q0 -46 -34.5 -80t-80.5 -34q-49 0 -83 34t-34 80z" />
<glyph unicode="&#xe5;" horiz-adv-x="974" d="M813 164q0 -47 28 -60.5t97 -13.5q15 -12 20 -43q-87 -67 -202 -67q-64 0 -106.5 33t-55.5 85h-4q-73 -66 -134.5 -92t-125.5 -26q-111 0 -185.5 59.5t-74.5 161.5q0 103 93.5 189t242.5 122l178 43q12 4 12 25q0 114 -35 161t-106 47q-144 0 -232 -161l-47 2l-41 153 l6 9q44 39 138 73.5t194 34.5q174 0 266 -82q82 -73 82 -250q0 -7 -4 -188t-4 -215zM596 455l-164 -43q-33 -9 -56 -24t-35 -31.5t-18.5 -42t-8 -45t-1.5 -50.5q0 -45 27 -81t70 -36q81 0 151 70q11 11 21 41t10 51zM295 1192q0 73 53 124.5t127 51.5t128 -51t54 -125 q0 -72 -53 -124t-129 -52q-74 0 -127 51.5t-53 124.5zM477 1300q-44 0 -74 -32.5t-30 -75.5q0 -41 30.5 -75t73.5 -34t74 34t31 75q0 44 -31 76t-74 32z" />
<glyph unicode="&#xe6;" horiz-adv-x="1482" d="M424 807q-68 0 -134 -59.5t-120 -143.5l-41 2l-35 158l6 8q170 127 344 127q31 0 63 -3.5t84 -16t99 -44t76 -79.5q55 69 138.5 106t180.5 37q61 0 115 -14.5t92 -39t68 -53.5t48 -59t27 -55.5t9 -44.5q0 -113 -58 -158q-28 -15 -76 -21.5t-96.5 -8t-154.5 -3.5t-195 -6 q0 -346 240 -346q152 0 274 129q35 -12 56 -47q-50 -84 -151 -138t-212 -54q-58 0 -108.5 11t-80 23t-61 36.5t-41.5 35t-32 35.5q-163 -141 -351 -141q-174 0 -262 60t-88 167q0 131 142.5 214t422.5 101q-1 63 -5 104t-15 79t-31.5 58t-54 32t-82.5 12zM866 528 q47 2 94.5 3.5t77 1t59 0.5t45.5 1t32 5t22.5 10.5t12 16.5t7 25t1.5 36q0 37 -15 76.5t-51.5 71.5t-87.5 32q-99 0 -140.5 -68t-56.5 -211zM612 430q-87 -7 -150 -22t-99.5 -33.5t-58 -45t-28 -52.5t-6.5 -60q0 -73 27.5 -104t103.5 -31q63 0 113.5 32t73.5 91 q24 63 24 225z" />
<glyph unicode="&#xe7;" horiz-adv-x="913" d="M373 -184l-27 26l66 145q-121 21 -215 124q-111 121 -111 303q0 236 123 360.5t334 124.5q74 0 165 -21t140 -47l4 -6l-49 -198l-37 -2q-80 170 -205 170q-103 0 -167 -87t-64 -241q0 -156 65 -260q29 -46 77 -78.5t91 -32.5q162 0 230 84h32q0 -48 11 -90 q-71 -60 -142.5 -85t-185.5 -25h-5l-26 -66q91 0 132.5 -40.5t41.5 -88.5q0 -67 -61 -111.5t-152 -44.5q-48 0 -78 6.5t-79 28.5l30 74q73 -27 117 -27q37 0 64.5 19t27.5 45q0 22 -16.5 38.5t-42.5 16.5q-48 0 -88 -14z" />
<glyph unicode="&#xe8;" horiz-adv-x="940" d="M817 219q41 -23 41 -72q-58 -78 -157.5 -122.5t-211.5 -44.5q-89 0 -160.5 23.5t-119 63.5t-79.5 95t-46 116.5t-14 129.5q0 112 37.5 207t98 156t134 94.5t147.5 33.5q98 0 172.5 -32.5t118 -88t65 -122.5t21.5 -144q0 -35 -37 -35h-520q0 -87 12.5 -152.5t32 -104 t49.5 -62t60.5 -31.5t68.5 -8q195 0 287 100zM311 567h275q14 0 21 16t7 33q0 102 -34 142.5t-95 40.5q-26 0 -52 -12t-51.5 -37t-45 -72.5t-25.5 -110.5zM467 1380l141 -254q19 -33 19 -53q0 -13 -10.5 -23t-24.5 -10q-24 0 -72 41l-248 215l4 23q18 21 60 43t90 22 q25 0 41 -4z" />
<glyph unicode="&#xe9;" horiz-adv-x="940" d="M817 219q41 -23 41 -72q-58 -78 -157.5 -122.5t-211.5 -44.5q-89 0 -160.5 23.5t-119 63.5t-79.5 95t-46 116.5t-14 129.5q0 112 37.5 207t98 156t134 94.5t147.5 33.5q98 0 172.5 -32.5t118 -88t65 -122.5t21.5 -144q0 -35 -37 -35h-520q0 -87 12.5 -152.5t32 -104 t49.5 -62t60.5 -31.5t68.5 -8q195 0 287 100zM311 567h275q14 0 21 16t7 33q0 102 -34 142.5t-95 40.5q-26 0 -52 -12t-51.5 -37t-45 -72.5t-25.5 -110.5zM573 1380q12 4 33 4q41 0 71.5 -15t45.5 -34l20 -47l-245 -221q-38 -33 -78 -33q-12 0 -22.5 10t-10.5 19q0 25 16 49 z" />
<glyph unicode="&#xea;" horiz-adv-x="940" d="M817 219q41 -23 41 -72q-58 -78 -157.5 -122.5t-211.5 -44.5q-89 0 -160.5 23.5t-119 63.5t-79.5 95t-46 116.5t-14 129.5q0 112 37.5 207t98 156t134 94.5t147.5 33.5q98 0 172.5 -32.5t118 -88t65 -122.5t21.5 -144q0 -35 -37 -35h-520q0 -87 12.5 -152.5t32 -104 t49.5 -62t60.5 -31.5t68.5 -8q195 0 287 100zM311 567h275q14 0 21 16t7 33q0 102 -34 142.5t-95 40.5q-26 0 -52 -12t-51.5 -37t-45 -72.5t-25.5 -110.5zM764 1055l-51 -39q-75 45 -122 80t-97 88l-24 -23l-20 -19q-9 -8 -22.5 -19t-20 -17t-21.5 -16l-20 -14l-22 -16 q-17 -12 -21 -14l-24 -15l-23 -15l-51 39q108 122 147 174t93 135h61q43 -67 65 -98.5t64.5 -84t108.5 -126.5z" />
<glyph unicode="&#xeb;" horiz-adv-x="940" d="M817 219q41 -23 41 -72q-58 -78 -157.5 -122.5t-211.5 -44.5q-89 0 -160.5 23.5t-119 63.5t-79.5 95t-46 116.5t-14 129.5q0 112 37.5 207t98 156t134 94.5t147.5 33.5q98 0 172.5 -32.5t118 -88t65 -122.5t21.5 -144q0 -35 -37 -35h-520q0 -87 12.5 -152.5t32 -104 t49.5 -62t60.5 -31.5t68.5 -8q195 0 287 100zM311 567h275q14 0 21 16t7 33q0 102 -34 142.5t-95 40.5q-26 0 -52 -12t-51.5 -37t-45 -72.5t-25.5 -110.5zM184 1169q0 49 34.5 83t80.5 34q49 0 83 -34t34 -83q0 -46 -34 -80t-83 -34q-46 0 -80.5 34t-34.5 80zM573 1169 q0 49 33.5 83t83.5 34q46 0 80.5 -34t34.5 -83q0 -46 -34.5 -80t-80.5 -34q-49 0 -83 34t-34 80z" />
<glyph unicode="&#xec;" horiz-adv-x="606" d="M184 481q0 251 -20 361l4 6q61 4 141.5 20t118.5 31q18 0 18 -20q-20 -156 -20 -365v-145q0 -223 20 -369l-4 -6q-67 6 -137 6l-139 -6l-2 6q20 139 20 369v112zM258 1380l141 -254q19 -33 19 -53q0 -13 -10.5 -23t-24.5 -10q-24 0 -72 41l-248 215l5 23q18 21 59.5 43 t89.5 22q25 0 41 -4z" />
<glyph unicode="&#xed;" horiz-adv-x="606" d="M184 481q0 251 -20 361l4 6q61 4 141.5 20t118.5 31q18 0 18 -20q-20 -156 -20 -365v-145q0 -223 20 -369l-4 -6q-67 6 -137 6l-139 -6l-2 6q20 139 20 369v112zM373 1380q12 4 33 4q77 0 116 -49l21 -47l-246 -221q-38 -33 -78 -33q-12 0 -22.5 10t-10.5 19q0 23 17 49z " />
<glyph unicode="&#xee;" horiz-adv-x="606" d="M184 481q0 251 -20 361l4 6q61 4 141.5 20t118.5 31q18 0 18 -20q-20 -156 -20 -365v-145q0 -223 20 -369l-4 -6q-67 6 -137 6l-139 -6l-2 6q20 139 20 369v112zM563 1055l-51 -39q-75 45 -122 80t-97 88q-37 -38 -77 -70q-38 -32 -60 -46l-80 -52l-51 39q75 85 119 140 t62 81l58 88h62l65 -99q20 -29 63 -83t109 -127z" />
<glyph unicode="&#xef;" horiz-adv-x="606" d="M184 481q0 251 -20 361l4 6q61 4 141.5 20t118.5 31q18 0 18 -20q-20 -156 -20 -365v-145q0 -223 20 -369l-4 -6q-67 6 -137 6l-139 -6l-2 6q20 139 20 369v112zM-12 1169q0 49 34 83t80 34q50 0 83.5 -34t33.5 -83q0 -46 -34 -80t-83 -34q-46 0 -80 34t-34 80zM377 1169 q0 49 33.5 83t83.5 34q46 0 80 -34t34 -83q0 -46 -34 -80t-80 -34q-49 0 -83 34t-34 80z" />
<glyph unicode="&#xf0;" horiz-adv-x="1013" d="M23 426q0 102 30.5 184.5t79.5 135.5t114.5 88t132 50t136.5 15q84 0 158 -29q-61 149 -209 283l-227 -154l-45 66l215 145q-72 79 -197 168l86 52q103 -56 217 -146l217 146l45 -66l-198 -133q91 -78 161 -154t131 -169t94 -200.5t33 -222.5q0 -251 -138.5 -378 t-377.5 -127q-107 0 -196 39.5t-145 104t-86.5 143t-30.5 159.5zM516 70q219 0 219 387q0 129 -39 266q-36 46 -78 66t-106 20q-60 0 -103 -22t-66.5 -54.5t-37 -82.5t-17 -92t-3.5 -97q0 -177 62 -284t169 -107z" />
<glyph unicode="&#xf1;" horiz-adv-x="1171" d="M991 369q0 -233 21 -369l-4 -6q-68 6 -138 6l-131 -6l-2 6q13 118 13 369v182q0 190 -107 190q-112 0 -237 -163v-209q0 -229 12 -369l-4 -6q-59 6 -129 6l-140 -6l-2 6q21 136 21 369v112q0 247 -21 361l4 6q61 4 138 20t116 31q19 0 19 -20l-23 -168l9 -6 q71 92 151.5 143t157.5 51q135 0 205.5 -81t70.5 -222v-227zM725 1176q30 0 52.5 29t41.5 89l70 -20q-43 -221 -187 -221q-50 0 -76.5 14.5t-56.5 46.5q-49 53 -108 53q-39 0 -60 -26.5t-34 -81.5l-70 16q23 108 63 162.5t107 54.5q47 0 80 -16.5t71 -48.5q60 -51 107 -51z " />
<glyph unicode="&#xf2;" horiz-adv-x="1089" d="M535 797q-51 0 -87.5 -18t-57 -46t-32.5 -74t-15 -88.5t-3 -103.5q0 -46 2.5 -84t10 -85.5t24 -83t41 -67t64.5 -48.5t91 -17q177 0 177 301q0 224 -44.5 319t-170.5 95zM78 420q0 214 127 346.5t344 132.5q100 0 180.5 -27.5t132.5 -73t86.5 -106.5t49 -124t14.5 -130 q0 -84 -29.5 -164t-85.5 -146.5t-147.5 -107t-204.5 -40.5q-111 0 -201 37t-147.5 99t-88 140t-30.5 164zM524 1380l142 -254q18 -32 18 -53q0 -13 -10.5 -23t-24.5 -10q-23 0 -71 41l-248 215l4 23q18 21 59.5 43t89.5 22q25 0 41 -4z" />
<glyph unicode="&#xf3;" horiz-adv-x="1089" d="M535 797q-51 0 -87.5 -18t-57 -46t-32.5 -74t-15 -88.5t-3 -103.5q0 -46 2.5 -84t10 -85.5t24 -83t41 -67t64.5 -48.5t91 -17q177 0 177 301q0 224 -44.5 319t-170.5 95zM78 420q0 214 127 346.5t344 132.5q100 0 180.5 -27.5t132.5 -73t86.5 -106.5t49 -124t14.5 -130 q0 -84 -29.5 -164t-85.5 -146.5t-147.5 -107t-204.5 -40.5q-111 0 -201 37t-147.5 99t-88 140t-30.5 164zM602 1380q12 4 33 4q41 0 71.5 -15t45.5 -34l20 -47l-246 -221q-38 -33 -77 -33q-12 0 -22.5 10t-10.5 19q0 25 16 49z" />
<glyph unicode="&#xf4;" horiz-adv-x="1089" d="M535 797q-51 0 -87.5 -18t-57 -46t-32.5 -74t-15 -88.5t-3 -103.5q0 -46 2.5 -84t10 -85.5t24 -83t41 -67t64.5 -48.5t91 -17q177 0 177 301q0 224 -44.5 319t-170.5 95zM78 420q0 214 127 346.5t344 132.5q100 0 180.5 -27.5t132.5 -73t86.5 -106.5t49 -124t14.5 -130 q0 -84 -29.5 -164t-85.5 -146.5t-147.5 -107t-204.5 -40.5q-111 0 -201 37t-147.5 99t-88 140t-30.5 164zM813 1055l-51 -39q-75 45 -122 80t-97 88q-37 -38 -77 -70q-38 -32 -60 -46l-80 -52l-52 39q108 122 147 174t93 135h61q43 -67 65 -98.5t64.5 -84t108.5 -126.5z" />
<glyph unicode="&#xf5;" horiz-adv-x="1089" d="M535 797q-51 0 -87.5 -18t-57 -46t-32.5 -74t-15 -88.5t-3 -103.5q0 -46 2.5 -84t10 -85.5t24 -83t41 -67t64.5 -48.5t91 -17q177 0 177 301q0 224 -44.5 319t-170.5 95zM78 420q0 214 127 346.5t344 132.5q100 0 180.5 -27.5t132.5 -73t86.5 -106.5t49 -124t14.5 -130 q0 -84 -29.5 -164t-85.5 -146.5t-147.5 -107t-204.5 -40.5q-111 0 -201 37t-147.5 99t-88 140t-30.5 164zM672 1176q30 0 52.5 29t41.5 89l70 -20q-43 -221 -187 -221q-50 0 -76.5 14.5t-56.5 46.5q-49 53 -108 53q-39 0 -60.5 -26.5t-34.5 -81.5l-69 16q23 108 63 162.5 t107 54.5q47 0 80 -16.5t71 -48.5q60 -51 107 -51z" />
<glyph unicode="&#xf6;" horiz-adv-x="1089" d="M535 797q-51 0 -87.5 -18t-57 -46t-32.5 -74t-15 -88.5t-3 -103.5q0 -46 2.5 -84t10 -85.5t24 -83t41 -67t64.5 -48.5t91 -17q177 0 177 301q0 224 -44.5 319t-170.5 95zM78 420q0 214 127 346.5t344 132.5q100 0 180.5 -27.5t132.5 -73t86.5 -106.5t49 -124t14.5 -130 q0 -84 -29.5 -164t-85.5 -146.5t-147.5 -107t-204.5 -40.5q-111 0 -201 37t-147.5 99t-88 140t-30.5 164zM236 1169q0 49 34 83t80 34q50 0 83.5 -34t33.5 -83q0 -46 -34 -80t-83 -34q-46 0 -80 34t-34 80zM625 1169q0 50 33.5 83.5t82.5 33.5q46 0 80.5 -34t34.5 -83 q0 -46 -34.5 -80t-80.5 -34q-49 0 -82.5 34t-33.5 80z" />
<glyph unicode="&#xf7;" horiz-adv-x="1064" d="M942 539v-123h-819v123h819zM457 209v9q16 40 40 64.5t68 41.5h7q44 -16 68 -39.5t40 -66.5v-9q-17 -47 -41 -71.5t-67 -34.5h-7q-47 11 -71 34t-37 72zM457 758v9q16 40 40 64.5t68 41.5h7q44 -16 68 -39.5t40 -66.5v-9q-17 -47 -41 -71.5t-67 -34.5h-7q-47 11 -71 34 t-37 72z" />
<glyph unicode="&#xf8;" horiz-adv-x="1089" d="M729 631l-348 -424q57 -125 192 -125q177 0 177 301q0 160 -21 248zM535 797q-51 0 -87.5 -18t-57 -46t-32.5 -74t-15 -88.5t-3 -103.5q0 -95 13 -168l344 418q-49 80 -162 80zM872 930l64 -47l-72 -87q75 -65 111.5 -160t36.5 -198q0 -84 -29.5 -164t-85.5 -146.5 t-147.5 -107t-204.5 -40.5q-166 0 -284 81l-97 -118l-62 53l97 117q-121 124 -121 307q0 214 127 346.5t344 132.5q145 0 250 -58z" />
<glyph unicode="&#xf9;" horiz-adv-x="1153" d="M733 131q-141 -151 -303 -151q-73 0 -130 23.5t-90 63t-49.5 88t-15.5 103.5l5 252q4 161 -17 369l4 6q65 -6 135 -6l134 6l2 -6q-5 -36 -8 -81.5t-4 -81.5q0 -36 -2 -100l-3 -106l-4 -184q-1 -60 7.5 -100t27 -58t37.5 -24.5t45 -6.5q76 0 152.5 62.5t76.5 146.5v164 q0 254 -14 369l4 6q61 -6 131 -6l137 6l2 -6q-18 -109 -18 -369v-117q0 -201 35 -393l-4 -6q-40 6 -130 6q-56 0 -110 -6q-18 0 -18 6l-11 131h-4zM508 1380l141 -254q19 -33 19 -53q0 -13 -10.5 -23t-24.5 -10q-24 0 -72 41l-248 215l4 23q18 21 60 43t90 22q25 0 41 -4z " />
<glyph unicode="&#xfa;" horiz-adv-x="1153" d="M733 131q-141 -151 -303 -151q-73 0 -130 23.5t-90 63t-49.5 88t-15.5 103.5l5 252q4 161 -17 369l4 6q65 -6 135 -6l134 6l2 -6q-5 -36 -8 -81.5t-4 -81.5q0 -36 -2 -100l-3 -106l-4 -184q-1 -60 7.5 -100t27 -58t37.5 -24.5t45 -6.5q76 0 152.5 62.5t76.5 146.5v164 q0 254 -14 369l4 6q61 -6 131 -6l137 6l2 -6q-18 -109 -18 -369v-117q0 -201 35 -393l-4 -6q-40 6 -130 6q-56 0 -110 -6q-18 0 -18 6l-11 131h-4zM651 1380q12 4 33 4q41 0 71.5 -15t45.5 -34l20 -47l-246 -221q-38 -33 -77 -33q-12 0 -22.5 10t-10.5 19q0 25 16 49z" />
<glyph unicode="&#xfb;" horiz-adv-x="1153" d="M733 131q-141 -151 -303 -151q-73 0 -130 23.5t-90 63t-49.5 88t-15.5 103.5l5 252q4 161 -17 369l4 6q65 -6 135 -6l134 6l2 -6q-5 -36 -8 -81.5t-4 -81.5q0 -36 -2 -100l-3 -106l-4 -184q-1 -60 7.5 -100t27 -58t37.5 -24.5t45 -6.5q76 0 152.5 62.5t76.5 146.5v164 q0 254 -14 369l4 6q61 -6 131 -6l137 6l2 -6q-18 -109 -18 -369v-117q0 -201 35 -393l-4 -6q-40 6 -130 6q-56 0 -110 -6q-18 0 -18 6l-11 131h-4zM879 1055l-52 -39q-75 45 -122 80t-97 88q-37 -38 -76.5 -70t-61.5 -46l-79 -52l-51 39q108 122 147 174t93 135h61 q43 -67 65 -98.5t64.5 -84t108.5 -126.5z" />
<glyph unicode="&#xfc;" horiz-adv-x="1153" d="M733 131q-141 -151 -303 -151q-73 0 -130 23.5t-90 63t-49.5 88t-15.5 103.5l5 252q4 161 -17 369l4 6q65 -6 135 -6l134 6l2 -6q-5 -36 -8 -81.5t-4 -81.5q0 -36 -2 -100l-3 -106l-4 -184q-1 -60 7.5 -100t27 -58t37.5 -24.5t45 -6.5q76 0 152.5 62.5t76.5 146.5v164 q0 254 -14 369l4 6q61 -6 131 -6l137 6l2 -6q-18 -109 -18 -369v-117q0 -201 35 -393l-4 -6q-40 6 -130 6q-56 0 -110 -6q-18 0 -18 6l-11 131h-4zM258 1169q0 49 34.5 83t80.5 34q49 0 82.5 -33.5t33.5 -83.5q0 -46 -33.5 -80t-82.5 -34q-46 0 -80.5 34t-34.5 80zM647 1169 q0 49 33.5 83t83.5 34q46 0 80.5 -34t34.5 -83q0 -46 -34.5 -80t-80.5 -34q-49 0 -83 34t-34 80z" />
<glyph unicode="&#xfd;" horiz-adv-x="1075" d="M579 181l-2 -2h4zM57 885q29 -6 140 -6q102 0 129 6q78 -237 251 -652q121 269 244 652q20 -6 109 -6q68 0 88 6q-85 -171 -314 -687.5t-280 -682.5q-33 10 -100 10q-78 0 -111 -10q128 212 229 446l-5 14q-53 143 -183 451zM614 1380q12 4 33 4q41 0 71.5 -15t45.5 -34 l20 -47l-245 -221q-38 -33 -78 -33q-12 0 -22.5 10t-10.5 19q0 25 16 49z" />
<glyph unicode="&#xfe;" horiz-adv-x="1193" d="M412 -66q0 -271 20 -409l-4 -6q-67 6 -137 6l-139 -6l-2 6q20 129 20 409v1053q0 276 -20 385l4 6q61 4 141 20.5t119 31.5q18 0 18 -21q-20 -157 -20 -385v-201l-2 -67q36 58 105.5 100.5t166.5 42.5q195 0 312.5 -117t117.5 -321q0 -121 -42.5 -215.5t-115.5 -151 t-164 -85.5t-194 -29q-102 0 -184 45v-91zM412 627v-469q73 -88 174 -88q268 0 268 356q0 85 -15 152t-38 107t-54 65.5t-59.5 35t-58.5 9.5q-58 0 -121.5 -45.5t-95.5 -122.5z" />
<glyph unicode="&#xff;" horiz-adv-x="1075" d="M579 181l-2 -2h4zM57 885q29 -6 140 -6q102 0 129 6q78 -237 251 -652q121 269 244 652q20 -6 109 -6q68 0 88 6q-85 -171 -314 -687.5t-280 -682.5q-33 10 -100 10q-78 0 -111 -10q128 212 229 446l-5 14q-53 143 -183 451zM274 1169q0 49 34.5 83t80.5 34q49 0 83 -34 t34 -83q0 -46 -34 -80t-83 -34q-46 0 -80.5 34t-34.5 80zM664 1169q0 50 33.5 83.5t82.5 33.5q46 0 80.5 -34t34.5 -83q0 -46 -34.5 -80t-80.5 -34q-49 0 -82.5 34t-33.5 80z" />
<glyph unicode="&#x152;" horiz-adv-x="1716" d="M932 0l-215 -4q-188 1 -333 88t-221.5 235t-76.5 332q0 186 71.5 337.5t211.5 243t325 91.5q145 -2 238 -2h538q74 0 123 6l4 -6q-4 -58 -4 -64q0 -21 4 -53l-4 -8q-284 25 -557 25q-16 -56 -16 -310v-168q203 0 457 21l6 -6q-6 -27 -6 -58q0 -30 6 -57l-6 -6 q-201 20 -457 20v-247q0 -243 16 -299q122 0 266 6t228 12l84 6l4 -8q-4 -32 -4 -68q0 -1 4 -59l-4 -6q-50 6 -123 6h-559zM713 76h26q60 0 82.5 19t22.5 63v1007q0 46 -22.5 61t-82.5 15h-71q-62 0 -115 -17t-101 -58.5t-82 -105t-53.5 -163t-19.5 -227.5q0 -153 35 -270.5 t94.5 -186.5t132 -103t154.5 -34z" />
<glyph unicode="&#x153;" horiz-adv-x="1587" d="M254 485q0 -88 15 -162.5t45 -134t81.5 -93.5t118.5 -34q41 0 78.5 14.5t75.5 49.5t61 108t23 175q0 90 -17 163t-43.5 118t-60.5 75.5t-65 42.5t-60 12q-62 0 -112 -32t-79.5 -82.5t-45 -107.5t-15.5 -112zM1497 215l41 -53q-61 -83 -152 -132.5t-198 -49.5 q-122 0 -213 45.5t-146 126.5q-40 -58 -78.5 -92.5t-105 -57t-160.5 -22.5q-191 0 -303 124t-112 318q0 116 36.5 208.5t98 150t139 88t164.5 30.5q74 0 131 -14.5t96 -42.5t63.5 -57t49.5 -70q62 87 150 135.5t178 48.5q97 0 167.5 -32.5t108.5 -87.5t55 -116.5t17 -130.5 q0 -34 -37 -34h-551q0 -88 19.5 -158.5t50 -114t70.5 -73t78 -41t75 -11.5q162 0 268 115zM942 588h371q28 0 28 28q0 105 -49.5 153t-115.5 48q-19 0 -39.5 -3t-53 -16.5t-58 -36.5t-49.5 -68t-34 -105z" />
<glyph unicode="&#x178;" horiz-adv-x="1296" d="M771 585q5 -463 15 -591q-33 6 -149 6q-115 0 -148 -6q15 142 15 569l-240 395q-174 284 -231 369q35 -6 160 -6q124 0 159 6l82 -155l78 -138l92 -154l87 -148q203 322 335 595q25 -6 129 -6q59 0 86 6l-160 -243l-142 -218l-88 -140q-50 -82 -80 -141zM373 1583 q0 46 32 78.5t78 32.5t77.5 -32.5t31.5 -78.5q0 -45 -32 -76.5t-77 -31.5q-46 0 -78 32t-32 76zM758 1583q0 46 32 78.5t78 32.5q45 0 78 -33t33 -78q0 -44 -33 -76t-78 -32q-46 0 -78 32t-32 76z" />
<glyph unicode="&#x2c6;" horiz-adv-x="714" d="M657 1100l-51 -39q-75 45 -122 80t-97 88q-37 -38 -77 -70q-38 -33 -60 -47l-80 -51l-51 39q75 85 119 140t62 81l58 88h62l65 -99q20 -29 63 -83t109 -127z" />
<glyph unicode="&#x2dc;" horiz-adv-x="598" d="M453 1274q56 0 94 119l69 -21q-43 -221 -186 -221q-50 0 -76.5 14.5t-56.5 46.5q-49 54 -109 54q-39 0 -60 -27t-34 -82l-69 17q23 108 63 162.5t107 54.5q47 0 80 -16.5t71 -49.5q60 -51 107 -51z" />
<glyph unicode="&#x2000;" horiz-adv-x="853" />
<glyph unicode="&#x2001;" horiz-adv-x="1706" />
<glyph unicode="&#x2002;" horiz-adv-x="853" />
<glyph unicode="&#x2003;" horiz-adv-x="1706" />
<glyph unicode="&#x2004;" horiz-adv-x="568" />
<glyph unicode="&#x2005;" horiz-adv-x="426" />
<glyph unicode="&#x2006;" horiz-adv-x="284" />
<glyph unicode="&#x2007;" horiz-adv-x="284" />
<glyph unicode="&#x2008;" horiz-adv-x="213" />
<glyph unicode="&#x2009;" horiz-adv-x="341" />
<glyph unicode="&#x200a;" horiz-adv-x="94" />
<glyph unicode="&#x2010;" horiz-adv-x="712" d="M575 453h-462q-13 0 -22 15t-9 30q0 28 17 66t34 38h469q14 0 21.5 -15.5t7.5 -31.5q0 -22 -19 -62t-37 -40z" />
<glyph unicode="&#x2011;" horiz-adv-x="712" d="M575 453h-462q-13 0 -22 15t-9 30q0 28 17 66t34 38h469q14 0 21.5 -15.5t7.5 -31.5q0 -22 -19 -62t-37 -40z" />
<glyph unicode="&#x2012;" horiz-adv-x="712" d="M575 453h-462q-13 0 -22 15t-9 30q0 28 17 66t34 38h469q14 0 21.5 -15.5t7.5 -31.5q0 -22 -19 -62t-37 -40z" />
<glyph unicode="&#x2013;" horiz-adv-x="1122" d="M135 469q-15 0 -22 14.5t-7 30.5q0 20 18 47t36 27h827q29 0 29 -43q0 -21 -17 -48.5t-36 -27.5h-828z" />
<glyph unicode="&#x2014;" horiz-adv-x="1519" d="M59 588h1401v-101h-1401v101z" />
<glyph unicode="&#x2018;" horiz-adv-x="548" d="M387 1128v-10q-15 -46 -44.5 -76t-82.5 -51h-10q-71 26 -110.5 82.5t-39.5 163.5q0 119 85 207t198 110q10 -9 13 -33.5t-3 -43.5q-84 -22 -132 -77.5t-48 -99.5q0 -40 10.5 -51.5t36.5 -11.5q60 -11 87 -32.5t40 -76.5z" />
<glyph unicode="&#x2019;" horiz-adv-x="548" d="M162 1339v11q15 46 44.5 76t82.5 51h10q71 -26 110.5 -82.5t39.5 -163.5q0 -119 -85 -207.5t-198 -110.5q-10 9 -13 34t3 44q84 23 132 77.5t48 98.5q0 40 -10.5 52t-36.5 12q-60 11 -87 32t-40 76z" />
<glyph unicode="&#x201a;" horiz-adv-x="548" d="M162 104v11q15 46 44.5 76t82.5 51h10q71 -26 110.5 -82.5t39.5 -163.5q0 -119 -85 -207.5t-198 -110.5q-10 9 -13 34t3 44q84 23 132 77.5t48 98.5q0 40 -10.5 52t-36.5 12q-60 11 -87 32t-40 76z" />
<glyph unicode="&#x201c;" horiz-adv-x="768" d="M336 1130v-10q-15 -46 -44.5 -76t-82.5 -51h-10q-71 26 -110.5 82.5t-39.5 163.5q0 119 85 207t198 110q10 -9 13 -33.5t-3 -43.5q-84 -23 -132 -77.5t-48 -98.5q0 -40 10.5 -52t36.5 -12q60 -11 87 -32.5t40 -76.5zM657 1130v-10q-15 -46 -44.5 -76t-82.5 -51h-10 q-71 26 -110 82.5t-39 163.5q0 119 84.5 207t197.5 110q10 -9 13.5 -33.5t-2.5 -43.5q-84 -23 -132.5 -77.5t-48.5 -98.5q0 -40 10.5 -52t36.5 -12q60 -11 87 -32.5t40 -76.5z" />
<glyph unicode="&#x201d;" horiz-adv-x="768" d="M434 1339v11q15 46 44.5 76t82.5 51h10q71 -26 110.5 -82.5t39.5 -163.5q0 -119 -85 -207.5t-198 -110.5q-10 9 -13 34t3 44q84 23 132 77.5t48 98.5q0 40 -10.5 52t-36.5 12q-60 11 -87 32t-40 76zM113 1339v11q15 46 44.5 76t82.5 51h10q71 -26 110 -82.5t39 -163.5 q0 -119 -85 -207.5t-197 -110.5q-10 9 -13.5 34t2.5 44q84 23 132.5 77.5t48.5 98.5q0 40 -10.5 52t-36.5 12q-60 11 -87 32t-40 76z" />
<glyph unicode="&#x201e;" horiz-adv-x="768" d="M434 102v11q15 46 44.5 76t82.5 51h10q71 -26 110.5 -82.5t39.5 -163.5q0 -119 -85 -207.5t-198 -110.5q-10 9 -13 34t3 44q84 23 132 77.5t48 98.5q0 40 -10.5 52t-36.5 12q-60 11 -87 32t-40 76zM113 102v11q15 46 44.5 76t82.5 51h10q71 -26 110 -82.5t39 -163.5 q0 -119 -85 -207.5t-197 -110.5q-10 9 -13.5 34t2.5 44q84 23 132.5 77.5t48.5 98.5q0 40 -10.5 52t-36.5 12q-60 11 -87 32t-40 76z" />
<glyph unicode="&#x2022;" horiz-adv-x="718" d="M100 479q0 104 78.5 180t179.5 76q104 0 182 -76.5t78 -185.5q0 -101 -72.5 -179.5t-187.5 -78.5q-106 0 -182 77t-76 187z" />
<glyph unicode="&#x2026;" horiz-adv-x="1533" d="M1206 98v11q20 48 48.5 77t80.5 50h8q53 -19 82 -47.5t48 -79.5v-11q-20 -57 -49.5 -86t-80.5 -41h-8q-57 12 -85.5 40t-43.5 87zM666 98v11q20 48 48.5 77t80.5 50h8q52 -19 81 -47.5t48 -79.5v-11q-20 -57 -49 -86t-80 -41h-8q-57 12 -85.5 40t-43.5 87zM123 98v11 q20 48 48.5 77t80.5 50h8q52 -19 81 -47.5t48 -79.5v-11q-20 -57 -49 -86t-80 -41h-8q-57 12 -85.5 40t-43.5 87z" />
<glyph unicode="&#x202f;" horiz-adv-x="341" />
<glyph unicode="&#x2039;" horiz-adv-x="727" d="M590 881v-111q-148 -209 -287 -330q133 -107 287 -327v-111q-247 287 -451 399v80q213 147 451 400z" />
<glyph unicode="&#x203a;" horiz-adv-x="727" d="M139 0v111q147 206 287 329q-132 106 -287 328v111q249 -289 451 -400v-80q-216 -149 -451 -399z" />
<glyph unicode="&#x205f;" horiz-adv-x="426" />
<glyph unicode="&#x20ac;" horiz-adv-x="897" d="M29 631l2 20l39 50h41q29 221 148.5 352t297.5 131q57 0 107 -9t81.5 -22t54.5 -26q22 -13 32 -22l10 -9l4 -6q-6 -24 -15 -55.5t-12 -43.5t-6.5 -37t-5.5 -61l-21 -2q-28 67 -47.5 102t-49 62t-66 36t-95.5 9q-40 0 -79.5 -23.5t-74.5 -70t-60.5 -125.5t-34.5 -180h460 l-37 -70h-427q0 -6 -0.5 -20t-0.5 -21q0 -21 2 -63h392l-38 -70h-349q9 -81 28 -148.5t50.5 -121.5t79.5 -84.5t108 -30.5q56 0 90 7.5t63.5 33t50.5 59t54 100.5l20 -2q2 -36 5.5 -61t6.5 -37t12 -42.5t15 -55.5l-4 -6q-5 -4 -13.5 -9.5t-37.5 -21t-60 -27t-78.5 -21 t-95.5 -9.5q-213 0 -329 129t-138 348h-108v18l40 52h63q0 6 -0.5 18t-0.5 18q0 24 2 68h-75z" />
<glyph unicode="&#x2122;" horiz-adv-x="1628" d="M1380 705l-34 403l-203 -498q-7 -20 -33 -20q-24 0 -35 20l-205 488q-16 -263 -28 -396v-12q0 -47 14 -47h31q35 0 35 -14v-17l-7 -12q-79 4 -124 4l-97 -4l-10 12v17q0 14 37 14h29q13 0 22 62q6 85 20.5 269.5t20.5 274.5v6v5q0 34 -18 34h-33q-35 3 -35 13v16l10 12 h183l229 -542l219 542h168l6 -12v-16q0 -13 -35 -13h-30q-19 0 -19 -32v-13l47 -544q8 -62 25 -62h29q38 0 38 -14v-17l-12 -12q-90 4 -133 4l-135 -4l-12 12v17q0 14 34 14h29q12 0 12 47v15zM424 698q0 -25 13.5 -37t47.5 -12h29q10 0 10 -10v-27l-2 -2q-129 2 -170 2 l-168 -2l-2 2v27q0 10 11 10h28q34 0 49 11t15 38v543q0 24 -6.5 32.5t-22.5 8.5h-104q-33 0 -48 -18.5t-32 -85.5l-45 12l39 184l49 -16q-1 -2 -2 -8t-2 -10.5t-2 -4.5h477q-1 0 -2 4.5t-2 10.5t-2 8l51 16l39 -186l-47 -10q-18 68 -33 86t-49 18h-88q-17 0 -23 -8.5 t-6 -34.5v-541z" />
<glyph unicode="&#xe000;" horiz-adv-x="885" d="M0 885h885v-885h-885v885z" />
<glyph unicode="&#xfb01;" horiz-adv-x="1335" d="M332 1288q136 142 364 142q62 0 92 -19l3 -6q-10 -17 -18.5 -55.5t-16.5 -85.5t-13 -66l-41 -2q-12 22 -19.5 33t-21.5 27.5t-31 24t-38 7.5q-81 0 -125.5 -52.5t-44.5 -139.5q0 -22 5 -96t5 -101v-20h221q17 0 17 -13v-55q0 -12 -15.5 -19.5t-31.5 -7.5h-191v-374 q0 -266 17 -410l-5 -6q-63 6 -133 6l-133 -6l-2 6q14 104 14 410v374h-135q-10 0 -10 13v41q0 15 11 28t36 13h98v61q0 94 37.5 186t104.5 162zM893 481q0 245 -21 361l5 6q61 4 141.5 20t118.5 31q18 0 18 -20q-20 -156 -20 -365v-145q0 -223 20 -369l-4 -6q-67 6 -137 6 l-140 -6l-2 6q21 146 21 369v112zM881 1214q0 56 39 95t94 39t94 -39t39 -95t-38.5 -94.5t-94.5 -38.5t-94.5 38.5t-38.5 94.5z" />
<glyph unicode="&#xfb02;" horiz-adv-x="1277" d="M332 1288q136 142 364 142q62 0 92 -19l3 -6q-10 -17 -18.5 -55.5t-16.5 -85.5t-13 -66l-41 -2q-12 22 -19.5 33t-21.5 27.5t-31 24t-38 7.5q-81 0 -125.5 -52.5t-44.5 -139.5q0 -22 5 -96t5 -101v-20h221q17 0 17 -13v-55q0 -12 -15.5 -19.5t-31.5 -7.5h-191v-374 q0 -266 17 -410l-5 -6q-63 6 -133 6l-133 -6l-2 6q14 104 14 410v374h-135q-10 0 -10 13v41q0 15 11 28t36 13h98v61q0 94 37.5 186t104.5 162zM885 410v561q0 271 -21 385l4 6q106 8 260 68q19 0 19 -21q-21 -165 -21 -385v-614q0 -265 21 -410l-4 -6q-67 6 -137 6l-140 -6 l-2 6q21 136 21 410z" />
<glyph unicode="&#xfb03;" horiz-adv-x="2043" d="M332 1288q136 142 364 142q62 0 92 -19l3 -6q-10 -17 -18.5 -55.5t-16.5 -85.5t-13 -66l-41 -2q-12 22 -19.5 33t-21.5 27.5t-31 24t-38 7.5q-81 0 -125.5 -52.5t-44.5 -139.5q0 -22 5 -96t5 -101v-20h221q17 0 17 -13v-55q0 -12 -15.5 -19.5t-31.5 -7.5h-191v-374 q0 -266 17 -410l-5 -6q-63 6 -133 6l-133 -6l-2 6q14 104 14 410v374h-135q-10 0 -10 13v41q0 15 11 28t36 13h98v61q0 94 37.5 186t104.5 162zM1040 1288q136 142 365 142q62 0 92 -19l2 -6q-10 -17 -18.5 -55.5t-16 -85.5t-12.5 -66l-41 -2q-16 28 -26.5 43.5t-34 32 t-50.5 16.5q-81 0 -125.5 -52.5t-44.5 -139.5q0 -22 5.5 -96t5.5 -101v-20h221q16 0 16 -13v-55q0 -12 -15.5 -19.5t-31.5 -7.5h-190v-374q0 -274 16 -410l-4 -6q-63 6 -133 6l-133 -6l-2 6q14 104 14 410v374h-135q-10 0 -10 13v41q0 15 11 28t36 13h98v61q0 94 37 186 t104 162zM1602 481q0 245 -21 361l4 6q61 4 141.5 20t118.5 31q19 0 19 -20q-21 -164 -21 -365v-145q0 -215 21 -369l-4 -6q-68 6 -138 6l-139 -6l-2 6q21 146 21 369v112zM1589 1214q0 56 39 95t94 39t94 -39t39 -95t-38.5 -94.5t-94.5 -38.5t-94.5 38.5t-38.5 94.5z" />
<glyph unicode="&#xfb04;" horiz-adv-x="2027" d="M332 1288q136 142 364 142q62 0 92 -19l3 -6q-10 -17 -18.5 -55.5t-16.5 -85.5t-13 -66l-41 -2q-12 22 -19.5 33t-21.5 27.5t-31 24t-38 7.5q-81 0 -125.5 -52.5t-44.5 -139.5q0 -22 5 -96t5 -101v-20h221q17 0 17 -13v-55q0 -12 -15.5 -19.5t-31.5 -7.5h-191v-374 q0 -266 17 -410l-5 -6q-63 6 -133 6l-133 -6l-2 6q14 104 14 410v374h-135q-10 0 -10 13v41q0 15 11 28t36 13h98v61q0 94 37.5 186t104.5 162zM1040 1288q136 142 365 142q62 0 92 -19l2 -6q-10 -17 -18.5 -55.5t-16 -85.5t-12.5 -66l-41 -2q-16 28 -26.5 43.5t-34 32 t-50.5 16.5q-81 0 -125.5 -52.5t-44.5 -139.5q0 -22 5.5 -96t5.5 -101v-20h221q16 0 16 -13v-55q0 -12 -15.5 -19.5t-31.5 -7.5h-190v-374q0 -274 16 -410l-4 -6q-63 6 -133 6l-133 -6l-2 6q14 104 14 410v374h-135q-10 0 -10 13v41q0 15 11 28t36 13h98v61q0 94 37 186 t104 162zM1593 410v561q0 276 -20 385l4 6q106 8 260 68q18 0 18 -21q-20 -157 -20 -385v-614q0 -272 20 -410l-4 -6q-67 6 -137 6l-139 -6l-2 6q20 129 20 410z" />
</font>
</defs>
</svg>
